<svg xmlns="http://www.w3.org/2000/svg" viewBox="0 0 500 500"><g id="freepik--Floor--inject-63"><path id="freepik--floor--inject-63" d="M95.59,277.88c-85.28,49.23-85.27,129.06,0,178.29s223.54,49.24,308.82,0,85.27-129.06,0-178.29S180.87,228.64,95.59,277.88Z" style="fill:#fafafa"></path></g><g id="freepik--Shapes--inject-63"><g id="freepik--Background--inject-63"><path d="M97.62,229.43a60.14,60.14,0,0,1,4.64-17.74c9-20.71,19.41-33,33.94-49.52,16.26-18.47,25-35.21,40.17-54.39,16-20.26,47.25-35.15,72.45-38.88s54,.56,74.1,15.54a147,147,0,0,1,47.59,61.4c14.6,35.09,15.8,75.52-.77,111.25C356,286.64,328,307.6,297.5,319c-59.93,22.43-99.91,17.32-143.26-2.53-19.06-8.73-37.31-25.95-47.54-44.26A73.19,73.19,0,0,1,97.62,229.43Z" style="fill:#C6FF00;opacity:0.1"></path><path d="M434.78,160.52a38.87,38.87,0,0,1,8,8.69c8.12,12.11,8.68,27.24,12.61,40.88,4.4,15.25,15.72,27,20.89,41.86,5.46,15.74,3.14,33.75-3.59,48.75s-22.25,27-37.39,32.73A94.9,94.9,0,0,1,385.41,338c-24.16-4.25-46.56-17.65-60.23-39.08-11.31-17.73-13-40.25-8.58-60.81,8.63-40.38,25.3-60.35,51.16-77,11.38-7.34,27.08-11.28,40.59-10.48A47.2,47.2,0,0,1,434.78,160.52Z" style="fill:#C6FF00;opacity:0.1"></path><path d="M84.74,356.29a38.92,38.92,0,0,1-10-6.32c-11-9.6-15.41-24.08-22.73-36.24-8.18-13.61-22.14-22-31-35.06-9.34-13.8-11.74-31.8-9.11-48s14.53-31.8,27.68-41.26a94.91,94.91,0,0,1,47.07-17.27c24.43-2.13,49.54,5,68.27,22.22,15.5,14.2,22.92,35.54,24,56.53C181,292.1,170,315.7,149.35,338.48c-9.09,10-23.25,17.88-36.51,20.59A47.24,47.24,0,0,1,84.74,356.29Z" style="fill:#C6FF00;opacity:0.1"></path><path d="M152.64,107c-2.1,1.59-4.43,3.22-7.06,3.2-2.85,0-5.39-2.09-6.67-4.63a16.86,16.86,0,0,1-1.37-8.33,40.23,40.23,0,0,1,12.29-27.14c8.44-8,27.75-17.54,34.95-3.28,4.65,9.2-3.67,15.5-9.84,21.32A271,271,0,0,1,152.64,107Z" style="fill:#C6FF00;opacity:0.1"></path></g></g><g id="freepik--character-3--inject-63"><g id="freepik--Character--inject-63"><g id="freepik--Bottom--inject-63"><path d="M326.41,326c2.44-8.07,12.58-36.22,21.44-50l47.23,4.05-29.14,46.81c4.64-1,14.5,2,14.5,2,8.55,2.05,24.74,7.82,31.58,8.35s6.59-2,12.26-1.12c4.17.64,6.09,5.87,6.6,10.43s5.09,9.08,7.66,12.34,2.37,7.9.54,11.83c-2.94,6.33-7.58,9-9.58,9.81-3.3,1.26-4.35-2.71-4.43-7.15C425,369.56,419,359.74,413,355.8a75.33,75.33,0,0,0-11.18-.95c-5.13,0-33.14,1.23-50,1.6-17.51.39-21.57-4-24.78-7.76S323.84,334.57,326.41,326Z" style="fill:#ffbda7"></path><path d="M355.87,356.35l.73,0,1.49,0,.73,0,1.55,0,.72,0,2.22-.07h.45l1.88-.07.93,0,1.33,0,1.12,0,1.32-.05,1,0,1.29-.05,1.16,0,2.12-.07c5.05-.18,9.93-.37,14.1-.51-6.34-7.76-10.73-8.71-10.73-8.71s4.86-6.71,10.35-15c-3-.9-5.89-1.74-8.26-2.34l-.92-.23s-9.86-2.93-14.5-2l29.14-46.81L352,276.43l0,.28-4.3-.37c-.71,1.12-1.44,2.34-2.16,3.63-.12,12.34,8.79,20.21,8.79,20.21s-7.75,21.24-10.72,31.88c-3.76,13.47-2.73,19.51,1.3,24.27,1.88.12,4,.17,6.33.13h.56l2,0,.69,0Z" style="fill:#f0997a"></path><path d="M428.34,335.7c2.26.2,2.25.64,3.7,3.8s.54,7.55,2.23,9.78,6.74,8.18,8.06,11.05,3.15,7-1.51,14.65-10,9-11.39,8.92-3.58-4.6-3.58-4.6Z" style="fill:#263238"></path><path d="M413.54,337.34c.61,0,1.17,0,1.66-.07,0,0,1.69,3.15,1.63,5.44a6.31,6.31,0,0,0,2.27,5.46,6,6,0,0,0-6.19,1c-1.81,1.71-4,4.94-3.67,6.19s3.12.09,5.77,2.23,8.53,11.73,8.86,13.87-1.65,8.59,4.11,10.88c4.07-.64,10.59-5.86,12.87-12.42s-.14-9.32-4.52-15.25-4.82-5.92-4.87-9.52a20.51,20.51,0,0,0-3.12-9.48c-3.74-2.22-8.13-.8-10.3,0S413.67,335.83,413.54,337.34Z" style="fill:#455a64"></path><path d="M349.15,276.18l54.1,4.64c1.16,7.85,1,17.22-2.35,25.89-4.92,12.73-24.52,39.77-24.52,39.77s5.56,1.19,13.21,12c5.3,7.47,9.7,18,16,24.51,2.26,2.36,5,2.51,8,3.38a9.2,9.2,0,0,1,3.08,1.37,7.12,7.12,0,0,1,2.4,5.43,36.83,36.83,0,0,1-.66,6.09,23.14,23.14,0,0,0,.08,7.52c.46,2.33,1.46,4.56,2.12,6.86a12.89,12.89,0,0,1,.65,5.66A10.18,10.18,0,0,1,420,422.4a17.89,17.89,0,0,1-5.77,6.15,39.22,39.22,0,0,1-3.9,1.93c-1.39.71-2.49,1.3-4.13.78a4.29,4.29,0,0,1-2.75-5c.4-1.44,1.17-2.73,1.3-4.24a34,34,0,0,0-1.64-12.22,33,33,0,0,0-1.76-3.52c-1.15-2.06-2.14-4.64-3.74-6.37-1.19-1.3-2.47-2.52-3.75-3.73-6.84-6.45-14.43-12.09-21.66-18.09-16.81-13.95-19-15.84-23.91-21.58-4.12-4.79-5.2-10.81-1.41-24.41,3-10.64,10.72-31.88,10.72-31.88S346.88,290.69,349.15,276.18Z" style="fill:#ffbda7"></path><path d="M376.38,346.48l1.28.49c.27.13.56.27.9.46l-5,2.88Z" style="fill:#f0997a"></path><path d="M419.36,387.19c2.1,1,1.95,1.43,2.33,5.07s-1.88,7.68-1,10.48,3.84,10.49,4.19,13.81.78,8.05-6.09,14-12.37,5.37-13.69,4.82-1.95-5.82-1.95-5.82Z" style="fill:#263238"></path><path d="M405.55,382.94l.79,1.17s.61,3.71-.18,6a7,7,0,0,0,.44,6.21,5.87,5.87,0,0,0-6.22-1.16c-2.28,1.06-5.4,3.48-5.47,4.84s2.94,1.2,4.8,4.25,4.42,14.64,4.05,16.88-4.29,7.93.47,12.23c4.09.81,12-2.06,16.22-7.76s2.81-9.29.52-16.72-2.73-7.57-1.64-11.15a22.37,22.37,0,0,0,0-10.5c-2.86-3.52-7.49-3.67-9.81-3.66S406.39,381.64,405.55,382.94Z" style="fill:#455a64"></path><path d="M350.56,270.51c-15,15.23-27.9,60.31-27.9,60.31S324.54,337.87,344,343a72.3,72.3,0,0,0,35.35.58s15.27-20.95,21.7-33.89,3.29-28.13.24-36.1Z" style="fill:#C6FF00"></path><path d="M368.45,297a36.31,36.31,0,0,1-6.23-.93A19.84,19.84,0,0,1,352,290.33c-3.7-4.18-4.77-10-5-15.62-13.42,18-24.34,56.11-24.34,56.11s1.85,6.92,20.81,12.08a63.8,63.8,0,0,1,6.82-19.78c4.9-9.11,14.87-17.05,22.89-23.46.78-.62,1.61-1.78.88-2.46C372.19,297.2,370.32,297.17,368.45,297Z" style="opacity:0.1"></path></g><path d="M430.69,274.94s-3.28-12.28-13.22-31.4-38.16-34-38.16-34l-5.41,0s30.11,19.42,38.89,36a137.43,137.43,0,0,1,12,31.56Z" style="fill:#C6FF00"></path><g id="freepik--Top--inject-63"><path d="M335.5,196.21c2.78-4,7.81-5.66,12.59-6.34s9.73-.59,14.34-2.06a22.27,22.27,0,0,0,10.48-7.3,6.92,6.92,0,0,1,.34-3.06c-2.06.09-3.76-1.92-3.94-4a8.86,8.86,0,0,1,2-5.71,21.57,21.57,0,0,1,5.36-5.3c7.67-5.32,18.36-5.49,26.62-.78,4.61,2.64,8.91,7.11,8.8,12.78h0c3.14.55,5.17,3.95,5.6,8.9.93,10.65-.81,17.39-5.49,24.83a40.84,40.84,0,0,1-20.33,16.08,55,55,0,0,1-26,2.67c3.34-1.63,6.52-3.48,7.62-6.75a56.9,56.9,0,0,1-18.13.87c-6.37-.71-12.92-2.69-17.39-7.29S331.8,201.45,335.5,196.21Z" style="fill:#263238"></path><g id="freepik--Arm--inject-63"><path d="M323.89,185.26c-1.64,5.23-.32,6.76,6.6,14.18,11.14,12,26.12,25.95,26.12,25.95l15.75-15.86c-4.86-1.81-8.15-2.87-10.59-5.08-10-9-17.27-15.92-19.51-18.42h0s7.39-21.16,8.51-23.6,4-4.27,4.59-4.78c4.42-3.53,4.91-5.59,6.95-10.74.35-.88.69-1.76,1-2.65a11,11,0,0,1,.53-1.27c.21-.38.37-.71,0-1.1a1.6,1.6,0,0,0-1.07-.38,4.6,4.6,0,0,0-3.38,1.61,22.52,22.52,0,0,0-2.24,3.13c-.55.82-.92-.24-1-.77-.51-2.58.95-6.49,1.83-8.92a34.1,34.1,0,0,0,1.78-4.76,5.2,5.2,0,0,0-.22-3.1c-.29-.66-.78-1.16-1.56-.72a3.61,3.61,0,0,0-1.08,1.24c-.64.95-1.25.74-2.44,1a9.32,9.32,0,0,0-2.24.49,5.68,5.68,0,0,0-2.05,1.92,1.79,1.79,0,0,0-2.17.64,24.32,24.32,0,0,0-4.29,6.91,29.84,29.84,0,0,0-1.69,9.43,17.15,17.15,0,0,1-1.45,5.78c-1,2.24-3.42,6.67-7.74,14C328.4,176.77,325.53,180,323.89,185.26Z" style="fill:#ffbda7"></path><path d="M354.34,147.93A10,10,0,0,0,348,154.6a6.7,6.7,0,0,1,1.47-4.62A6.19,6.19,0,0,1,354.34,147.93Z" style="fill:#f0997a"></path></g><path d="M401.87,273.63a46.32,46.32,0,0,1-.92-10.9c.06-3.64,2.05-6.94,5.71-15.52A49.46,49.46,0,0,0,410,222.36a40.91,40.91,0,0,0-9.32-5.64c-2.91-1.29-6.63-1.82-10.22-3-5.24-1.76-8.6-3.09-11.89-3.53-2.85-.38-6.18-.64-6.18-.64s-11.05,8.41-18,16.59c-4.72,5.54-5.4,13.33-.38,19l-.08,12.65L349.53,271s.53,6.73,18.28,9.49S401.87,273.63,401.87,273.63Z" style="fill:#455a64"></path><path d="M384.73,250.08c-3.22,2.28-13.55,3.82-18.72-3.29C366,253.7,380.43,257.61,384.73,250.08Z" style="fill:#37474f"></path><g id="freepik--arm--inject-63"><path d="M434.91,210c-18.24,24.59-21.37,27.85-28,38.14-5.15-1-13.28-19.33-3.69-30.12a131.27,131.27,0,0,0,18.22-24.4c.43-4.51,1.35-25.76.65-33.77a5.56,5.56,0,0,0-1.75-3.47c-2.81-2.69-4-6.06-5.9-9.1-1.46-2.37-3-3.2-2.58-3.77.49-.74,2.11-1.76,4.26-.57,1.09.6,3.59,3.55,4.51,4s-.37-4.18-2.82-8.93c-1.4-2.72-2.1-5.12-1.52-7.2.27-1,1-1.57,1.77-1.25a2.16,2.16,0,0,1,.7.56,2.06,2.06,0,0,1,.57-2c.93-.95,1.82-.38,2.45.5l.83,1.18a2.36,2.36,0,0,1,2.89.82c.26.31.81,1.22.81,1.22.86-.33,2.21-.63,3.5,1.27a36.51,36.51,0,0,1,3.94,6.21A26.54,26.54,0,0,1,435.6,145a24,24,0,0,1,.94,6,70.36,70.36,0,0,0,.41,14.21c1.31,11.4,1.57,14.38,3.27,29.81C440.85,200.84,440.58,202.32,434.91,210Z" style="fill:#ffbda7"></path><path d="M422.62,147c3.25.48,5.57,4.75,6.18,8C429.06,150.92,427.52,147.15,422.62,147Z" style="fill:#f0997a"></path></g><g id="freepik--Head--inject-63"><path d="M398,212.25c.6-3.65,2.32-11.88,2.32-11.88.41,1.12,3.39,3,7.27.58a7.25,7.25,0,0,0,2.56-9.25c-1.66-2.95-5.06-3.34-7.83-.27-2.35-.11-3-2.3-.58-6.49,1.36-5.12-3.92-6.44-4.53-13.78-7.58,1.44-12.81-3.13-18.47.54a29.7,29.7,0,0,0-6.18,12.72c-2,9.06-1.26,13.7,1.68,16.66,1.47,1.48,3.23,2.44,6.77,3.22,0,0-.27,1.26-.72,3.73-.23,1.28-.58,2.22-1.77,2.14-2.13,1.62-7.79,4.56,1.19,7.62,11.58,4,19.37.05,20.92-1.07C398.29,215.72,397.72,214,398,212.25Z" style="fill:#ffbda7"></path><path d="M381,204.3c6.39,1.27,12.3.54,16.11-3.17a8.51,8.51,0,0,1-4.17,4.26c-7.11,2.73-12.32.83-12.32.83Z" style="fill:#f0997a"></path><path d="M381.64,194.45l6.57-.65a3.13,3.13,0,0,1-2.82,3.6A3.48,3.48,0,0,1,381.64,194.45Z" style="fill:#b16668"></path><path d="M384,197.23a3.32,3.32,0,0,0,1.41.17,3.14,3.14,0,0,0,2.65-2.05A3.8,3.8,0,0,0,384,197.23Z" style="fill:#ffa8a7"></path><path d="M393.08,185.7c-.25,1-.78-.52-1.74-.77s-2,.82-1.74-.14a1.8,1.8,0,0,1,3.48.91Z" style="fill:#263238"></path><path d="M380.65,182.56c-.25.95-.78-.42-1.74-.67s-2,.71-1.74-.24a1.8,1.8,0,0,1,3.48.91Z" style="fill:#263238"></path><polygon points="387.48 179.85 383.54 191.24 378.57 187.6 387.48 179.85" style="fill:#f0997a"></polygon><path d="M377.18,178l4.29-.74a2.08,2.08,0,0,0-2.45-1.79A2.26,2.26,0,0,0,377.18,178Z" style="fill:#263238"></path><path d="M396.08,182.67,392.59,180a2.14,2.14,0,0,1,3.05-.43A2.3,2.3,0,0,1,396.08,182.67Z" style="fill:#263238"></path><path d="M391.61,188.56c-.1,1.52,1.51,2.87,3.6,3s3.86-1,4-2.53-1.52-2.88-3.61-3S391.71,187,391.61,188.56Z" style="fill:#f0997a"></path><path d="M370.22,182c-.6,1.41.49,3.21,2.42,4s4,.32,4.56-1.09-.49-3.22-2.42-4S370.81,180.58,370.22,182Z" style="fill:#f0997a"></path></g></g><g id="freepik--Bag--inject-63"><path d="M374.58,209.73c-9,11.48-9,30.28-2.22,48.34S396,288.63,396,288.63l-4.15,3.63S375,282.82,367.27,259s-4.82-39.55,2.15-50.76Z" style="fill:#C6FF00"></path><path d="M391.84,292.26c.33,10.72,4.65,26.84,6.54,30.63s6.19,7.38,14,5.91,27.43-8.76,34.79-12.86,10.58-6.65,10.58-11V299L396,288.63Z" style="fill:#C6FF00"></path><path d="M391.84,292.26c.33,10.72,4.65,26.84,6.54,30.63s6.19,7.38,14,5.91,27.43-8.76,34.79-12.86,10.58-6.65,10.58-11V299L396,288.63Z" style="opacity:0.30000000000000004"></path><path d="M396,288.63l36.83-11.56s19.27,14.15,23.77,19.29-4.28,9.15-17.56,15-30,12.07-35.12,5.84S396,288.63,396,288.63Z" style="fill:#C6FF00"></path><path d="M395,287.84c1.91-.77,3.85,4.18,5.79,8.43s2.42,9.46,7,8.37a200.16,200.16,0,0,0,20.62-6.23A130.26,130.26,0,0,0,447,290.07c5-2.54-8.59-11.94-11.5-14s-3.76-1.53-11.53.53-31,9.52-31,9.52Z" style="fill:#C6FF00"></path><path d="M395,287.84c1.91-.77,3.85,4.18,5.79,8.43s2.42,9.46,7,8.37a200.16,200.16,0,0,0,20.62-6.23A130.26,130.26,0,0,0,447,290.07c5-2.54-8.59-11.94-11.5-14s-3.76-1.53-11.53.53-31,9.52-31,9.52Z" style="fill:#fff;opacity:0.30000000000000004"></path></g></g></g><g id="freepik--character-2--inject-63"><g id="freepik--character--inject-63"><g id="freepik--Backpack--inject-63"><path d="M299.91,195.72l-20.11-8-1.91-24.82s12.61,3.5,15.26,7.79C297.43,177.58,300.66,187.48,299.91,195.72Z" style="fill:#C6FF00"></path><path d="M299.91,195.72l-20.11-8-1.91-24.82s12.61,3.5,15.26,7.79C297.43,177.58,300.66,187.48,299.91,195.72Z" style="opacity:0.5"></path><path d="M248.57,154.42c-5.67.39-12.46,5.11-13.88,7.5-2.6,4.38-6.19,59.65-.86,65.09,6.69,6.83,37.74,18.67,50.77,17.14,10.75-1.26,17.08-9,18.47-12,2.29-4.95-8.27-54-12.16-59.18C284.61,164.64,255.8,153.92,248.57,154.42Z" style="fill:#C6FF00"></path><path d="M248.57,154.42c-5.67.39-12.46,5.11-13.88,7.5-2.6,4.38-6.19,59.65-.86,65.09,6.69,6.83,37.74,18.67,50.77,17.14,10.75-1.26,17.08-9,18.47-12,2.29-4.95-8.82-55.6-12.71-60.73C284.06,163.08,255.8,153.92,248.57,154.42Z" style="opacity:0.30000000000000004"></path><path d="M279.52,211.35A251.06,251.06,0,0,1,278,175.29c-.41-3.54,3.1-10.69,3.1-10.69,4.13,2.19,7.5,4.53,9.22,6.81,3.89,5.13,15,55.76,12.72,60.73h0c-.07.16-.16.33-.25.51l0,.06c-.1.18-.21.36-.33.56l-.05.08c-.13.2-.27.41-.42.62l-.05.08c-.16.22-.33.45-.52.69h0a20.28,20.28,0,0,1-1.36,1.58h0c-.26.27-.53.55-.81.82l0,0a25.55,25.55,0,0,1-11.31,6.35C281.1,243,281.4,227.79,279.52,211.35Z" style="fill:#C6FF00"></path><path d="M278,175.29c-.41-3.54,3.1-10.69,3.1-10.69,4.13,2.19,7.5,4.53,9.22,6.81a4.52,4.52,0,0,1,.41.66c0,1-1.8,3.47-3,4.5a40.52,40.52,0,0,1-9.88,5.86C277.92,178,278,175.29,278,175.29Z" style="opacity:0.4"></path><path d="M297.59,205.62c-.25-.1-4-2.41-4.41-2.58-.75-.3-10.49,7.66-11.34,8.94-.59.89,2.54,22.33,3,23.2.17.32,4.23,2.27,4.41,2.58.49.88,10.8-7.25,11.32-9S298.69,206.06,297.59,205.62Z" style="fill:#C6FF00"></path><path d="M297.59,205.62c-.25-.1-4-2.41-4.41-2.58-.75-.3-10.49,7.66-11.34,8.94-.59.89,2.54,22.33,3,23.2.17.32,4.23,2.27,4.41,2.58.49.88,10.8-7.25,11.32-9S298.69,206.06,297.59,205.62Z" style="opacity:0.18"></path><path d="M286.25,214.56c-.6.89,2.54,22.32,3,23.2s10.8-7.25,11.32-9-1.91-22.66-3-23.1C296.84,205.32,287.1,213.28,286.25,214.56Z" style="fill:#C6FF00"></path><path d="M293.18,203c.42.17,4.16,2.48,4.4,2.58-.74-.3-10.48,7.66-11.33,8.93L281.84,212C282.69,210.7,292.43,202.74,293.18,203Z" style="opacity:0.4"></path><path d="M286.25,214.56c-.6.89,2.54,22.32,3,23.2s10.8-7.25,11.32-9-1.91-22.66-3-23.1C296.84,205.32,287.1,213.28,286.25,214.56Z" style="opacity:0.30000000000000004"></path><path d="M281.84,212c.72-.57,3.15.45,4.22,1.21s2.53,4.69,5.16,5.09,5.95-3.34,6.52-5.59,1-6.91-.35-8.43-3.66-2.21-5.39-1.06S281.88,210,281.84,212Z" style="fill:#C6FF00"></path><path d="M281.84,212c.72-.57,3.15.45,4.22,1.21s2.53,4.69,5.16,5.09,5.95-3.34,6.52-5.59,1-6.91-.35-8.43-3.66-2.21-5.39-1.06S281.88,210,281.84,212Z" style="opacity:0.1"></path><path d="M293.59,212.69a1.94,1.94,0,0,0-.73,1.86.77.77,0,0,0,1.24.57,1.86,1.86,0,0,0,.73-1.85A.77.77,0,0,0,293.59,212.69Z" style="fill:#37474f"></path><path d="M277.92,182.43s-.85-2.1,7.7-8.3c5.64-4.08,6.3-3.19,9,2.06,1.51,3,3.1,6.66,5.33,19.53,1.13-.12,1.7-3.67-.07-11.34-2.74-11.86-6.1-18-12.59-21.19-16.56-8.14-27.73-11.12-38.12-9.35-9.7,1.64-16,5.06-15.74,13.81C233.39,167.65,247.11,183.24,277.92,182.43Z" style="fill:#C6FF00"></path><path d="M277.92,182.43s-.85-2.1,7.7-8.3c5.64-4.08,6.3-3.19,9,2.06,1.51,3,3.1,6.66,5.33,19.53,1.13-.12,1.7-3.67-.07-11.34-2.74-11.86-6.1-18-12.59-21.19-16.56-8.14-27.73-11.12-38.12-9.35-9.7,1.64-16,5.06-15.74,13.81C233.39,167.65,247.11,183.24,277.92,182.43Z" style="opacity:0.35000000000000003"></path></g><g id="freepik--bottom--inject-63"><path d="M206,379.17c.46,6.22.91,10-1,14.84-3.06,7.89-6.27,13.95-8.19,15.91s-.28,3.54,4.52,4.35,10.6-1,13.73-5.35,5.35-8.43,7.68-10.31,1.22-5,.79-8.86c-.9-8.19,1.76-26.72,1.76-26.72l-20.41-.54S205.43,371.45,206,379.17Z" style="fill:#ffa8a7"></path><path d="M225.88,397.5a7.22,7.22,0,0,1,.24,2.75c-.21,1.17-2.38,3.34-3.82,4.46a10,10,0,0,0-3.8,6.31,17.78,17.78,0,0,1-6.63,10.13,28.72,28.72,0,0,1-15.6,5c-7,.32-8.49-3.26-8.49-3.26s-1.25-3.41.27-4.32S225.88,397.5,225.88,397.5Z" style="fill:#263238"></path><path d="M223.07,382.35l.07,0c.6.42.53,2.36.67,3.07a36.19,36.19,0,0,0,1.58,5.46c.65,1.78,1.5,4.63.49,6.57-1.31,3-5.32,4.75-7.11,8.84s-4.11,11.28-12.45,14.82-15.68,2.36-17.91.37S187.09,417,192,413c5.18-4.32,10.7-15,10.7-15a34,34,0,0,0,2.46-6.33,16,16,0,0,0,.7-3.48,12.09,12.09,0,0,0-.87-3.58.81.81,0,0,1,0-.53.78.78,0,0,1,.46-.37c3.14-1.37,6.76-1.23,10.12-.51,1,.23,2.25.65,2.59,1.67.28.84-.11,1.84.36,2.58a.32.32,0,0,0,.23.18c.21,0,.3-.25.31-.46l.15-2.12a2.46,2.46,0,0,1,.41-1.47,2.07,2.07,0,0,1,.66-.48C220.81,382.71,222.37,382,223.07,382.35Z" style="fill:#37474f"></path><path d="M211.49,418s-1.37-5.79-8.81-7.52-10.92,1.17-12.59,3c-2,2.15-4.55,6.3-1.82,8.31,2.95,2.17,6.9,2.66,13.66,1.27S211.49,418,211.49,418Z" style="fill:#fafafa"></path><path d="M215.56,396.76a.82.82,0,0,1-.67-.17c-1-.82-6.77-3.44-11.1-1.22-.37-.45-.11-1.06.7-1.8,4.78-1.47,10.24,1,11.45,2a.65.65,0,0,1,.05,1A.89.89,0,0,1,215.56,396.76Z" style="fill:#fafafa"></path><path d="M202,399.23a2.15,2.15,0,0,1,.93-1.81,15.16,15.16,0,0,1,10.85,2.16.65.65,0,0,1,.05,1,.87.87,0,0,1-.43.21.81.81,0,0,1-.67-.16C211.72,399.82,206.25,397.34,202,399.23Z" style="fill:#fafafa"></path><path d="M205.05,391.91a1.24,1.24,0,0,1,.46-1.92c5-2.34,11.31.46,12.62,1.53a.65.65,0,0,1,.05,1,.82.82,0,0,1-.42.22.83.83,0,0,1-.68-.17C216,391.69,209.43,388.72,205.05,391.91Z" style="fill:#fafafa"></path><path d="M196.51,407.88a4,4,0,0,1,1.6-2.29c4.73-1.34,10.06,1.07,11.26,2a.65.65,0,0,1,0,1,.81.81,0,0,1-.43.22.84.84,0,0,1-.67-.16C207.25,407.81,200.9,404.94,196.51,407.88Z" style="fill:#fafafa"></path><path d="M211.18,404.81a.81.81,0,0,1-.67-.16c-1-.81-6.64-3.38-11-1.29a2.45,2.45,0,0,1,1.16-1.91c4.62-1.1,9.69,1.21,10.85,2.15a.65.65,0,0,1,.05,1A.81.81,0,0,1,211.18,404.81Z" style="fill:#fafafa"></path><path d="M278.63,385c-.23-8.67-.41-21.43-.41-21.43l-21,3.89s4.16,14,4.88,19.36,1,10.64,3,12.73S282,403.55,278.63,385Z" style="fill:#ffa8a7"></path><path d="M265,421.41c.53,4.92,1.44,8.15,3.29,10.95s5.09,3.53,8.29,2.5,7.23-3.53,7.94-7.84,1.1-7.26.13-11.79Z" style="fill:#263238"></path><path d="M278.63,385c1.34,0,1.32,6.59,2.44,13.18,1.19,7.07,2.33,9.83,3.37,15.62,1.18,6.61.27,9.65-1.78,13.81s-9.86,8.55-14.1,3c-3.46-4.53-3.86-9.73-3.91-16.4a99.14,99.14,0,0,0-1.75-16.64c-.84-5.35-1.91-10.14-.78-10.76.27,1.44.87,4.26,1.18,5.27.12.38.72,1.26.86-.14,0-.42-.14-1.36-.12-1.78a1.75,1.75,0,0,1,1.13-1.66,12.53,12.53,0,0,1,5.62-1.61c2.61-.16,4.86-.37,6.35.31.9.42.92,1.28,1.06,2.11.17,1,.22,1.62.44,1.4C279.1,390.31,278.52,385.73,278.63,385Z" style="fill:#37474f"></path><path d="M285,417.66a17.1,17.1,0,0,1-2,10.26c-2,4.16-10.49,8.61-14.74,3.06-2.11-2.76-2.81-6.12-3.26-9.57C267.16,416.83,281.08,414.08,285,417.66Z" style="fill:#fafafa"></path><path d="M267.57,414a.49.49,0,0,0,.16-.05s6.1-3,12.18-1.92a.51.51,0,0,0,.18-1c-6.44-1.16-12.61,1.9-12.83,2a.52.52,0,0,0-.2.69A.47.47,0,0,0,267.57,414Z" style="fill:#f0f0f0"></path><path d="M279.36,407.08a.49.49,0,0,0,.4-.36.53.53,0,0,0-.34-.64c-6.1-1.75-12.58,1.76-12.82,1.91a.51.51,0,0,0-.17.7.48.48,0,0,0,.67.18c.06,0,6.38-3.44,12-1.8A.5.5,0,0,0,279.36,407.08Z" style="fill:#f0f0f0"></path><path d="M278.91,402.41a.51.51,0,0,0,.4-.36.51.51,0,0,0-.34-.63c-6.71-2.07-12.84,1.72-13.06,1.88a.51.51,0,0,0-.13.71.48.48,0,0,0,.69.14s6-3.67,12.22-1.75A.55.55,0,0,0,278.91,402.41Z" style="fill:#f0f0f0"></path><path d="M278.34,397.82a.51.51,0,0,0,.07-1c-6.29-2-12.9,1.86-13.14,2a.52.52,0,0,0-.15.71.48.48,0,0,0,.69.15c.05,0,6.46-3.81,12.31-1.92A.42.42,0,0,0,278.34,397.82Z" style="fill:#ebebeb"></path><path d="M271.36,225c5.05,16.83,5.16,26.63,4.24,49.51-.36,9-1.5,33.07-1.28,36.59.5,8.08,3.4,10.89,4.08,29.93.62,17.45.58,35.32.58,35.32a14.29,14.29,0,0,1-9.69,4.49,15.93,15.93,0,0,1-9.46-1.89s-13.33-43.16-15.6-53.61a266.48,266.48,0,0,1-4.93-37.36l-11.72,27s1.93,9.27.77,24.43c-.92,12.09-4.19,33.51-4.19,33.51a13.57,13.57,0,0,1-8.52,2.79c-7.38-.21-10.18-2.44-10.18-2.44s-6.55-43.75-6.66-61c-.15-23.58,12.75-60.72,13.45-79.63Z" style="fill:#37474f"></path><path d="M239.3,287.77l-1.09-26s-9.64-2.8-15.74-9.62c.38,5,8.88,11.58,12.89,12.64L237.9,287l-10.32,27.78Z" style="fill:#263238"></path><path d="M254.8,231.31a41.17,41.17,0,0,1,3.49,8,76.71,76.71,0,0,1,2.28,8.44c.59,2.86,1.07,5.73,1.38,8.63a59.43,59.43,0,0,1,.41,8.75c-.63-2.85-1.21-5.68-1.78-8.52s-1.14-5.65-1.75-8.47-1.22-5.62-1.87-8.43S255.6,234.12,254.8,231.31Z" style="fill:#263238"></path><path d="M258.48,232.43a31.09,31.09,0,0,1,3.75,4.5,41.22,41.22,0,0,1,3,5,37.84,37.84,0,0,1,2.27,5.46,24,24,0,0,1,1.19,5.82L266.23,248c-.84-1.73-1.68-3.45-2.56-5.16s-1.75-3.41-2.62-5.14S259.29,234.24,258.48,232.43Z" style="fill:#263238"></path><path d="M225.62,366.08l-.93,8.34s-3.28,2.32-10.43,2-9.34-2.46-9.34-2.46l-.72-7.76s3.12,1.48,9.66,1.81A28.81,28.81,0,0,0,225.62,366.08Z" style="fill:#455a64"></path><path d="M279.13,370.24l.2,8.27s-3.34,3-10.7,3.93-8.86-1-8.86-1l-1.62-7.6s2.06,1.18,8.79.38A35.82,35.82,0,0,0,279.13,370.24Z" style="fill:#455a64"></path></g><g id="freepik--top--inject-63"><g id="freepik--arm--inject-63"><path d="M188,145.39c15.59,24.44,21.84,32.8,24.26,41.47,8.22-.45,22.92-23.55,14.38-28.18-2.78-1.51-8.11-5.55-9-7,0,0-11.06-15.51-18.36-26.33-.94-6-2.69-31.23-2-39.56A5.73,5.73,0,0,1,199,82.22c2.89-2.82,4.12-6.33,6-9.5,1.5-2.48,3.05-3.35,2.65-4-.52-.76-2.21-1.8-4.44-.54-1.12.63-3.69,3.72-4.64,4.21s.35-4.34,2.84-9.3c1.43-2.84,2.14-5.34,1.52-7.49-.29-1-1.1-1.62-1.85-1.28a2.26,2.26,0,0,0-.72.59,2.11,2.11,0,0,0-.62-2.05c-1-1-1.89-.39-2.53.54l-.86,1.23a2.47,2.47,0,0,0-3,.87c-.26.33-.83,1.28-.83,1.28-.89-.33-2.3-.63-3.62,1.36a38.35,38.35,0,0,0-4,6.48,27.88,27.88,0,0,0-1.9,6,24.75,24.75,0,0,0-.92,6.27c.23,5.84,1.58,6.46.78,14-1.26,11.85-3,25.55-2.76,37.57C180.21,132.45,183.7,138.64,188,145.39Z" style="fill:#ffa8a7"></path><path d="M224.7,157a25.08,25.08,0,0,1-6.9-6.27c-2.12-2.61-13.72-18.61-13.72-18.61s1.53,5.83-5.48,12.94a17.11,17.11,0,0,1-8.24,4.53s10.58,15.61,16.2,27.21,5.78,16.64,5.78,16.64,5,2.49,10.06-11.45S224.7,157,224.7,157Z" style="fill:#455a64"></path><path d="M207.08,136.26c-.78,6.22-6,14.47-14.58,16.58.61.93,1.32,2,2.11,3.26,8.77-2.18,14.19-10.52,14.74-16.72C208.54,138.27,207.77,137.22,207.08,136.26Z" style="fill:#C6FF00"></path></g><path id="freepik--Chest--inject-63" d="M257.1,159.62s2.44.44,11.73,3.4c7.37,2.34,9.92,3.31,9.92,3.31a175.5,175.5,0,0,1-3.6,32.38c-.82,3.82-1.1,13-1,21.12.19,11.74.74,13.12,1.25,23.69,0,0-12.94,8.8-39.52,6.79-20.88-1.57-24.77-9.49-24.77-9.49s1.07-30.51,1.18-45.91c.14-20.79,7.87-34.35,12.38-37.89l12.23.75Z" style="fill:#fafafa"></path><path d="M255.89,164.18a10.87,10.87,0,0,0,3.08-4.11c-1.37-.36-1.87-.45-1.87-.45l-20.17-1.85-2.36-.15c-2.39,2.8-3.78,6.51,2.7,9.06C244.24,169.42,252.53,167.07,255.89,164.18Z" style="fill:#455a64"></path><g id="freepik--head--inject-63"><path d="M262.1,117.84s3.1.4,4.94,4.43c.92,2,1.47,5.66-1.88,15.8a41.48,41.48,0,0,1-5.55,11.09,5.07,5.07,0,0,1-3.07,2.2l.62-7.89.58-5.5s-4.23-4.26-4.4-8.24c-.23-5.12,1.91-7.9,1.91-7.9Z" style="fill:#263238"></path><path d="M263.33,117.51c-.54-4.48-5.9-10.08-16.74-11.24-8.88-.94-14,2-17.63,6.88-4,5.41-1.69,11.87-1.69,11.87l28.09-.36Z" style="fill:#263238"></path><path d="M264.42,145.52c-4.2,1.77-5.9-1.57-5.9-1.57l-1.47,16.27c-8.42,10.11-29.21,5.2-20.18-2.22l.06-3.79a29.13,29.13,0,0,1-3.73-.92c-3.49-1.15-6.91-3.1-7.76-8.62-1.06-6.89.09-13.9,2.8-23.68.52-1.89,1.46-3.93,3.26-4.7,4.46-1.93,8.33,1.39,14.26,4.07,2.46,1.11,8.53,1.87,10.18,1.2-2.24,2.22-2.79,8.53.17,11.69,0,.28-.06,2.73,1.29,3.53,1.51.9,2.85-2,4-3.15a4.57,4.57,0,0,1,7,2A7.46,7.46,0,0,1,264.42,145.52Z" style="fill:#ffa8a7"></path><path d="M236.93,154.21c4.76.22,9.34-.34,12-1.76a14,14,0,0,0,7.42-8.87c-.16,3-2.63,9.43-7,11.44s-9.34,1.87-12.46,1.77Z" style="fill:#f28f8f"></path><path d="M245.81,126.11l3.46,2.67a2.3,2.3,0,0,0-.42-3.15A2.13,2.13,0,0,0,245.81,126.11Z" style="fill:#263238"></path><path d="M230.06,125.19l4.17-1.41a2.12,2.12,0,0,0-2.72-1.42A2.31,2.31,0,0,0,230.06,125.19Z" style="fill:#263238"></path><path d="M239.08,127.63,237,138.87l-5.86-2.52A26.48,26.48,0,0,1,239.08,127.63Z" style="fill:#f28f8f"></path><path d="M233.67,129.78c-.29.94-.67-.55-1.61-.84s-2.09.72-1.8-.22a1.79,1.79,0,0,1,3.41,1.06Z" style="fill:#263238"></path><path d="M245.88,132.1c-.29.94-.66-.55-1.61-.84s-2.08.73-1.79-.22a1.78,1.78,0,0,1,3.4,1.06Z" style="fill:#263238"></path><path d="M242.91,141.11l-6.27,1.71a3.2,3.2,0,0,0,3.93,2.39A3.4,3.4,0,0,0,242.91,141.11Z" style="fill:#b16668"></path><path d="M242.2,142.18a4.21,4.21,0,0,1,.79,0,3.36,3.36,0,0,1-2.42,3.06,3.08,3.08,0,0,1-1,.09A3,3,0,0,1,242.2,142.18Z" style="fill:#f28f8f"></path></g><g id="freepik--Cap--inject-63"><path d="M229,117h.13c8.06-.64,17.34,2.31,24.59,7.31.23.15.47.33.7.49l.19.15a33.73,33.73,0,0,1,8.06,8,5,5,0,0,1,4,.48c.17-.45.75-2.42.84-2.79,1.66-7.3,3.57-16-12.49-23.49-10.83-5-21.14-2.7-24.15,4.06C230.27,112.68,229.62,115.44,229,117Z" style="fill:#455a64"></path><path d="M255,123.32a23.52,23.52,0,0,0-8-9.71c-3.91-3-12.66-4.47-16.6-5-6.91-1-8.78.22-9,1.22-.06.24-.33,1.34-.4,1.59a1,1,0,0,0,0,.67c.78,1.73,5.92,5.31,5.92,5.31,9-1,19.5,2.06,27.63,7.55Z" style="fill:#C6FF00"></path><path d="M254.63,124.93A45.82,45.82,0,0,0,227,117.38s-5.14-3.58-5.92-5.31c-.42-.95.43-3.08,9-1.87,3.94.56,12.69,2.06,16.6,5A23.66,23.66,0,0,1,254.63,124.93Z" style="fill:#37474f"></path></g><g id="freepik--arm--inject-63"><path d="M267.06,163.15a34.53,34.53,0,0,0,6.51-3.35c3.39-2.11,6.51-4,7.93-5.39,5-5,18.42-16,18.42-16s-2.18-22.2-2.84-26.85-.62-4.8-1.85-8.52c-1.27-1.72-4.56-3.78-6-5.92a23.74,23.74,0,0,1-3-6.12,16.12,16.12,0,0,0-2-3.9c-1-1.58.92-2.21,2.11-1.93a5.36,5.36,0,0,1,2.75,1.61c.95,1.12,2,3.68,3.71,3.83,1.3.12.56-2.24.45-3a22,22,0,0,0-1-3.82c-.49-1.4-1.09-3.58-1.73-6.08a16.77,16.77,0,0,1-.54-5.49,3.29,3.29,0,0,1,1.34-2.67c1.1-.66,1.75.61,2.15,1.61a9.66,9.66,0,0,1,1.64,0,2.74,2.74,0,0,1,2.09,1.65,4.35,4.35,0,0,1,4.53,2.25c.32.7.39.63,1.13.77,1.36.24,1.78,1.44,2.39,2.52,1.92,3.39,3.08,5.28,4,9.08,1.18,5.08.42,10.44.76,15.6a19.57,19.57,0,0,0,1,5.31c1.69,5,2.62,8.19,4.2,13.2.91,2.89,3,8.92,4.12,13.06,2.65,9.62,3.34,9.71-4.54,17.91-10.6,11-32.6,25.66-38.87,42.3C268.3,187.91,262.18,178.6,267.06,163.15Z" style="fill:#ffa8a7"></path><path d="M299.92,138.41c.44,2.19,2.32,9.07,5.7,10.34-4.92-.39-6.69-6.94-7-9.21Z" style="fill:#f28f8f"></path><path d="M265.67,162c3.19.37,7.05-2.77,10.14-4.6A62.93,62.93,0,0,0,284.7,151c3.08-2.65,5.23-4.13,5.23-4.13s-2.22,5.23,1.46,12.29,6.83,8.77,6.83,8.77-8.3,6.88-13.45,13.86-8.38,11.73-9.48,16.3C267.43,196.74,259.87,176,265.67,162Z" style="fill:#455a64"></path><path d="M285.43,150.34l-.73.62c-1.28,1.1-2.5,2.07-3.7,3-.31,5.94,2.38,15.82,10.26,20.39,1.21-1.22,2.37-2.33,3.38-3.27C286.91,166.32,284.84,156.19,285.43,150.34Z" style="fill:#C6FF00"></path></g><path d="M269.82,161.05c-3,4.14-5.64,18.53-3.34,32.83s11.65,25.72,11.65,25.72l-.33,7.91s-14.11-10.18-18.38-31.82,2.09-34.91,2.09-34.91Z" style="fill:#C6FF00"></path><path d="M231.54,157.44c-8.69,7.78-18.87,25.66-19.3,43.88-4.49-14.11,2.74-38.75,11-45.22Z" style="fill:#C6FF00"></path></g></g></g><g id="freepik--character-1--inject-63"><g id="freepik--character--inject-63"><g id="freepik--backpack--inject-63"><path d="M40.92,233.91c.62.2,6.52-1.86,12-4.67l-2.31-21.5s-7.31,1.53-8.76,10.22C39.32,232.92,40.92,233.91,40.92,233.91Z" style="fill:#263238"></path><path d="M81.66,194.27c5.35-.67,11.89,1.31,14.22,5.28.39.67,3.22,5.91,3.22,5.91,4.57,14.2,14,51,10.7,56.07-5,7.55-31.68,24.19-44.07,25.12-10.22.78-21-7.44-22.75-10.08-5.63-8.68,1.08-61.12,3.76-66.6C51.08,201.09,74.85,195.11,81.66,194.27Z" style="fill:#C6FF00"></path><path d="M109.8,261.53c-5,7.55-31.68,24.19-44.07,25.12a22.34,22.34,0,0,1-8.22-1.07c3,1.05,6.25-.69,6.78-4.53s-1.12-34-3.87-59.63l38.68-16C103.67,219.66,113.12,256.48,109.8,261.53Z" style="opacity:0.18"></path><path d="M45.75,212.85a13.38,13.38,0,0,1,.94-3.35c4.34-8.88,28.11-14.86,34.92-15.7,5.34-.67,11.89,1.31,14.22,5.28.37.64,3.22,5.9,3.22,5.9C89,211.81,62.82,220.46,59.87,219.73,56.24,218.83,45.75,212.85,45.75,212.85Z" style="opacity:0.5"></path><path d="M42.68,253.17c.24-.15,3.77-3.23,4.18-3.48.74-.44,12.36,6.24,13.48,7.43.77.84.91,19.63.54,20.64-.13.36-4.05,3.11-4.18,3.48-.37,1-12.62-5.76-13.48-7.55S41.6,253.82,42.68,253.17Z" style="fill:#C6FF00"></path><path d="M42.68,253.17c.24-.15,3.77-3.23,4.18-3.48.74-.44,12.36,6.24,13.48,7.43.77.84.91,19.63.54,20.64-.13.36-4.05,3.11-4.18,3.48-.37,1-12.62-5.76-13.48-7.55S41.6,253.82,42.68,253.17Z" style="opacity:0.18"></path><path d="M56.15,260.6c.78.83.91,19.63.55,20.64s-12.62-5.76-13.48-7.55-1.62-19.87-.54-20.52C43.41,252.72,55,259.4,56.15,260.6Z" style="fill:#C6FF00"></path><path d="M46.86,249.69c-.41.25-3.94,3.33-4.18,3.47.73-.44,12.35,6.24,13.47,7.43l4.19-3.46C59.22,255.93,47.6,249.25,46.86,249.69Z" style="opacity:0.4"></path><path d="M56.15,260.6c.78.83.91,19.63.55,20.64s-12.62-5.76-13.48-7.55-1.62-19.87-.54-20.52C43.41,252.72,55,259.4,56.15,260.6Z" style="opacity:0.30000000000000004"></path><path d="M60.34,257.13c-.87-.48-3.24,1-4.23,2s-1.85,5.37-4.55,6.24-6.83-2.47-7.81-4.74-2.3-7.09-1.1-8.93,3.46-3,5.48-2S60,255,60.34,257.13Z" style="fill:#C6FF00"></path><path d="M60.34,257.13c-.87-.48-3.24,1-4.23,2s-1.85,5.37-4.55,6.24-6.83-2.47-7.81-4.74-2.3-7.09-1.1-8.93,3.46-3,5.48-2S60,255,60.34,257.13Z" style="opacity:0.1"></path><path d="M48.56,260.54a2.07,2.07,0,0,1,1.09,1.83.83.83,0,0,1-1.21.81,2,2,0,0,1-1.09-1.82C47.38,260.62,47.92,260.25,48.56,260.54Z" style="fill:#37474f"></path><path d="M60.37,221s-4-2.18-8.89-4.32-7.5-2.78-8.55,2.69a119.57,119.57,0,0,0-2,14.59c-.92-.33-1-1.91-1.11-8.74-.17-9.94-1.89-14.2,7.87-19.23,15.14-7.8,27.89-14,37.14-13s11.91,5.89,14.23,12C99.05,205,89.14,216.13,60.37,221Z" style="fill:#455a64"></path></g><g id="freepik--bottom--inject-63"><path d="M130.54,247.92l-15.65,14.71-10.4,23s1.16,19.95,4.69,32.47c-4.19,2.66-12.79,6.27-22.07,19.72a204.77,204.77,0,0,1-14,18.6c-2.69,1.49-5.82,2.55-8.25,4.47-2.18,1.71-4.32,3.55-4.35,6.58,0,1.86.75,3.64,1.09,5.48.84,4.49-.92,9-1,13.61a19.45,19.45,0,0,0,8.23,16.25,10.09,10.09,0,0,0,5.26,2,3.3,3.3,0,0,0,3-2,11.61,11.61,0,0,0,1-4.56c.32-5.79-.65-11.67.5-17.35.71-3.46,2.1-7.33,4.74-9.77,2.09-1.94,4.71-3.95,7-5.7,12.39-9.58,22.06-16,35.58-26,12.57-9.29,16.66-12.8,16.54-21.14-.22-15-.15-17.6-4.15-41C134.74,257.4,130.54,247.92,130.54,247.92Z" style="fill:#af6152"></path><path d="M104.48,299.46,84.15,245.34l46.39,2.58a159.57,159.57,0,0,1,7.71,26.37,242.83,242.83,0,0,1,4.12,26.86c.9,14.4,1.1,20.64-.78,24.53s-8,9-18.82,16.66S104.93,355,104.93,355s-5.57-1.63-10.34-9.87c-3.8-6.56-2.56-14.55-2.56-14.55s8.59-9.68,15.78-12.76Z" style="fill:#37474f"></path><path d="M92.77,329.74c3.53,7,8.1,16.18,12.47,25,1.46-1,8.05-5.65,17.53-12.41,4.79-3.41,8.66-6.31,11.66-8.82l-11.15-50.71s11.13-8,8.68-20.08c-3.1,6.07-20,16.48-20,16.48l-12,8.43,4.44,11.82,3.33,18.32C101.87,320.32,95,327.36,92.77,329.74Z" style="fill:#263238"></path><path d="M60.2,363.81a8.61,8.61,0,0,0-2,2.81c-.54,1.07.93,6.18.58,8.49s-.76,3-1.46,5.9c-.78,3.25-2.6,6.36.9,14s7.94,10.92,11.52,12.43a8.88,8.88,0,0,0,4.15.45s4.15-2.21,3.15-4.71S60.2,363.81,60.2,363.81Z" style="fill:#263238"></path><path d="M82.73,372.15c0,.83-.79,1.63-1.66,3.21A19.88,19.88,0,0,0,79,382.53c-1,12.93,2.11,18.79-2.32,23.42-1.61,1.7-5.92,1.68-13.14-5.45-3.68-3.64-6.57-11.75-5.82-15.68s2.11-6.61,2.53-9.62-1.34-8.69-.06-11.39c.94-1.8,3.55-3.3,4.54-3.77a34,34,0,0,0,5.33-2.91c1.23-.92,2.09-1.51,3-.72l-1.56,1.71c-1.82,3.34-1.88,4.11-2.12,5.74-.32,2.15.19,3.22.1,4.95,1.32-2.19,1.77-4.1,3.52-4.12,1,0,1.92.17,4.67,2.16S82.74,371.41,82.73,372.15Z" style="fill:#455a64"></path><path d="M63.61,400.54c-3.69-3.64-6.57-11.74-5.83-15.68a35.1,35.1,0,0,1,1-3.84c0,.26-.06.53-.07.75q0,.75,0,1.5a11.47,11.47,0,0,0,1.37,5.63c.92,1.48,3.07,5.2,5.2,5,1.21-.1,2.07-1.41,2.36-2.81.12-.59.24-2.16.24-2.16a18.73,18.73,0,0,1,5.8,1.54c3.33,1.63,3.28,2.09,3.28,2.09a8.27,8.27,0,0,0,.25,2.71,6.39,6.39,0,0,0,1.22,2.35,4.25,4.25,0,0,0,.75.58c.25,2.92.17,5.44-2.41,7.79C74.94,407.49,70.83,407.68,63.61,400.54Z" style="fill:#37474f"></path><path d="M79.83,378.41l0,0a4.46,4.46,0,0,0-.69,1.7,47.49,47.49,0,0,0-1.28,8.33,6.55,6.55,0,0,1-1,3c-.24.34-.65.63-.81,1a.75.75,0,0,0,.07.93,1.39,1.39,0,0,0,1.42.57,1.89,1.89,0,0,0,.89-.74c.17-.2.33-.4.48-.61A80.55,80.55,0,0,1,79,382.53,18.92,18.92,0,0,1,79.83,378.41Z" style="fill:#37474f"></path><path d="M67.69,362.48a18.7,18.7,0,0,1,1.62-4.83c.29-.18.55-.36.76-.52,1.23-.92,2.09-1.51,3-.72l-1.56,1.71A15.35,15.35,0,0,0,70,363.27c-.23,2.48-.39,3.81-.48,5.54-.57,5.63-1.51,7.61-1.44,12.85s1.54,8.58.85,9-2.24,0-3-4.12.12-11.29,1-14.75S67.1,366.05,67.69,362.48Z" style="fill:#37474f"></path><path d="M67.66,388.82a.59.59,0,0,0,.27.14,12.43,12.43,0,0,1,8.46,4.63.52.52,0,0,0,.73,0,.5.5,0,0,0,0-.73,13.47,13.47,0,0,0-9-5,.52.52,0,0,0-.6.42A.53.53,0,0,0,67.66,388.82Z" style="fill:#ebebeb"></path><path d="M67.86,384.78a.49.49,0,0,0,.27.13,14,14,0,0,1,9.12,4.69.52.52,0,0,0,.75,0,.55.55,0,0,0,0-.76,15,15,0,0,0-9.72-5,.53.53,0,0,0-.61.44A.55.55,0,0,0,67.86,384.78Z" style="fill:#ebebeb"></path><path d="M67.64,380.32a.64.64,0,0,0,.3.14,15.85,15.85,0,0,1,10.27,5.12.59.59,0,0,0,.83,0,.6.6,0,0,0,0-.84,17.06,17.06,0,0,0-10.93-5.45.6.6,0,0,0-.67.5A.57.57,0,0,0,67.64,380.32Z" style="fill:#ebebeb"></path><path d="M68.27,375.9a.61.61,0,0,0,.29.14,15.33,15.33,0,0,1,10,5.09.6.6,0,0,0,.82,0,.59.59,0,0,0,0-.82,16.55,16.55,0,0,0-10.65-5.41.57.57,0,0,0-.65.48A.58.58,0,0,0,68.27,375.9Z" style="fill:#ebebeb"></path><path d="M69,371.39a.54.54,0,0,0,.29.15c4.13.73,6.84,2.41,10.16,5.91a.58.58,0,1,0,.83-.8c-3.48-3.66-6.41-5.47-10.79-6.25a.58.58,0,0,0-.67.47A.56.56,0,0,0,69,371.39Z" style="fill:#ebebeb"></path><path d="M134.21,436.21c-2.28-3.23-5.57-5.68-8.26-8.62a39.89,39.89,0,0,1-3.22-4.11c-.49-.71-2.5-8.13-2.34-9.64.3-2.88,1.32-8.78,2.21-12.89,1.65-7.63,5.5-25.48,8-36.69,4.23-19.26,3-20.26.23-33.2-4.06-19-7.68-29.88-12.73-50.31,12.68-8.38,13-18.05,11.53-32.32-7.25,2.75-15.86,3-23.38,2.85s-15-.33-22-3c-14,27.21-10.54,31.84,1.09,60C91,322.1,105,348,105,348c-2.63,11.85-3.09,17.77-2.4,30.89.38,7.18,1.12,16.39,1.08,26.61,0,.17-.35.53-.44.7a9.13,9.13,0,0,0-.43.89,16.28,16.28,0,0,0-.92,2.53A9,9,0,0,1,100.7,412,16.93,16.93,0,0,0,99.38,415a7.8,7.8,0,0,0,.13,5.53c.87,1.88,2.67,3.13,4.07,4.66,2.28,2.47,3.53,5.64,5,8.62a27.36,27.36,0,0,0,2.47,4.3,16.62,16.62,0,0,0,3.41,3.24,16,16,0,0,0,4.69,2.33,36.74,36.74,0,0,0,4.57,1.45,24,24,0,0,0,3.78.48,14,14,0,0,0,3.71-.19,12.28,12.28,0,0,0,3.55-1.67c1.16-.7,1.44-2.63,1.22-3.85a7.82,7.82,0,0,0-1-2.58C134.68,436.91,134.45,436.56,134.21,436.21Z" style="fill:#c8856a"></path><path d="M85.45,310.16s-7.73-15.78-10.09-24.83-1.55-14.12-.33-20.14c1.27-6.24,3.87-15.51,3.87-15.51l51.64-1.76c6.83,27.46-11.68,33-11.68,33L124,301.37c4.5,17,9.33,36.95,9.61,42.08s.28,5.47-1.63,16.44-4.07,19.59-4.07,19.59A46.87,46.87,0,0,1,110,377.35l.33-17.59-3.74,16.15a18.92,18.92,0,0,1-4.73-3.1s-.77-13.33,2.39-25.16C96.78,334.26,89.51,318.94,85.45,310.16Z" style="fill:#455a64"></path><path d="M98,419a8.62,8.62,0,0,0,.15,3.43c.23,1.18,4.51,4.32,5.65,6.36s1.2,2.82,2.44,5.57c1.36,3.05,1.82,6.62,9.25,10.53s13,3.8,16.72,2.81a8.88,8.88,0,0,0,3.56-2.17s1.93-4.29-.39-5.66S98,419,98,419Z" style="fill:#263238"></path><path d="M120.93,411.86c.5.67.37,1.77.65,3.55a20,20,0,0,0,2.74,6.95c7.15,10.81,13.14,13.58,12.47,20-.25,2.33-3.67,4.94-13.74,3.7-5.14-.64-12.37-5.29-14.19-8.86S106.5,430.63,105,428s-6.37-6.06-7-9c-.35-2,.8-4.79,1.3-5.76a35.47,35.47,0,0,0,2.44-5.56c.41-1.48.73-2.47,1.92-2.4l-.19,2.31c.6,3.76,1,4.41,1.82,5.84,1.07,1.9,2.13,2.44,3.11,3.86-.29-2.53-1.11-4.32.27-5.41.76-.59,1.63-1,5-1.14S120.49,411.27,120.93,411.86Z" style="fill:#455a64"></path><path d="M123.12,446c-5.14-.63-12.37-5.29-14.19-8.86a36.69,36.69,0,0,1-1.57-3.64c.15.22.28.46.41.64.29.4.6.79.91,1.18A11.48,11.48,0,0,0,113.2,439c1.63.61,5.61,2.24,7.18.79.89-.82.78-2.38.15-3.66-.26-.55-1.12-1.86-1.12-1.86a18.88,18.88,0,0,1,5.53-2.33c3.64-.74,3.88-.34,3.88-.34a7.85,7.85,0,0,0,1.85,2,6.32,6.32,0,0,0,2.39,1.12,3.8,3.8,0,0,0,1,0c2,2.16,3.45,4.2,2.84,7.64C136.34,444.6,133.19,447.27,123.12,446Z" style="fill:#37474f"></path><path d="M122.46,418.59v0a4.58,4.58,0,0,0,.48,1.77,46.23,46.23,0,0,0,4.08,7.38,6.77,6.77,0,0,1,1.11,3,5.67,5.67,0,0,0,0,1.3c.11.43.2.55.62.69a1.38,1.38,0,0,0,1.47-.42,1.91,1.91,0,0,0,.25-1.13,6.6,6.6,0,0,0,0-.77,82.81,82.81,0,0,1-6.13-8.06A19.41,19.41,0,0,1,122.46,418.59Z" style="fill:#37474f"></path><path d="M103.12,413.39a19.14,19.14,0,0,1-1.67-4.83c.12-.31.22-.62.29-.87.41-1.48.73-2.47,1.92-2.4l-.19,2.31a15.52,15.52,0,0,0,1.93,5c1.33,2.09,2,3.25,3,4.67,3,4.81,3.45,6.95,6.7,11.06s6.47,5.85,6.15,6.58-1.78,1.36-4.92-1.4-6.8-9-8.23-12.29S104.82,416.57,103.12,413.39Z" style="fill:#37474f"></path><path d="M119.17,434.26a.52.52,0,0,0,.3-.06,12.46,12.46,0,0,1,9.53-1.49.54.54,0,0,0,.61-.42.52.52,0,0,0-.42-.6,13.47,13.47,0,0,0-10.2,1.59.52.52,0,0,0,.18,1Z" style="fill:#ebebeb"></path><path d="M116.87,430.94a.51.51,0,0,0,.29-.06A14,14,0,0,1,127.25,429a.52.52,0,0,0,.6-.46.54.54,0,0,0-.46-.6,14.94,14.94,0,0,0-10.74,2,.53.53,0,0,0-.22.72A.56.56,0,0,0,116.87,430.94Z" style="fill:#ebebeb"></path><path d="M114,427.54a.6.6,0,0,0,.32-.07,15.8,15.8,0,0,1,11.27-2.21.59.59,0,0,0,.65-.52.58.58,0,0,0-.51-.65,17,17,0,0,0-12,2.35.6.6,0,0,0-.22.81A.58.58,0,0,0,114,427.54Z" style="fill:#ebebeb"></path><path d="M111.77,423.66a.67.67,0,0,0,.31-.07,15.41,15.41,0,0,1,11-2.08.58.58,0,0,0,.65-.5.57.57,0,0,0-.5-.64,16.53,16.53,0,0,0-11.73,2.21.58.58,0,0,0,.24,1.08Z" style="fill:#ebebeb"></path><path d="M109.61,419.63a.63.63,0,0,0,.32-.06c3.72-1.94,6.9-2.27,11.65-1.52a.59.59,0,0,0,.66-.48.58.58,0,0,0-.48-.66c-5-.78-8.42-.42-12.37,1.64a.56.56,0,0,0-.24.77A.58.58,0,0,0,109.61,419.63Z" style="fill:#ebebeb"></path></g><g id="freepik--top--inject-63"><path d="M146.11,165.78c-11.48,25.33-20.68,39.25-21,47.89-9.1,1.68-18.43-11.58-14.8-21.88,0,0,13.18-21.5,17.55-33.23-.47-5.77-4.54-29.73-7-37.35a5.45,5.45,0,0,0-2.48-3c-3.33-2-5.27-5-7.78-7.5-1.95-2-3.59-2.44-3.35-3.08.3-.83,1.65-2.18,4-1.51,1.19.34,4.28,2.64,5.28,2.88s-1.31-4-4.75-8c-2-2.33-3.2-4.49-3.11-6.64,0-1,.66-1.76,1.44-1.61a2.24,2.24,0,0,1,.81.38,2,2,0,0,1,.1-2c.69-1.13,1.68-.78,2.49-.06l1.08,1a2.36,2.36,0,0,1,3,.14c.31.25,1,1,1,1,.76-.51,2-1.11,3.69.45a36.66,36.66,0,0,1,5.22,5.13,26.25,26.25,0,0,1,3.12,5.12,23.37,23.37,0,0,1,2.27,5.65c1.11,5.49,0,6.37,2.43,13.22,3.85,10.77,8.14,21.32,11.39,32.47C148.71,161.92,147.09,163.6,146.11,165.78Z" style="fill:#c8856a"></path><path d="M126.64,115.06c0-3.29-3.81-6.25-6.91-7.35C123.79,108.08,127.28,110.2,126.64,115.06Z" style="fill:#af6152"></path><path d="M109.68,191.43c4.16-6.58,17.8-31.87,17.8-31.87s.84,3,7.66,5.83a15.52,15.52,0,0,0,11,.39s-15,37-16,43.07-1.77,9.49-1.77,9.49S105.78,207.75,109.68,191.43Z" style="fill:#C6FF00"></path><path d="M109.68,191.43c4.16-6.58,17.8-31.87,17.8-31.87s.84,3,7.66,5.83a15.52,15.52,0,0,0,11,.39s-15,37-16,43.07-1.77,9.49-1.77,9.49S105.78,207.75,109.68,191.43Z" style="fill:#fff;opacity:0.6000000000000001"></path><path d="M116.48,181.44a11.58,11.58,0,0,1,.31,3.37,18,18,0,0,0,.24-18,22.37,22.37,0,0,1-1.84-3,14.38,14.38,0,0,1-1-3.93c-.22-3.67,1.8-7.86,0-11.29-2.78-5.31-9.2-8.08-14.8-9.18a29.6,29.6,0,0,0-10.86.16c-6.49,1.31-14.35,6.11-15.39,13.18a3.45,3.45,0,0,1-.27,1.06c-.78,1.43-2.92,2-4,3.2a12.44,12.44,0,0,0-2.67,6.95c-.34,3.3.18,6.61.35,9.91s.08,6.56.5,9.84a19.36,19.36,0,0,0,.63,3.19A11.27,11.27,0,0,0,78,194.77,7.74,7.74,0,0,1,74.11,189c.08.7,1.35,1.77,1.85,2.23A10.6,10.6,0,0,0,78.42,193a22.22,22.22,0,0,0,8.87,2.3,36.08,36.08,0,0,0,6.31.27,40.86,40.86,0,0,0,6.39-1.19c.64-.18,1.29-.37,1.92-.58a24.5,24.5,0,0,0,8.88-5.39,18.07,18.07,0,0,0,3.29-3.9,12.82,12.82,0,0,0,1.14-2.57c.18-.55.76-2.07.5-2.63A11.27,11.27,0,0,1,116.48,181.44Z" style="fill:#263238"></path><g id="freepik--chest--inject-63"><path d="M104.72,193.82s-17.82,4.58-23.88,5.4c-4.14.56-7.28,1.05-7.28,1.05-1.65,2.62-5.41,15.37-4.94,24.66.24,4.53,8.17,16.8,9,22,.7,4.44-2.58,13-4.45,20.22,14.34,16.69,58.41,7.9,62.1-13.42a52.54,52.54,0,0,1-4.91-13.86,89.77,89.77,0,0,1-1.79-14.14,18.34,18.34,0,0,0,2.24-11.62c-1.08-6-3.47-9.42-10.42-15-7.17-5.77-10.7-7.65-10.7-7.65C108.08,192.74,106.74,193.69,104.72,193.82Z" style="fill:#C6FF00"></path><path d="M115.29,230.05a11.25,11.25,0,0,1-5.46,4.48,18.13,18.13,0,0,1-7.86,1.25,17.57,17.57,0,0,1-6.53-1.64,19.66,19.66,0,0,1-5.66-3.8c-.36-.43-1.1-.24-.78.38a14.19,14.19,0,0,0,5.72,5.17,18,18,0,0,0,8,1.91,17.32,17.32,0,0,0,8.51-2.14,7.7,7.7,0,0,0,2.66-2.22,7.8,7.8,0,0,0,1.54-3.28C115.44,230.08,115.37,230,115.29,230.05Z" style="opacity:0.2"></path></g><g id="freepik--head--inject-63"><path d="M83.94,194.66c-.39-3.9-1.64-12.75-1.64-12.75-.52,1.16-3.8,3-7.75.1a7.69,7.69,0,0,1-2.06-10c2-3,5.6-3.18,8.31.26.16.2,1.16-.17,1.34-.27a1.91,1.91,0,0,0,.83-.9,3.33,3.33,0,0,0,.22-1.5,7.53,7.53,0,0,0-.35-1.68,39.22,39.22,0,0,0,11-7.89c4.11-4.5,6.06-11,5.79-11.73a19,19,0,0,1,5.3,2.89,13.09,13.09,0,0,1,4,4.89,36.37,36.37,0,0,1,3.24,10.79c1.49,9.75.11,14.42-3.22,17.35a10,10,0,0,1-6.46,3.18s.2,1.35.5,4c.15,1.37.46,2.39,1.72,2.39,2.15,1.86,8,5.37-1.78,8-12.55,3.38-20.55-1.29-22.1-2.59C83.41,198.32,84.13,196.58,83.94,194.66Z" style="fill:#c8856a"></path><path d="M102.5,187.42c-6.87.91-13.08-.28-16.86-4.48a9,9,0,0,0,4.13,4.8c7.34,3.39,13,1.74,13,1.74Z" style="fill:#af6152"></path><path d="M102.53,176.94l-6.91-1.15a3.33,3.33,0,0,0,2.73,4A3.68,3.68,0,0,0,102.53,176.94Z" style="fill:#af6152"></path><path d="M99.87,179.72a3.53,3.53,0,0,1-1.52.08,3.32,3.32,0,0,1-2.66-2.36A4.05,4.05,0,0,1,99.87,179.72Z" style="fill:#ffa8a7"></path><path d="M91.13,166.79c.19,1,.73-.53,1.77-.73s2.17,1,2,0a1.91,1.91,0,0,0-3.75.72Z" style="fill:#263238"></path><path d="M104.15,163.85c.19,1,.6-.37,1.63-.57s2.31.88,2.12-.14a1.91,1.91,0,0,0-3.75.71Z" style="fill:#263238"></path><polygon points="97.78 161.42 100.27 173.98 106.03 170.88 97.78 161.42" style="fill:#af6152"></polygon><path d="M108.15,159.24l-4.5-1.08a2.23,2.23,0,0,1,2.72-1.73A2.41,2.41,0,0,1,108.15,159.24Z" style="fill:#263238"></path><path d="M88.05,163.45l3.88-2.63a2.25,2.25,0,0,0-3.19-.67A2.44,2.44,0,0,0,88.05,163.45Z" style="fill:#263238"></path><path d="M91.92,170.52c.2,1.61-1.43,3.14-3.63,3.42s-4.16-.82-4.36-2.44,1.43-3.14,3.63-3.41S91.72,168.9,91.92,170.52Z" style="fill:#af6152"></path><path d="M115.15,165.86c.39,1.58-1,3.3-3.19,3.84s-4.22-.3-4.61-1.88,1-3.3,3.18-3.84S114.75,164.28,115.15,165.86Z" style="fill:#af6152"></path></g><path d="M82.16,198.55s9.56,8.19,11.07,23.94C97.05,262.33,67.08,271,67.08,271a22.53,22.53,0,0,1,.83-10.59s19.55-15.72,17.64-36.07c-1.35-14.52-8.3-23.17-12-24.11C73.56,200.27,77.21,199.3,82.16,198.55Z" style="fill:#37474f"></path><path d="M62.83,271.08c3.81-1.33,6.32-2.94,10.21-6.5C80.23,258,80.62,257,86.6,251.2c2-2,3.84-3.94,4.69-4.82a24.21,24.21,0,0,0,4.51-5c1-1.64,2.26-3.71,2.43-5.67.19-2.15.87-4.37.36-6.55-.15-.63-.38-1.24-.5-1.87a14.89,14.89,0,0,1-.13-2.67,12.77,12.77,0,0,0-.78-4.59,8.1,8.1,0,0,0-2.26-3.19A2.82,2.82,0,0,0,92.1,216c.28,1.15.49,2.12.74,3.47a9.76,9.76,0,0,1-2.18,5.21c-2.2,3.18-4.14,4.87-4.46,4.26s.48-2.58,0-5.69-1.36-4.2-2.33-4.4c-1.54-.32-1.45,1.33-2,3.86-.63,3-1.84,4.71-1.79,9.12,0,3.86.71,4.72-1.36,6.55-1.19,1-5.28,3.57-5.28,3.57s1-4.25,2.59-11.5c3.12-14.07,3.09-27.89-2.49-29.71-6.7,2-13.23,5.76-16.18,17.25-3.14,12.21-3.15,14-5.8,38.14C49.69,273.7,57,273.1,62.83,271.08Z" style="fill:#c8856a"></path><path d="M73.5,242c-4.75,3.88-15.26,9.66-16.39,15.57,0,0,0-4.65,6.21-10.51a87.74,87.74,0,0,1,11.08-9Z" style="fill:#af6152"></path><path d="M73.56,200.27c-4.69,1.1-10.58,4.23-13.34,9.37S56.73,218.46,55,226s-4.48,33.71-3.68,34.79c4.9-7.41,11.08-14.15,22.19-18.79,0,0,3-10.85,4.19-18.24S81.22,203.83,73.56,200.27Z" style="fill:#C6FF00"></path><path d="M73.56,200.27c-4.69,1.1-10.58,4.23-13.34,9.37S56.73,218.46,55,226s-4.48,33.71-3.68,34.79c4.9-7.41,11.08-14.15,22.19-18.79,0,0,3-10.85,4.19-18.24S81.22,203.83,73.56,200.27Z" style="fill:#fff;opacity:0.6000000000000001"></path></g></g></g><g id="freepik--Book--inject-63"><g id="freepik--book--inject-63"><g id="freepik--Comic--inject-63"><path d="M239.16,30.51A66.26,66.26,0,0,1,247,36.17c4.07,3.38,8,6.83,10.38,10.29,1,1.51,1.48,3.7,2.13,4.34L220.75,61.38c-.64-.64-1.32-2.7-2.13-4.34-2.13-4.34-4.68-6.85-8.85-9.89-3.67-2.68-8.38-5.32-9.39-6.06-.22-.16-.18-.35.08-.42L238.3,30.35A1.24,1.24,0,0,1,239.16,30.51Z" style="fill:#C6FF00"></path><path d="M239.16,30.51A66.26,66.26,0,0,1,247,36.17c4.07,3.38,8,6.83,10.38,10.29,1,1.51,1.48,3.7,2.13,4.34L220.75,61.38c-.64-.64-1.32-2.7-2.13-4.34-2.13-4.34-4.68-6.85-8.85-9.89-3.67-2.68-8.38-5.32-9.39-6.06-.22-.16-.18-.35.08-.42L238.3,30.35A1.24,1.24,0,0,1,239.16,30.51Z" style="opacity:0.25"></path><path d="M201.91,40.27l36.39-9.92a1.24,1.24,0,0,1,.86.16A66.26,66.26,0,0,1,247,36.17c4.07,3.38,8,6.83,10.38,10.29,1,1.51,1.48,3.7,2.13,4.34L221.2,61.26c-.92-.57-1.06-1.73-1.46-2.73a22.75,22.75,0,0,0-3.18-6.07,37.18,37.18,0,0,0-8.7-8.59A38.5,38.5,0,0,0,201.91,40.27Z" style="opacity:0.25"></path><path d="M263.9,52.89c3.48,2.33,6.11,5,10.38,10.29A74.09,74.09,0,0,1,280,71c.13.23.1.43-.15.5L242,81.83a.84.84,0,0,1-.79-.24c-.81-.93-2.2-3.87-5.31-8.2-4.45-6.19-6.56-8.45-9.86-9.94-3-1.35-4.63-1.43-5.28-2.07L259.54,50.8C260.19,51.45,261.17,51.06,263.9,52.89Z" style="fill:#C6FF00"></path><path d="M230.53,65.2a17.88,17.88,0,0,0-6.67-3.35c-.85-.22-2-.41-2.66-.59L259.54,50.8c.65.64,1.63.26,4.36,2.09,3.48,2.33,6.11,5,10.38,10.29A81.73,81.73,0,0,1,279.35,70L242,80.19s-1.4-2.45-3.59-5.77A41.74,41.74,0,0,0,230.53,65.2Z" style="opacity:0.25"></path><path d="M201.7,34.28,240.49,23.7s4.14,2,9.44,7.64c3.62,3.86,6.19,6.61,8.25,12.21,1,2.82,1.15,4.93,1.8,5.58l-.23.88L221,60.59c-.64-.65-1.08-2.85-1.86-4.5-1.63-3.47-4-7.53-10-12.66a54.42,54.42,0,0,0-8.29-5.85Z" style="fill:#e0e0e0"></path><path d="M240.49,23.7s4.14,2,9.44,7.64c3.62,3.86,6.19,6.61,8.25,12.21,1,2.82,1.15,4.93,1.8,5.58L221.19,59.71c-.64-.65-.94-2.86-1.51-4.6-1.49-4.51-2.18-7.4-9.27-14.4a40.55,40.55,0,0,0-8.71-6.43Z" style="fill:#f0f0f0"></path><path d="M221.19,59.71,260,49.13c.65.64,2.17.21,5.65,1s6.77,1.53,11.43,6.53a30.48,30.48,0,0,1,5.21,7.24l-1,3.93L242.45,78.43s-2.58-4.14-5.48-8.06c-4.12-5.59-6.13-6.7-10.42-8.31-3.66-1.37-4.94-.83-5.59-1.47Z" style="fill:#f0f0f0"></path><path d="M260,49.13c.65.64,2.17.21,5.65,1s6.77,1.53,11.43,6.53a30.12,30.12,0,0,1,5.21,7.24L243.49,74.5s-1.8-2.9-5.19-7.22a17.21,17.21,0,0,0-11.19-6.81c-3.49-.65-5.27-.12-5.92-.76Z" style="fill:#fafafa"></path><path d="M258.29,67.58a37.17,37.17,0,0,0-3.78-4.77c-4.64-5-7.92-5.74-11.39-6.54l-.1,0c-.61-.14-1.13-.23-1.63-.31l-.58.16a21.83,21.83,0,0,1,2.15.39l.1,0c3.44.79,6.68,1.55,11.27,6.47A36.39,36.39,0,0,1,258,67.65Z" style="fill:#e0e0e0"></path><path d="M254.51,68.61a37.16,37.16,0,0,0-3.77-4.76c-4.64-5-7.92-5.74-11.4-6.55l-.1,0c-.61-.14-1.14-.24-1.63-.32l-.59.16c.62.08,1.34.21,2.17.4l.1,0c3.43.8,6.68,1.55,11.27,6.48a37.09,37.09,0,0,1,3.7,4.66Z" style="fill:#e0e0e0"></path><path d="M255.77,68.27A37.17,37.17,0,0,0,252,63.5c-4.64-5-7.92-5.74-11.39-6.54l-.1,0c-.61-.14-1.14-.23-1.63-.31l-.58.16a21.83,21.83,0,0,1,2.15.39l.11,0c3.43.79,6.68,1.55,11.26,6.47a36.39,36.39,0,0,1,3.71,4.67Z" style="fill:#e0e0e0"></path><path d="M257,67.93a35.83,35.83,0,0,0-3.78-4.77c-4.64-5-7.92-5.74-11.39-6.55l-.1,0c-.61-.14-1.14-.24-1.63-.32l-.58.16c.62.09,1.33.21,2.15.4l.1,0c3.44.8,6.68,1.55,11.27,6.48A36.4,36.4,0,0,1,256.78,68Z" style="fill:#e0e0e0"></path><path d="M262.07,66.55a37.39,37.39,0,0,0-3.79-4.77c-4.64-5-7.92-5.74-11.39-6.55l-.1,0c-.6-.14-1.12-.24-1.61-.31l-.58.15c.61.09,1.32.21,2.13.4l.11,0c3.43.8,6.67,1.55,11.26,6.48a37.52,37.52,0,0,1,3.72,4.67Z" style="fill:#e0e0e0"></path><path d="M259.55,67.24a36.49,36.49,0,0,0-3.78-4.77c-4.64-5-7.92-5.74-11.4-6.55l-.1,0c-.6-.14-1.12-.24-1.61-.31l-.58.15c.61.09,1.32.21,2.14.4l.1,0c3.43.8,6.68,1.55,11.27,6.48a35.71,35.71,0,0,1,3.71,4.67Z" style="fill:#e0e0e0"></path><path d="M260.81,66.9A36.69,36.69,0,0,0,257,62.12c-4.63-5-7.91-5.74-11.39-6.54l-.1,0c-.6-.14-1.12-.23-1.61-.31l-.58.16c.61.08,1.32.2,2.14.39l.1,0c3.43.79,6.68,1.55,11.26,6.47A37.52,37.52,0,0,1,260.56,67Z" style="fill:#e0e0e0"></path><path d="M231.8,59.37l-.1,0c-.63-.15-1.17-.24-1.67-.32l-.59.16a21.05,21.05,0,0,1,2.2.4l.1,0c3.44.8,6.68,1.55,11.27,6.48a36.4,36.4,0,0,1,3.7,4.65l.25-.07a37.18,37.18,0,0,0-3.77-4.75C238.55,60.94,235.27,60.18,231.8,59.37Z" style="fill:#e0e0e0"></path><path d="M263.32,66.21a37.15,37.15,0,0,0-3.78-4.78c-4.64-5-7.92-5.74-11.39-6.54l-.1,0c-.6-.14-1.12-.23-1.61-.31l-.58.16a21.55,21.55,0,0,1,2.13.39l.1,0c3.44.8,6.68,1.55,11.27,6.48a36.37,36.37,0,0,1,3.71,4.68Z" style="fill:#e0e0e0"></path><path d="M253.25,69a36.48,36.48,0,0,0-3.77-4.76c-4.64-5-7.92-5.75-11.39-6.55l-.11,0c-.61-.14-1.14-.23-1.64-.31l-.58.16c.62.08,1.34.2,2.17.39l.1,0c3.44.79,6.68,1.55,11.27,6.47A37.09,37.09,0,0,1,253,69Z" style="fill:#e0e0e0"></path><path d="M250.74,69.64A35.85,35.85,0,0,0,247,64.89c-4.64-5-7.92-5.75-11.39-6.55l-.1,0c-.62-.14-1.15-.24-1.65-.31l-.58.15c.62.09,1.34.21,2.17.4l.11,0c3.43.79,6.67,1.55,11.26,6.47a37.32,37.32,0,0,1,3.71,4.66Z" style="fill:#e0e0e0"></path><path d="M252,69.3a36.29,36.29,0,0,0-3.77-4.76c-4.64-5-7.92-5.74-11.39-6.55l-.1,0c-.62-.14-1.15-.24-1.65-.32l-.58.16a20.19,20.19,0,0,1,2.17.4l.1,0c3.44.8,6.68,1.55,11.27,6.48a36.38,36.38,0,0,1,3.7,4.66Z" style="fill:#e0e0e0"></path><path d="M234.32,58.68l-.11,0c-.62-.15-1.15-.24-1.65-.32l-.59.16a20.46,20.46,0,0,1,2.19.4l.1,0c3.43.8,6.68,1.55,11.26,6.48a36.61,36.61,0,0,1,3.71,4.65l.25-.06a37.16,37.16,0,0,0-3.77-4.76C241.07,60.25,237.79,59.49,234.32,58.68Z" style="fill:#e0e0e0"></path><path d="M269.62,64.49a36.49,36.49,0,0,0-3.79-4.78c-4.64-5-7.92-5.74-11.39-6.55l-.1,0c-.59-.14-1.1-.23-1.58-.31l-.58.16a21.12,21.12,0,0,1,2.1.39l.1,0c3.44.8,6.68,1.55,11.27,6.48a35.91,35.91,0,0,1,3.72,4.68Z" style="fill:#e0e0e0"></path><path d="M277.17,62.43a36.48,36.48,0,0,0-3.79-4.79c-4.64-5-7.92-5.75-11.4-6.55l-.1,0c-.57-.13-1.07-.22-1.55-.3l-.58.16c.6.08,1.28.2,2.08.38l.1,0c3.43.79,6.68,1.55,11.27,6.47a36.36,36.36,0,0,1,3.72,4.7Z" style="fill:#e0e0e0"></path><path d="M275.91,62.77A37.15,37.15,0,0,0,272.12,58c-4.64-5-7.92-5.74-11.39-6.55l-.11,0c-.57-.13-1.08-.23-1.55-.3l-.58.16c.6.08,1.28.2,2.08.38l.1,0c3.43.8,6.68,1.55,11.27,6.48a36.38,36.38,0,0,1,3.72,4.69Z" style="fill:#e0e0e0"></path><path d="M248.22,70.33a36.49,36.49,0,0,0-3.77-4.75c-4.64-5-7.92-5.75-11.39-6.55L233,59c-.62-.14-1.16-.24-1.66-.32l-.58.16c.63.09,1.35.21,2.19.4l.1,0c3.43.79,6.68,1.55,11.27,6.47A37.09,37.09,0,0,1,248,70.4Z" style="fill:#e0e0e0"></path><path d="M274.65,63.12a35.83,35.83,0,0,0-3.79-4.79c-4.64-5-7.92-5.74-11.39-6.55l-.1,0c-.58-.13-1.09-.22-1.56-.3l-.58.16c.6.08,1.28.2,2.08.38l.11,0c3.43.8,6.67,1.55,11.26,6.47a36.36,36.36,0,0,1,3.72,4.7Z" style="fill:#e0e0e0"></path><path d="M270.88,64.15a37.36,37.36,0,0,0-3.79-4.79c-4.64-5-7.92-5.74-11.39-6.55l-.11,0c-.58-.14-1.09-.23-1.57-.3l-.58.15c.6.09,1.3.2,2.1.39l.1,0c3.44.8,6.68,1.56,11.27,6.48a36.58,36.58,0,0,1,3.72,4.69Z" style="fill:#e0e0e0"></path><path d="M273.4,63.46a37.38,37.38,0,0,0-3.8-4.79c-4.64-5-7.92-5.74-11.39-6.55l-.1,0c-.58-.13-1.09-.23-1.56-.3L256,52a19.7,19.7,0,0,1,2.09.38l.11,0c3.43.8,6.67,1.55,11.26,6.48a36.79,36.79,0,0,1,3.73,4.69Z" style="fill:#e0e0e0"></path><path d="M268.36,64.84a35.83,35.83,0,0,0-3.79-4.79c-4.64-5-7.92-5.74-11.39-6.55l-.1,0c-.59-.14-1.1-.23-1.58-.31l-.59.16c.61.09,1.31.2,2.11.39l.1,0c3.44.8,6.68,1.55,11.27,6.48a36.39,36.39,0,0,1,3.72,4.68Z" style="fill:#e0e0e0"></path><path d="M265.84,65.52a37.15,37.15,0,0,0-3.78-4.78c-4.64-5-7.92-5.74-11.39-6.55l-.11,0c-.59-.14-1.11-.23-1.59-.31l-.58.16a21.4,21.4,0,0,1,2.12.39l.1,0c3.43.8,6.68,1.55,11.27,6.48a37.08,37.08,0,0,1,3.71,4.68Z" style="fill:#e0e0e0"></path><path d="M267.1,65.18a35.84,35.84,0,0,0-3.79-4.78c-4.64-5-7.91-5.74-11.39-6.55l-.1,0c-.59-.14-1.1-.23-1.59-.31l-.58.16a20.75,20.75,0,0,1,2.11.39l.11,0c3.43.8,6.68,1.55,11.26,6.47a35.71,35.71,0,0,1,3.72,4.69Z" style="fill:#e0e0e0"></path><path d="M272.14,63.8a36.71,36.71,0,0,0-3.8-4.78c-4.63-5-7.91-5.75-11.39-6.55l-.1,0c-.58-.13-1.09-.22-1.57-.3l-.58.16a20,20,0,0,1,2.09.39l.11,0c3.43.8,6.68,1.55,11.26,6.47a37.3,37.3,0,0,1,3.73,4.69Z" style="fill:#e0e0e0"></path><path d="M264.58,65.87a36.47,36.47,0,0,0-3.78-4.78c-4.64-5-7.92-5.74-11.39-6.55l-.11,0c-.59-.14-1.11-.24-1.59-.31l-.58.16a21.4,21.4,0,0,1,2.12.39l.1,0c3.44.8,6.68,1.55,11.27,6.48a36.39,36.39,0,0,1,3.71,4.67Z" style="fill:#e0e0e0"></path><polygon points="242.45 78.43 243.49 74.5 282.27 63.92 281.24 67.85 242.45 78.43" style="fill:#e0e0e0"></polygon><path d="M262.39,72.18l-2.35.69,2.38-.6,2.38-.62,4.74-1.27,4.73-1.32q2.37-.66,4.72-1.36c-1.59.39-3.17.8-4.76,1.22l-4.74,1.27-4.73,1.31Zm15.09-6,4-1.16-4.07,1.07-4.08,1.08-8.14,2.2-8.13,2.24-4.06,1.13L249,73.9l4.08-1.07,4.07-1.08,8.14-2.2,8.13-2.24Zm-39.06,3.29c.24.28.46.57.7.84a25.64,25.64,0,0,0-2.7-3.45,15,15,0,0,0-1.6-1.49c-.29-.23-.58-.45-.88-.66s-.62-.4-.93-.58c.59.43,1.17.87,1.71,1.35s1.06,1,1.56,1.52,1,1.07,1.45,1.63Q238.08,69,238.42,69.47Zm7.83,6.17-2.36.69,2.39-.6,2.37-.62,4.75-1.27,4.73-1.31c1.58-.45,3.15-.9,4.72-1.37l-4.76,1.22-4.74,1.27L248.61,75ZM211.16,42.41l.54.53-.51-.57-.52-.55-.54-.53-.55-.52c-.75-.68-1.53-1.32-2.33-2s-1.61-1.21-2.45-1.77-1.7-1.1-2.59-1.58c.42.28.84.55,1.26.84s.83.57,1.24.86c.82.59,1.63,1.18,2.43,1.81s1.57,1.25,2.34,1.91l.57.49.55.51Zm1.49,2.28c.57.61,1.11,1.25,1.64,1.9a27.6,27.6,0,0,1,2.8,4.14,36,36,0,0,1,2.08,4.56c.15.39.29.78.43,1.18s.24.8.37,1.2.26.8.4,1.19A6.2,6.2,0,0,0,220.9,60a7,7,0,0,1-.49-1.16c-.13-.39-.24-.79-.36-1.2s-.22-.8-.35-1.21-.25-.8-.39-1.19c-.29-.79-.6-1.57-.94-2.34s-.71-1.52-1.11-2.26a22.45,22.45,0,0,0-1.33-2.14q-.72-1-1.53-2c-.54-.64-1.1-1.26-1.68-1.87s-1.19-1.17-1.83-1.72C211.49,43.48,212.09,44.07,212.65,44.69Zm-11-7.64c1.11.73,2.2,1.46,3.27,2.24s2.12,1.57,3.13,2.42,2,1.71,3,2.61l.72.68c.23.23.47.46.7.7.48.46.93.94,1.4,1.41-.44-.5-.88-1-1.33-1.48-.22-.24-.46-.48-.69-.71s-.46-.48-.7-.71c-.94-.92-1.93-1.8-2.95-2.65s-2.07-1.64-3.16-2.39c-.55-.38-1.1-.74-1.66-1.1S202.27,37.38,201.69,37.05ZM230.5,63.26a13.32,13.32,0,0,0-2.25-.85,15.38,15.38,0,0,1,4.24,2.19A19.3,19.3,0,0,1,236,67.9a47.38,47.38,0,0,1,2.89,3.83c.91,1.31,1.79,2.65,2.69,4-.41-.69-.84-1.37-1.26-2s-.87-1.35-1.31-2-.91-1.32-1.38-2-1-1.29-1.48-1.9a18.61,18.61,0,0,0-3.52-3.29A15.5,15.5,0,0,0,230.5,63.26Zm-9.12-2.87a2.93,2.93,0,0,0,1,.23l1,.1c.66.06,1.32.11,2,.2a22.23,22.23,0,0,1,3.87.83,17.36,17.36,0,0,1,3.6,1.61,18.09,18.09,0,0,1,1.65,1.09c.54.39,1,.82,1.55,1.24a18.57,18.57,0,0,0-3.12-2.46,16.7,16.7,0,0,0-3.62-1.66,20.26,20.26,0,0,0-3.91-.8c-.66-.07-1.33-.11-2-.14l-1-.06A3.2,3.2,0,0,1,221.38,60.39Z" style="opacity:0.15"></path><path d="M220.47,55.64a23.06,23.06,0,0,0-2.65-11.09,43.69,43.69,0,0,0-9.19-12.16l31.86-8.69s4.14,2,9.44,7.64c3.62,3.86,6.19,6.61,8.25,12.21,1,2.82,1.15,4.93,1.8,5.58L221.19,59.71A8.14,8.14,0,0,1,220.47,55.64Z" style="opacity:0.25"></path><path d="M208.22,29.27,247,18.69h0c1.58,2.25,4.05,4.21,8,10.38A25.21,25.21,0,0,1,259.53,44c0,1.9-.17,4.41.45,5.15L221.19,59.71c-.62-.74-.47-3.25-.44-5.15a25.32,25.32,0,0,0-4.51-14.91c-4-6.17-6.43-8.13-8-10.38Z" style="fill:#f5f5f5"></path><path d="M245.89,47.74a25.29,25.29,0,0,0-4.53-15,59.88,59.88,0,0,0-5.58-7.47l-.27.08a60.33,60.33,0,0,1,5.65,7.52,25.16,25.16,0,0,1,4.49,14.85c0,.24,0,.49,0,.74s0,.48,0,.72l.25-.07c0-.22,0-.43,0-.64S245.89,48,245.89,47.74Z" style="fill:#e0e0e0"></path><path d="M247.14,47.4a25.4,25.4,0,0,0-4.52-15A61.25,61.25,0,0,0,237,25l-.27.07a58.66,58.66,0,0,1,5.65,7.53A25.16,25.16,0,0,1,246.9,47.4c0,.24,0,.49,0,.75s0,.47,0,.71l.25-.07c0-.21,0-.42,0-.63S247.14,47.64,247.14,47.4Z" style="fill:#e0e0e0"></path><path d="M244.64,48.08a25.29,25.29,0,0,0-4.53-15,59.44,59.44,0,0,0-5.59-7.46l-.26.07a60.33,60.33,0,0,1,5.65,7.52,25.23,25.23,0,0,1,4.49,14.85c0,.24,0,.49,0,.75s0,.47,0,.71l.24-.07c0-.21,0-.43,0-.64S244.64,48.32,244.64,48.08Z" style="fill:#e0e0e0"></path><path d="M243.39,48.42a25.29,25.29,0,0,0-4.53-15A59.44,59.44,0,0,0,233.27,26l-.26.07a60.26,60.26,0,0,1,5.64,7.52,25.17,25.17,0,0,1,4.5,14.85c0,.24,0,.49,0,.75s0,.47,0,.71l.24-.06c0-.22,0-.44,0-.64S243.39,48.67,243.39,48.42Z" style="fill:#e0e0e0"></path><path d="M248.4,47.06a25.41,25.41,0,0,0-4.53-15,60.21,60.21,0,0,0-5.59-7.46l-.27.07a58.66,58.66,0,0,1,5.65,7.53,25.08,25.08,0,0,1,4.49,14.84c0,.24,0,.5,0,.75s0,.48,0,.72l.25-.07c0-.22,0-.43,0-.64S248.39,47.3,248.4,47.06Z" style="fill:#e0e0e0"></path><path d="M242.14,48.76a25.38,25.38,0,0,0-4.53-15A59.44,59.44,0,0,0,232,26.32l-.26.07a60.26,60.26,0,0,1,5.64,7.52,25.09,25.09,0,0,1,4.49,14.85c0,.24,0,.49,0,.75s0,.47,0,.71l.25-.06c0-.22,0-.44,0-.65S242.14,49,242.14,48.76Z" style="fill:#e0e0e0"></path><path d="M257.15,44.67a25.34,25.34,0,0,0-4.53-15A60.37,60.37,0,0,0,247,22.22l-.27.07a60.62,60.62,0,0,1,5.65,7.53,25.15,25.15,0,0,1,4.49,14.84c0,.25,0,.5,0,.75s0,.48,0,.72l.25-.07c0-.22,0-.43,0-.64S257.15,44.91,257.15,44.67Z" style="fill:#e0e0e0"></path><path d="M254.65,45.35a25.29,25.29,0,0,0-4.53-15,60.5,60.5,0,0,0-5.59-7.47l-.26.08a60.33,60.33,0,0,1,5.65,7.52,25.15,25.15,0,0,1,4.48,14.85c0,.24,0,.49,0,.75s0,.47,0,.71l.24-.07c0-.21,0-.43,0-.64S254.65,45.59,254.65,45.35Z" style="fill:#e0e0e0"></path><path d="M253.4,45.69a25.36,25.36,0,0,0-4.53-15,59.44,59.44,0,0,0-5.59-7.46l-.26.07a59.5,59.5,0,0,1,5.64,7.52,25.09,25.09,0,0,1,4.49,14.85c0,.24,0,.49,0,.75s0,.47,0,.71l.24-.06c0-.22,0-.44,0-.65S253.4,45.93,253.4,45.69Z" style="fill:#e0e0e0"></path><path d="M240.89,49.11a25.41,25.41,0,0,0-4.53-15,60.21,60.21,0,0,0-5.59-7.46l-.26.07a60.26,60.26,0,0,1,5.64,7.52,25.09,25.09,0,0,1,4.49,14.85c0,.24,0,.49,0,.75s0,.48,0,.72l.25-.07c0-.22,0-.44,0-.65S240.88,49.35,240.89,49.11Z" style="fill:#e0e0e0"></path><path d="M249.65,46.72a25.41,25.41,0,0,0-4.53-15,60.21,60.21,0,0,0-5.59-7.46l-.26.07a60.26,60.26,0,0,1,5.64,7.52,25.13,25.13,0,0,1,4.49,14.85c0,.24,0,.49,0,.75s0,.48,0,.72l.25-.07c0-.22,0-.44,0-.64S249.64,47,249.65,46.72Z" style="fill:#e0e0e0"></path><path d="M250.9,46.38a25.39,25.39,0,0,0-4.53-15,60.21,60.21,0,0,0-5.59-7.46l-.26.07a60.26,60.26,0,0,1,5.64,7.52,25.09,25.09,0,0,1,4.49,14.85c0,.24,0,.49,0,.75s0,.48,0,.72l.25-.07c0-.22,0-.44,0-.65S250.89,46.62,250.9,46.38Z" style="fill:#e0e0e0"></path><path d="M252.15,46a25.38,25.38,0,0,0-4.53-15A59.44,59.44,0,0,0,242,23.59l-.26.07a60.26,60.26,0,0,1,5.64,7.52A25.09,25.09,0,0,1,251.9,46c0,.24,0,.5,0,.76s0,.47,0,.7l.25-.06c0-.22,0-.43,0-.64S252.14,46.28,252.15,46Z" style="fill:#e0e0e0"></path><path d="M255.9,45a25.29,25.29,0,0,0-4.53-15,59.72,59.72,0,0,0-5.59-7.47l-.26.08a60.33,60.33,0,0,1,5.65,7.52A25.23,25.23,0,0,1,255.66,45c0,.24,0,.49,0,.74s0,.48,0,.72l.24-.07c0-.22,0-.43,0-.64S255.9,45.25,255.9,45Z" style="fill:#e0e0e0"></path><path d="M228.38,52.52a25.41,25.41,0,0,0-4.53-15,60.21,60.21,0,0,0-5.59-7.46l-.26.07a59.78,59.78,0,0,1,5.64,7.53,25.08,25.08,0,0,1,4.49,14.84c0,.25,0,.5,0,.75s0,.48,0,.72l.25-.07c0-.22,0-.43,0-.64S228.37,52.76,228.38,52.52Z" style="fill:#e0e0e0"></path><path d="M227.13,52.86a25.41,25.41,0,0,0-4.53-15A60.21,60.21,0,0,0,217,30.41l-.26.07A59.78,59.78,0,0,1,222.39,38a25.08,25.08,0,0,1,4.49,14.84c0,.25,0,.5,0,.75s0,.48,0,.72l.25-.07c0-.22,0-.43,0-.64S227.12,53.1,227.13,52.86Z" style="fill:#e0e0e0"></path><path d="M229.63,52.18a25.41,25.41,0,0,0-4.53-15,60.21,60.21,0,0,0-5.59-7.46l-.26.07a60.26,60.26,0,0,1,5.64,7.52,25.09,25.09,0,0,1,4.49,14.85c0,.25,0,.5,0,.76s0,.47,0,.71l.25-.07c0-.22,0-.43,0-.63S229.62,52.42,229.63,52.18Z" style="fill:#e0e0e0"></path><path d="M224.62,53.54a25.35,25.35,0,0,0-4.52-15,60.45,60.45,0,0,0-5.59-7.46l-.27.07a58.39,58.39,0,0,1,5.65,7.52,25.16,25.16,0,0,1,4.49,14.85c0,.24,0,.5,0,.76s0,.47,0,.7l.25-.07c0-.21,0-.42,0-.63S224.62,53.79,224.62,53.54Z" style="fill:#e0e0e0"></path><path d="M239.64,49.45a25.41,25.41,0,0,0-4.53-15A60.21,60.21,0,0,0,229.52,27l-.26.07a60.26,60.26,0,0,1,5.64,7.52,25.13,25.13,0,0,1,4.49,14.85c0,.24,0,.49,0,.75s0,.48,0,.72l.25-.07c0-.22,0-.43,0-.64S239.63,49.69,239.64,49.45Z" style="fill:#e0e0e0"></path><path d="M225.88,53.2a25.43,25.43,0,0,0-4.53-15,59.72,59.72,0,0,0-5.59-7.47l-.27.08a58.39,58.39,0,0,1,5.65,7.52,25.16,25.16,0,0,1,4.49,14.85c0,.24,0,.49,0,.74s0,.48,0,.72l.25-.07c0-.22,0-.43,0-.64S225.87,53.44,225.88,53.2Z" style="fill:#e0e0e0"></path><path d="M230.88,51.84a25.41,25.41,0,0,0-4.53-15,60.21,60.21,0,0,0-5.59-7.46l-.26.07A60.26,60.26,0,0,1,226.14,37a25.11,25.11,0,0,1,4.49,14.85c0,.24,0,.49,0,.75s0,.48,0,.72l.25-.07c0-.22,0-.44,0-.64S230.88,52.08,230.88,51.84Z" style="fill:#e0e0e0"></path><path d="M237.13,50.13a25.4,25.4,0,0,0-4.52-15A60.21,60.21,0,0,0,227,27.68l-.27.07a58.66,58.66,0,0,1,5.65,7.53,25.15,25.15,0,0,1,4.49,14.84c0,.25,0,.5,0,.75s0,.48,0,.72l.25-.07c0-.22,0-.43,0-.64S237.13,50.37,237.13,50.13Z" style="fill:#e0e0e0"></path><path d="M238.39,49.79a25.41,25.41,0,0,0-4.53-15,60.21,60.21,0,0,0-5.59-7.46l-.26.07a59.78,59.78,0,0,1,5.64,7.53,25.08,25.08,0,0,1,4.49,14.84c0,.25,0,.5,0,.76s0,.47,0,.71l.25-.07c0-.21,0-.43,0-.63S238.38,50,238.39,49.79Z" style="fill:#e0e0e0"></path><path d="M235.88,50.47a25.35,25.35,0,0,0-4.52-15A60.74,60.74,0,0,0,225.77,28l-.27.08a59.34,59.34,0,0,1,5.65,7.52,25.16,25.16,0,0,1,4.49,14.85c0,.24,0,.49,0,.74s0,.48,0,.72l.25-.07c0-.21,0-.43,0-.64S235.88,50.71,235.88,50.47Z" style="fill:#e0e0e0"></path><path d="M232.13,51.49a25.31,25.31,0,0,0-4.53-15A59.44,59.44,0,0,0,222,29.05l-.26.07a61.12,61.12,0,0,1,5.65,7.52,25.15,25.15,0,0,1,4.48,14.85c0,.24,0,.49,0,.75s0,.47,0,.71l.24-.06c0-.22,0-.44,0-.65S232.13,51.73,232.13,51.49Z" style="fill:#e0e0e0"></path><path d="M234.63,50.81a25.29,25.29,0,0,0-4.53-15,59.59,59.59,0,0,0-5.58-7.46l-.27.07A61.12,61.12,0,0,1,229.9,36a25.16,25.16,0,0,1,4.49,14.85c0,.24,0,.49,0,.75s0,.47,0,.71l.25-.07c0-.21,0-.43,0-.64S234.63,51.05,234.63,50.81Z" style="fill:#e0e0e0"></path><path d="M233.38,51.15a25.29,25.29,0,0,0-4.53-15,59.44,59.44,0,0,0-5.59-7.46l-.26.07a61.12,61.12,0,0,1,5.65,7.52,25.23,25.23,0,0,1,4.49,14.85c0,.24,0,.49,0,.75s0,.47,0,.71l.24-.06c0-.22,0-.44,0-.65S233.38,51.39,233.38,51.15Z" style="fill:#e0e0e0"></path><path id="freepik--Shadow--inject-63" d="M260,49.13,221.19,59.71l38.5-11.22A1.59,1.59,0,0,0,260,49.13Z" style="opacity:0.15"></path></g></g></g><g id="freepik--Notebooks--inject-63"><g id="freepik--Notebook--inject-63"><polygon points="38.98 100.49 39.14 100.1 39.28 99.75 44.2 87.63 56.03 58.54 87.67 54.16 87.5 53.95 55.87 58.33 39.02 99.78 38.88 100.14 38.82 100.28 38.98 100.49" style="fill:#C6FF00"></polygon><polygon points="38.98 100.49 39.14 100.1 39.28 99.75 44.2 87.63 56.03 58.54 87.67 54.16 87.5 53.95 55.87 58.33 39.02 99.78 38.88 100.14 38.82 100.28 38.98 100.49" style="opacity:0.1"></polygon><path d="M39,100.49l31.64-4.38.16-.39.14-.36,16.24-40,.41-1,.1-.25L56,58.54,44.21,87.63,39.28,99.74l-.14.36Z" style="fill:#C6FF00"></path><polygon points="38.82 100.28 38.98 100.49 56.03 58.54 55.87 58.33 38.82 100.28" style="fill:#C6FF00"></polygon><polygon points="38.82 100.28 38.98 100.49 56.03 58.54 55.87 58.33 38.82 100.28" style="fill:#fff;opacity:0.4"></polygon><polygon points="40.62 102.05 57.46 60.6 88.99 56.23 87.61 54.47 56.09 58.83 39.24 100.29 40.62 102.05" style="fill:#ebebeb"></polygon><polygon points="39.24 100.29 40.61 102.05 57.46 60.6 56.09 58.83 39.24 100.29" style="fill:#fafafa"></polygon><polygon points="40.59 102.56 40.75 102.17 40.9 101.82 45.82 89.7 57.64 60.61 89.28 56.23 89.11 56.02 57.48 60.4 40.64 101.85 40.49 102.21 40.43 102.36 40.59 102.56" style="fill:#C6FF00"></polygon><polygon points="40.59 102.56 40.75 102.17 40.9 101.82 45.82 89.7 57.64 60.61 89.28 56.23 89.11 56.02 57.48 60.4 40.64 101.85 40.49 102.21 40.43 102.36 40.59 102.56" style="opacity:0.1"></polygon><path d="M40.59,102.56l31.64-4.38.16-.39.14-.35,16.25-40,.4-1,.1-.25L57.64,60.61,45.82,89.71,40.9,101.82l-.15.35Z" style="fill:#C6FF00"></path><path d="M40.59,102.56l31.64-4.38.16-.39.14-.35,16.25-40,.4-1,.1-.25L57.64,60.61,45.82,89.71,40.9,101.82l-.15.35Z" style="fill:#fff;opacity:0.2"></path><polygon points="40.43 102.36 40.59 102.56 57.64 60.61 57.48 60.41 40.43 102.36" style="fill:#C6FF00"></polygon><polygon points="40.43 102.36 40.59 102.56 57.64 60.61 57.48 60.41 40.43 102.36" style="fill:#fff;opacity:0.4"></polygon><g id="freepik--notebook--inject-63"><path d="M57.87,62.42c-.12.29,0,.49.34.44a1.06,1.06,0,0,0,.77-.59c.12-.29,0-.48-.34-.44A1.08,1.08,0,0,0,57.87,62.42Z" style="fill:#37474f"></path><path d="M53.85,61.6a1.25,1.25,0,0,1,.89-2.17,3.16,3.16,0,0,1,.69,0l-.14.35a2.07,2.07,0,0,0-.5,0,.89.89,0,0,0-.65,1.59,3.68,3.68,0,0,0,3.09,1.26,1.47,1.47,0,0,0,.65-.23.78.78,0,0,0,.27-.33s0,0,0,0a1.1,1.1,0,0,1,.4-.21,1.23,1.23,0,0,1-.08.38,1.09,1.09,0,0,1-.56.58,1.78,1.78,0,0,1-.64.19A4.08,4.08,0,0,1,53.85,61.6Z" style="fill:#C6FF00"></path><path d="M56.85,64.94c-.12.29,0,.48.34.44a1.08,1.08,0,0,0,.77-.59c.11-.29,0-.49-.35-.44A1,1,0,0,0,56.85,64.94Z" style="fill:#37474f"></path><path d="M52.83,64.12A1.25,1.25,0,0,1,53.71,62a3.26,3.26,0,0,1,.7,0l-.15.35a2.77,2.77,0,0,0-.5,0,.9.9,0,0,0-.65,1.6,3.72,3.72,0,0,0,3.1,1.26,1.56,1.56,0,0,0,.64-.23.8.8,0,0,0,.28-.33v0a1.15,1.15,0,0,1,.39-.21,1.22,1.22,0,0,1-.07.38,1.17,1.17,0,0,1-.56.58,2,2,0,0,1-.64.19A4.09,4.09,0,0,1,52.83,64.12Z" style="fill:#C6FF00"></path><path d="M55.82,67.46c-.11.29,0,.48.35.44a1.07,1.07,0,0,0,.76-.59c.12-.29,0-.49-.34-.45A1.1,1.1,0,0,0,55.82,67.46Z" style="fill:#37474f"></path><path d="M51.81,66.64a1.25,1.25,0,0,1,.88-2.17,3.16,3.16,0,0,1,.69,0l-.14.34a2.75,2.75,0,0,0-.5,0,1.1,1.1,0,0,0-.92.56,1.08,1.08,0,0,0,.27,1,3.71,3.71,0,0,0,3.1,1.26,1.56,1.56,0,0,0,.64-.23.71.71,0,0,0,.27-.33v0a1,1,0,0,1,.4-.21.91.91,0,0,1-.08.37,1.14,1.14,0,0,1-.56.59,1.93,1.93,0,0,1-.64.19A4.09,4.09,0,0,1,51.81,66.64Z" style="fill:#C6FF00"></path><path d="M54.8,70c-.12.28,0,.48.34.44a1.07,1.07,0,0,0,.77-.6c.12-.28,0-.48-.34-.44A1.07,1.07,0,0,0,54.8,70Z" style="fill:#37474f"></path><path d="M50.78,69.16a1.42,1.42,0,0,1-.31-1.4,1.4,1.4,0,0,1,1.2-.77,2.64,2.64,0,0,1,.69,0l-.14.34a2.75,2.75,0,0,0-.5,0,.9.9,0,0,0-.65,1.6,3.67,3.67,0,0,0,3.09,1.25,1.47,1.47,0,0,0,.65-.22.86.86,0,0,0,.27-.33v0a1,1,0,0,1,.4-.21,1.17,1.17,0,0,1-.08.37,1.14,1.14,0,0,1-.56.59,2.29,2.29,0,0,1-.64.19A4.1,4.1,0,0,1,50.78,69.16Z" style="fill:#C6FF00"></path><path d="M53.78,72.49c-.12.29,0,.49.34.45a1.1,1.1,0,0,0,.77-.6c.11-.28,0-.48-.35-.44A1.07,1.07,0,0,0,53.78,72.49Z" style="fill:#37474f"></path><path d="M49.76,71.67a1.25,1.25,0,0,1,.88-2.17,3.26,3.26,0,0,1,.7,0l-.15.35a2.75,2.75,0,0,0-.5,0A.9.9,0,0,0,50,71.45a3.7,3.7,0,0,0,3.1,1.26,1.42,1.42,0,0,0,.64-.22.83.83,0,0,0,.28-.34v0a1.11,1.11,0,0,1,.39-.2,1.21,1.21,0,0,1-.07.37,1.13,1.13,0,0,1-.56.58,2,2,0,0,1-.64.2A4.1,4.1,0,0,1,49.76,71.67Z" style="fill:#C6FF00"></path><path d="M52.75,75c-.11.29,0,.49.35.44a1,1,0,0,0,.76-.59c.12-.29,0-.48-.34-.44A1.08,1.08,0,0,0,52.75,75Z" style="fill:#37474f"></path><path d="M48.74,74.19a1.39,1.39,0,0,1-.32-1.39,1.42,1.42,0,0,1,1.2-.78,3.16,3.16,0,0,1,.69,0l-.14.35a2.07,2.07,0,0,0-.5,0A.89.89,0,0,0,49,74a3.68,3.68,0,0,0,3.09,1.26,1.42,1.42,0,0,0,.65-.23.71.71,0,0,0,.27-.33v0a1.1,1.1,0,0,1,.4-.21,1,1,0,0,1-.08.38,1.13,1.13,0,0,1-.56.58,1.72,1.72,0,0,1-.64.19A4.06,4.06,0,0,1,48.74,74.19Z" style="fill:#C6FF00"></path><path d="M51.73,77.53c-.12.29,0,.48.34.44a1.08,1.08,0,0,0,.77-.59c.12-.29,0-.49-.34-.44A1.06,1.06,0,0,0,51.73,77.53Z" style="fill:#37474f"></path><path d="M47.71,76.71a1.41,1.41,0,0,1-.31-1.39,1.39,1.39,0,0,1,1.2-.78,3.16,3.16,0,0,1,.69,0l-.14.35a2.77,2.77,0,0,0-.5,0,1.08,1.08,0,0,0-.92.56,1.05,1.05,0,0,0,.27,1,3.71,3.71,0,0,0,3.09,1.26,1.5,1.5,0,0,0,.64-.23.8.8,0,0,0,.28-.33v0a1.1,1.1,0,0,1,.4-.21,1.23,1.23,0,0,1-.08.38,1.16,1.16,0,0,1-.56.58,2,2,0,0,1-.64.19A4.1,4.1,0,0,1,47.71,76.71Z" style="fill:#C6FF00"></path><path d="M50.71,80.05c-.12.29,0,.48.34.44a1.08,1.08,0,0,0,.77-.59c.11-.29,0-.49-.35-.45A1.08,1.08,0,0,0,50.71,80.05Z" style="fill:#37474f"></path><path d="M46.69,79.23a1.24,1.24,0,0,1,.88-2.17,3.26,3.26,0,0,1,.7,0l-.15.34a2.75,2.75,0,0,0-.5,0,1.1,1.1,0,0,0-.92.56A1.08,1.08,0,0,0,47,79a3.72,3.72,0,0,0,3.1,1.26,1.56,1.56,0,0,0,.64-.23.71.71,0,0,0,.27-.33l0,0a1,1,0,0,1,.39-.21,1.11,1.11,0,0,1-.07.37,1.19,1.19,0,0,1-.56.59,2,2,0,0,1-.64.19A4.09,4.09,0,0,1,46.69,79.23Z" style="fill:#C6FF00"></path><path d="M49.68,82.57c-.11.28,0,.48.35.44a1.05,1.05,0,0,0,.76-.6c.12-.28,0-.48-.34-.44A1.07,1.07,0,0,0,49.68,82.57Z" style="fill:#37474f"></path><path d="M45.67,81.75a1.24,1.24,0,0,1,.88-2.17,2.64,2.64,0,0,1,.69,0l-.14.34a2.75,2.75,0,0,0-.5,0,.9.9,0,0,0-.65,1.6A3.67,3.67,0,0,0,49,82.78a1.42,1.42,0,0,0,.65-.22.71.71,0,0,0,.27-.33,0,0,0,0,0,0,0,1,1,0,0,1,.4-.21,1,1,0,0,1-.08.37,1.14,1.14,0,0,1-.56.59,2.19,2.19,0,0,1-.64.19A4.09,4.09,0,0,1,45.67,81.75Z" style="fill:#C6FF00"></path><path d="M48.66,85.08c-.12.29,0,.49.34.45a1.1,1.1,0,0,0,.77-.6c.12-.28,0-.48-.34-.44A1.08,1.08,0,0,0,48.66,85.08Z" style="fill:#37474f"></path><path d="M44.64,84.26a1.25,1.25,0,0,1,.89-2.17,3.16,3.16,0,0,1,.69,0l-.14.35a2.72,2.72,0,0,0-.5,0A.9.9,0,0,0,44.93,84,3.68,3.68,0,0,0,48,85.3a1.42,1.42,0,0,0,.64-.22.83.83,0,0,0,.28-.34v0a1.08,1.08,0,0,1,.4-.2,1.23,1.23,0,0,1-.08.37,1.09,1.09,0,0,1-.56.58,2,2,0,0,1-.64.2A4.11,4.11,0,0,1,44.64,84.26Z" style="fill:#C6FF00"></path><path d="M47.64,87.6c-.12.29,0,.49.34.44a1.06,1.06,0,0,0,.77-.59c.11-.29,0-.48-.35-.44A1.07,1.07,0,0,0,47.64,87.6Z" style="fill:#37474f"></path><path d="M43.62,86.78a1.25,1.25,0,0,1,.88-2.17,3.26,3.26,0,0,1,.7,0l-.15.35a2.07,2.07,0,0,0-.5,0,.89.89,0,0,0-.65,1.59A3.7,3.7,0,0,0,47,87.82a1.56,1.56,0,0,0,.64-.23.71.71,0,0,0,.27-.33l0,0a1.06,1.06,0,0,1,.39-.21,1.22,1.22,0,0,1-.07.38,1.17,1.17,0,0,1-.56.58,1.78,1.78,0,0,1-.64.19A4.06,4.06,0,0,1,43.62,86.78Z" style="fill:#C6FF00"></path><path d="M46.61,90.12c-.11.28,0,.48.35.44a1.05,1.05,0,0,0,.76-.6c.12-.28,0-.48-.34-.44A1.1,1.1,0,0,0,46.61,90.12Z" style="fill:#37474f"></path><path d="M42.6,89.3a1.24,1.24,0,0,1,.88-2.17,2.64,2.64,0,0,1,.69,0l-.14.34a2.75,2.75,0,0,0-.5,0,1.1,1.1,0,0,0-.92.56,1.08,1.08,0,0,0,.27,1A3.67,3.67,0,0,0,46,90.33a1.42,1.42,0,0,0,.65-.22.71.71,0,0,0,.27-.33v0a1,1,0,0,1,.4-.21,1,1,0,0,1-.08.37,1.14,1.14,0,0,1-.56.59,1.93,1.93,0,0,1-.64.19A4.09,4.09,0,0,1,42.6,89.3Z" style="fill:#C6FF00"></path><path d="M45.59,92.64c-.12.28,0,.48.34.44a1.1,1.1,0,0,0,.77-.6c.12-.28,0-.48-.34-.44A1.07,1.07,0,0,0,45.59,92.64Z" style="fill:#37474f"></path><path d="M41.57,91.82a1.42,1.42,0,0,1-.31-1.4,1.38,1.38,0,0,1,1.2-.77,2.27,2.27,0,0,1,.69,0L43,90a2.75,2.75,0,0,0-.5,0,.9.9,0,0,0-.65,1.6A3.7,3.7,0,0,0,45,92.85a1.38,1.38,0,0,0,.64-.22.8.8,0,0,0,.28-.33v0a1,1,0,0,1,.4-.21,1.17,1.17,0,0,1-.08.37,1.14,1.14,0,0,1-.56.59,2.29,2.29,0,0,1-.64.19A4.13,4.13,0,0,1,41.57,91.82Z" style="fill:#C6FF00"></path><path d="M44.57,95.15c-.12.29,0,.49.34.45a1.1,1.1,0,0,0,.77-.6c.11-.29,0-.48-.35-.44A1.07,1.07,0,0,0,44.57,95.15Z" style="fill:#37474f"></path><path d="M40.55,94.33a1.25,1.25,0,0,1,.88-2.17,3.26,3.26,0,0,1,.7,0L42,92.5a2.75,2.75,0,0,0-.5,0,.89.89,0,0,0-.65,1.59,3.7,3.7,0,0,0,3.1,1.26,1.43,1.43,0,0,0,.64-.23.66.66,0,0,0,.27-.33l0,0a1.23,1.23,0,0,1,.39-.21,1.22,1.22,0,0,1-.07.38,1.13,1.13,0,0,1-.56.58,2,2,0,0,1-.64.2A4.1,4.1,0,0,1,40.55,94.33Z" style="fill:#C6FF00"></path><path d="M43.54,97.67c-.11.29,0,.49.35.44a1.07,1.07,0,0,0,.76-.59c.12-.29,0-.49-.34-.44A1.08,1.08,0,0,0,43.54,97.67Z" style="fill:#37474f"></path><path d="M39.53,96.85a1.39,1.39,0,0,1-.32-1.39,1.4,1.4,0,0,1,1.2-.78,3.16,3.16,0,0,1,.69,0L41,95a2.07,2.07,0,0,0-.5,0,.89.89,0,0,0-.65,1.59,3.71,3.71,0,0,0,3.09,1.26,1.55,1.55,0,0,0,.65-.23.71.71,0,0,0,.27-.33,0,0,0,0,0,0,0,1.1,1.1,0,0,1,.4-.21,1,1,0,0,1-.08.38,1.13,1.13,0,0,1-.56.58,1.93,1.93,0,0,1-.64.19A4.09,4.09,0,0,1,39.53,96.85Z" style="fill:#C6FF00"></path><path d="M42.52,100.19c-.12.29,0,.48.34.44a1.08,1.08,0,0,0,.77-.59c.12-.29,0-.49-.34-.45A1.1,1.1,0,0,0,42.52,100.19Z" style="fill:#37474f"></path><path d="M38.5,99.37A1.41,1.41,0,0,1,38.19,98a1.39,1.39,0,0,1,1.2-.78,3.16,3.16,0,0,1,.69,0l-.14.34a2.72,2.72,0,0,0-.5,0,1.08,1.08,0,0,0-.92.56,1.06,1.06,0,0,0,.27,1,3.71,3.71,0,0,0,3.09,1.26,1.56,1.56,0,0,0,.64-.23.8.8,0,0,0,.28-.33v0a1.1,1.1,0,0,1,.4-.21,1.11,1.11,0,0,1-.08.37,1.14,1.14,0,0,1-.56.59,2,2,0,0,1-.64.19A4.1,4.1,0,0,1,38.5,99.37Z" style="fill:#C6FF00"></path><path d="M38.5,99.37A1.41,1.41,0,0,1,38.19,98a1.39,1.39,0,0,1,1.2-.78,3.17,3.17,0,0,1,.44,0,3.08,3.08,0,0,1-.3-.33,1.39,1.39,0,0,1-.32-1.39,1.4,1.4,0,0,1,1.2-.78,3.17,3.17,0,0,1,.44,0,2.35,2.35,0,0,1-.3-.33,1.25,1.25,0,0,1,.88-2.17,3.17,3.17,0,0,1,.44,0,3,3,0,0,1-.3-.32,1.42,1.42,0,0,1-.31-1.4,1.38,1.38,0,0,1,1.2-.77,3.15,3.15,0,0,1,.44,0,3,3,0,0,1-.3-.32,1.24,1.24,0,0,1,.88-2.17,2.13,2.13,0,0,1,.44,0q-.16-.17-.3-.33a1.25,1.25,0,0,1,.88-2.17,3.17,3.17,0,0,1,.44,0,2.35,2.35,0,0,1-.3-.33,1.25,1.25,0,0,1,.89-2.17,3.17,3.17,0,0,1,.44,0,3,3,0,0,1-.3-.32,1.24,1.24,0,0,1,.88-2.17,2.13,2.13,0,0,1,.44,0q-.16-.16-.3-.33a1.24,1.24,0,0,1,.88-2.17A2.23,2.23,0,0,1,48,77a3.13,3.13,0,0,1-.31-.33,1.41,1.41,0,0,1-.31-1.39,1.39,1.39,0,0,1,1.2-.78,3.17,3.17,0,0,1,.44,0,2.35,2.35,0,0,1-.3-.33,1.39,1.39,0,0,1-.32-1.39,1.42,1.42,0,0,1,1.2-.78,3.17,3.17,0,0,1,.44,0,2.35,2.35,0,0,1-.3-.33,1.25,1.25,0,0,1,.88-2.17,3.31,3.31,0,0,1,.45,0,2.33,2.33,0,0,1-.31-.32,1.42,1.42,0,0,1-.31-1.4,1.4,1.4,0,0,1,1.2-.77,2.13,2.13,0,0,1,.44,0q-.16-.16-.3-.33a1.25,1.25,0,0,1,.88-2.17,2.13,2.13,0,0,1,.44,0q-.16-.17-.3-.33A1.25,1.25,0,0,1,53.71,62a3.31,3.31,0,0,1,.45,0,1.93,1.93,0,0,1-.31-.33,1.25,1.25,0,0,1,.89-2.17,3.16,3.16,0,0,1,.69,0l-.14.35a2.07,2.07,0,0,0-.5,0,.89.89,0,0,0-.65,1.59,3.68,3.68,0,0,0,3.09,1.26,1.47,1.47,0,0,0,.65-.23.78.78,0,0,0,.27-.33s0,0,0,0a1.1,1.1,0,0,1,.4-.21,1.23,1.23,0,0,1-.08.38,1.09,1.09,0,0,1-.56.58,1.78,1.78,0,0,1-.64.19,4.1,4.1,0,0,1-2.94-.9l-.08.2a2.77,2.77,0,0,0-.5,0,.9.9,0,0,0-.65,1.6,3.72,3.72,0,0,0,3.1,1.26,1.56,1.56,0,0,0,.64-.23.8.8,0,0,0,.28-.33v0a1.15,1.15,0,0,1,.39-.21,1.22,1.22,0,0,1-.07.38,1.17,1.17,0,0,1-.56.58,2,2,0,0,1-.64.19,4.14,4.14,0,0,1-2.94-.9l-.08.19a2.75,2.75,0,0,0-.5,0,1.1,1.1,0,0,0-.92.56,1.08,1.08,0,0,0,.27,1,3.71,3.71,0,0,0,3.1,1.26,1.56,1.56,0,0,0,.64-.23.71.71,0,0,0,.27-.33v0a1,1,0,0,1,.4-.21.91.91,0,0,1-.08.37,1.14,1.14,0,0,1-.56.59,1.93,1.93,0,0,1-.64.19,4.13,4.13,0,0,1-2.93-.9l-.08.19a2.75,2.75,0,0,0-.5,0,.9.9,0,0,0-.65,1.6,3.67,3.67,0,0,0,3.09,1.25,1.47,1.47,0,0,0,.65-.22.86.86,0,0,0,.27-.33v0a1,1,0,0,1,.4-.21,1.17,1.17,0,0,1-.08.37,1.14,1.14,0,0,1-.56.59,2.29,2.29,0,0,1-.64.19,4.18,4.18,0,0,1-2.94-.9l-.08.19a2.75,2.75,0,0,0-.5,0A.9.9,0,0,0,50,71.45a3.7,3.7,0,0,0,3.1,1.26,1.42,1.42,0,0,0,.64-.22.83.83,0,0,0,.28-.34v0a1.11,1.11,0,0,1,.39-.2,1.21,1.21,0,0,1-.07.37,1.13,1.13,0,0,1-.56.58,2,2,0,0,1-.64.2,4.15,4.15,0,0,1-2.94-.91l-.08.2a2.07,2.07,0,0,0-.5,0A.89.89,0,0,0,49,74a3.68,3.68,0,0,0,3.09,1.26,1.42,1.42,0,0,0,.65-.23.71.71,0,0,0,.27-.33v0a1.1,1.1,0,0,1,.4-.21,1,1,0,0,1-.08.38,1.13,1.13,0,0,1-.56.58,1.72,1.72,0,0,1-.64.19,4.08,4.08,0,0,1-2.93-.9l-.08.2a2.77,2.77,0,0,0-.5,0,1.08,1.08,0,0,0-.92.56,1.05,1.05,0,0,0,.27,1,3.71,3.71,0,0,0,3.09,1.26,1.5,1.5,0,0,0,.64-.23.8.8,0,0,0,.28-.33v0a1.1,1.1,0,0,1,.4-.21,1.23,1.23,0,0,1-.08.38,1.16,1.16,0,0,1-.56.58,2,2,0,0,1-.64.19,4.14,4.14,0,0,1-2.94-.9l-.08.19a2.75,2.75,0,0,0-.5,0,1.1,1.1,0,0,0-.92.56A1.08,1.08,0,0,0,47,79a3.72,3.72,0,0,0,3.1,1.26,1.56,1.56,0,0,0,.64-.23.71.71,0,0,0,.27-.33l0,0a1,1,0,0,1,.39-.21,1.11,1.11,0,0,1-.07.37,1.19,1.19,0,0,1-.56.59,2,2,0,0,1-.64.19,4.14,4.14,0,0,1-2.94-.9l-.08.19a2.75,2.75,0,0,0-.5,0,.9.9,0,0,0-.65,1.6A3.67,3.67,0,0,0,49,82.78a1.42,1.42,0,0,0,.65-.22.71.71,0,0,0,.27-.33v0a1,1,0,0,1,.4-.21,1,1,0,0,1-.08.37,1.14,1.14,0,0,1-.56.59,2.19,2.19,0,0,1-.64.19,4.17,4.17,0,0,1-2.93-.9l-.08.19a2.72,2.72,0,0,0-.5,0A.9.9,0,0,0,44.93,84,3.68,3.68,0,0,0,48,85.3a1.42,1.42,0,0,0,.64-.22.83.83,0,0,0,.28-.34v0a1.08,1.08,0,0,1,.4-.2,1.23,1.23,0,0,1-.08.37,1.09,1.09,0,0,1-.56.58,2,2,0,0,1-.64.2,4.15,4.15,0,0,1-2.94-.91l-.08.2a2.07,2.07,0,0,0-.5,0,.89.89,0,0,0-.65,1.59A3.7,3.7,0,0,0,47,87.82a1.56,1.56,0,0,0,.64-.23.71.71,0,0,0,.27-.33l0,0a1,1,0,0,1,.39-.21,1.22,1.22,0,0,1-.07.38,1.17,1.17,0,0,1-.56.58,1.78,1.78,0,0,1-.64.19,4.09,4.09,0,0,1-2.94-.9l-.08.19a2.75,2.75,0,0,0-.5,0,1.1,1.1,0,0,0-.92.56,1.08,1.08,0,0,0,.27,1A3.67,3.67,0,0,0,46,90.33a1.42,1.42,0,0,0,.65-.22.71.71,0,0,0,.27-.33v0a1,1,0,0,1,.4-.21,1,1,0,0,1-.08.37,1.14,1.14,0,0,1-.56.59,1.93,1.93,0,0,1-.64.19,4.17,4.17,0,0,1-2.93-.9L43,90a2.75,2.75,0,0,0-.5,0,.9.9,0,0,0-.65,1.6A3.7,3.7,0,0,0,45,92.85a1.38,1.38,0,0,0,.64-.22.8.8,0,0,0,.28-.33v0a1,1,0,0,1,.4-.21,1.17,1.17,0,0,1-.08.37,1.14,1.14,0,0,1-.56.59,2.29,2.29,0,0,1-.64.19,4.18,4.18,0,0,1-2.94-.9L42,92.5a2.75,2.75,0,0,0-.5,0,.89.89,0,0,0-.65,1.59,3.7,3.7,0,0,0,3.1,1.26,1.43,1.43,0,0,0,.64-.23.66.66,0,0,0,.27-.33l0,0a1.23,1.23,0,0,1,.39-.21,1.22,1.22,0,0,1-.07.38,1.13,1.13,0,0,1-.56.58,2,2,0,0,1-.64.2A4.15,4.15,0,0,1,41,94.82L41,95a2.07,2.07,0,0,0-.5,0,.89.89,0,0,0-.65,1.59,3.71,3.71,0,0,0,3.09,1.26,1.55,1.55,0,0,0,.65-.23.71.71,0,0,0,.27-.33,0,0,0,0,0,0,0,1.1,1.1,0,0,1,.4-.21,1,1,0,0,1-.08.38,1.13,1.13,0,0,1-.56.58,1.93,1.93,0,0,1-.64.19,4.13,4.13,0,0,1-2.93-.9l-.08.19a2.72,2.72,0,0,0-.5,0,1.08,1.08,0,0,0-.92.56,1.06,1.06,0,0,0,.27,1,3.71,3.71,0,0,0,3.09,1.26,1.56,1.56,0,0,0,.64-.23.8.8,0,0,0,.28-.33v0a1.1,1.1,0,0,1,.4-.21,1.11,1.11,0,0,1-.08.37,1.14,1.14,0,0,1-.56.59,2,2,0,0,1-.64.19A4.1,4.1,0,0,1,38.5,99.37Z" style="opacity:0.4"></path></g></g><g id="freepik--notebook--inject-63"><path d="M85.77,117.74,55.91,130.11l-.74-.06-.4-.3a.74.74,0,0,1-.26-.7l5.25-41.66a1.35,1.35,0,0,1,.27-.63,1.33,1.33,0,0,1,.53-.43L89.8,74l.4.31Z" style="fill:#C6FF00"></path><path d="M85.77,117.74,55.91,130.11l-.74-.06-.4-.3a.74.74,0,0,1-.26-.7l5.25-41.66a1.35,1.35,0,0,1,.27-.63,1.33,1.33,0,0,1,.53-.43L89.8,74l.4.31Z" style="opacity:0.2"></path><path d="M60.43,87.06a1.39,1.39,0,0,0-.27.63l-5.25,41.66a.73.73,0,0,0,.26.7.74.74,0,0,0,.74.06l29.74-11.4L90.2,74.33,61,86.63A1.53,1.53,0,0,0,60.43,87.06Z" style="fill:#C6FF00"></path><path d="M86.82,119.61l-28.56,12h-.33l-2.51-1.9h0a.34.34,0,0,1-.09-.31l5.25-41.67a1,1,0,0,1,.55-.72L89.69,75l2.52,1.91Z" style="fill:#f5f5f5"></path><path d="M63.28,89.22l-2.52-1.9a.91.91,0,0,0-.18.42l-5.25,41.67a.34.34,0,0,0,.09.31l2.52,1.9a.29.29,0,0,1-.1-.3l5.25-41.67A1,1,0,0,1,63.28,89.22Z" style="fill:#e0e0e0"></path><path d="M87.15,118.79,58.24,131.88l-.74-.06-.4-.31a.71.71,0,0,1-.26-.69l5.25-41.66a1.3,1.3,0,0,1,.27-.63,1.33,1.33,0,0,1,.53-.43L92.13,75.79l.4.31Z" style="fill:#C6FF00"></path><path d="M87.15,118.79,58.24,131.88l-.74-.06-.4-.31a.71.71,0,0,1-.26-.69l5.25-41.66a1.3,1.3,0,0,1,.27-.63,1.33,1.33,0,0,1,.53-.43L92.13,75.79l.4.31Z" style="opacity:0.2"></path><path d="M62.76,88.83a1.39,1.39,0,0,0-.27.63l-5.25,41.66a.75.75,0,0,0,.26.7.74.74,0,0,0,.74.06L87,119.76l5.5-43.66L63.3,88.4A1.38,1.38,0,0,0,62.76,88.83Z" style="fill:#C6FF00"></path><path d="M90.54,79.91c-.25.11-.43,0-.39-.29a.94.94,0,0,1,.51-.68c.25-.1.42,0,.39.3A.9.9,0,0,1,90.54,79.91Z" style="fill:#263238"></path><path d="M90.17,82.84c-.25.11-.43,0-.39-.29a.94.94,0,0,1,.51-.68c.25-.11.42,0,.39.3A.9.9,0,0,1,90.17,82.84Z" style="fill:#263238"></path><path d="M89.8,85.77c-.25.11-.43,0-.39-.29a.92.92,0,0,1,.51-.68c.25-.11.43,0,.39.3A.9.9,0,0,1,89.8,85.77Z" style="fill:#263238"></path><path d="M89.43,88.7c-.25.1-.43,0-.39-.3a.92.92,0,0,1,.51-.67c.25-.11.43,0,.39.3A.9.9,0,0,1,89.43,88.7Z" style="fill:#263238"></path><path d="M89.06,91.63c-.25.1-.43,0-.39-.3a.92.92,0,0,1,.51-.67c.25-.11.43,0,.39.29A.92.92,0,0,1,89.06,91.63Z" style="fill:#263238"></path><path d="M88.69,94.56c-.25.1-.42,0-.39-.3a.9.9,0,0,1,.51-.67c.25-.11.43,0,.39.29A.92.92,0,0,1,88.69,94.56Z" style="fill:#263238"></path><path d="M88.32,97.49c-.25.1-.42,0-.39-.3a.9.9,0,0,1,.51-.67c.25-.11.43,0,.39.29A.92.92,0,0,1,88.32,97.49Z" style="fill:#263238"></path><path d="M88,100.42c-.25.1-.42,0-.39-.3a.94.94,0,0,1,.51-.68c.25-.1.43,0,.39.3A.94.94,0,0,1,88,100.42Z" style="fill:#263238"></path><path d="M87.58,103.35c-.25.1-.42,0-.39-.3a.94.94,0,0,1,.51-.68c.25-.1.43,0,.39.3A.94.94,0,0,1,87.58,103.35Z" style="fill:#263238"></path><path d="M87.19,106.42c-.24.1-.42,0-.39-.3a1,1,0,0,1,.52-.67c.25-.11.42,0,.39.29A1,1,0,0,1,87.19,106.42Z" style="fill:#263238"></path><path d="M86.81,109.49c-.25.11-.43,0-.39-.29a.94.94,0,0,1,.51-.68c.25-.1.42,0,.39.3A.9.9,0,0,1,86.81,109.49Z" style="fill:#263238"></path><path d="M86.42,112.57c-.25.1-.42,0-.39-.3a.94.94,0,0,1,.51-.68c.25-.1.43,0,.39.3A.94.94,0,0,1,86.42,112.57Z" style="fill:#263238"></path><path d="M86,115.64c-.24.1-.42,0-.39-.3a1,1,0,0,1,.52-.67c.25-.11.42,0,.39.3A.94.94,0,0,1,86,115.64Z" style="fill:#263238"></path><path d="M85.65,118.71c-.25.11-.43,0-.39-.29a.94.94,0,0,1,.51-.68c.25-.1.42,0,.39.3A.9.9,0,0,1,85.65,118.71Z" style="fill:#263238"></path><path d="M92.75,77.44a2.71,2.71,0,0,0-.35-.24l-.05.35a1.1,1.1,0,0,1,.21.14,1.14,1.14,0,0,1,.58,1A.56.56,0,0,1,93,79a1.15,1.15,0,0,1-.44.31,3.14,3.14,0,0,1-2.23-.08.74.74,0,0,0-.16.27,3.59,3.59,0,0,0,2.51.11,1.12,1.12,0,0,0,.75-.87A1.43,1.43,0,0,0,92.75,77.44Z" style="fill:#C6FF00"></path><path d="M92.25,77.13l-.07,0v.06Z" style="fill:#263238"></path><path d="M92.38,80.36,92,80.13l0,.35a.77.77,0,0,1,.21.14,1.14,1.14,0,0,1,.58,1,.56.56,0,0,1-.12.3,1.15,1.15,0,0,1-.44.31A3.14,3.14,0,0,1,90,82.12a.74.74,0,0,0-.16.27,3.53,3.53,0,0,0,2.51.1,1.09,1.09,0,0,0,.75-.86A1.45,1.45,0,0,0,92.38,80.36Z" style="fill:#C6FF00"></path><path d="M92,83.29l-.35-.23,0,.34a1.13,1.13,0,0,1,.21.15,1.14,1.14,0,0,1,.58,1,.56.56,0,0,1-.12.3,1.15,1.15,0,0,1-.44.31,3.14,3.14,0,0,1-2.23-.08.74.74,0,0,0-.16.27,3.53,3.53,0,0,0,2.51.1,1.09,1.09,0,0,0,.75-.86A1.44,1.44,0,0,0,92,83.29Z" style="fill:#C6FF00"></path><path d="M91.64,86.22,91.29,86l-.05.34.21.14a1.17,1.17,0,0,1,.58,1,.5.5,0,0,1-.12.29,1.07,1.07,0,0,1-.44.32A3.2,3.2,0,0,1,89.24,88a.74.74,0,0,0-.16.27,3.53,3.53,0,0,0,2.51.1,1.09,1.09,0,0,0,.75-.86A1.44,1.44,0,0,0,91.64,86.22Z" style="fill:#C6FF00"></path><path d="M91.27,89.15l-.35-.23,0,.34.2.14a1.17,1.17,0,0,1,.58,1,.53.53,0,0,1-.12.29,1.07,1.07,0,0,1-.44.32,3.2,3.2,0,0,1-2.23-.09.88.88,0,0,0-.16.28,3.54,3.54,0,0,0,2.51.1,1.09,1.09,0,0,0,.75-.86A1.44,1.44,0,0,0,91.27,89.15Z" style="fill:#C6FF00"></path><path d="M90.9,92.08l-.35-.23,0,.34.2.14a1.17,1.17,0,0,1,.58,1,.53.53,0,0,1-.12.29,1.07,1.07,0,0,1-.44.32,3.2,3.2,0,0,1-2.23-.09.88.88,0,0,0-.16.28,3.54,3.54,0,0,0,2.51.1,1.09,1.09,0,0,0,.75-.86A1.44,1.44,0,0,0,90.9,92.08Z" style="fill:#C6FF00"></path><path d="M90.54,95a3.17,3.17,0,0,0-.36-.23l0,.34.21.14a1.18,1.18,0,0,1,.57,1,.56.56,0,0,1-.12.29,1.07,1.07,0,0,1-.44.32,3.2,3.2,0,0,1-2.23-.09A.84.84,0,0,0,88,97a3.54,3.54,0,0,0,2.51.11,1.14,1.14,0,0,0,.76-.86A1.49,1.49,0,0,0,90.54,95Z" style="fill:#C6FF00"></path><path d="M90.17,97.94a3.17,3.17,0,0,0-.36-.23l0,.34.21.14a1.18,1.18,0,0,1,.57,1,.56.56,0,0,1-.12.29,1,1,0,0,1-.44.32,3.2,3.2,0,0,1-2.23-.09.84.84,0,0,0-.16.27,3.54,3.54,0,0,0,2.51.11,1.14,1.14,0,0,0,.76-.86A1.49,1.49,0,0,0,90.17,97.94Z" style="fill:#C6FF00"></path><path d="M89.8,100.87a3.17,3.17,0,0,0-.36-.23l0,.34.21.14a1.18,1.18,0,0,1,.57,1,.56.56,0,0,1-.12.29,1,1,0,0,1-.44.32,3.2,3.2,0,0,1-2.23-.09.84.84,0,0,0-.16.27,3.54,3.54,0,0,0,2.51.11,1.14,1.14,0,0,0,.76-.86A1.49,1.49,0,0,0,89.8,100.87Z" style="fill:#C6FF00"></path><path d="M89.41,103.94a3.17,3.17,0,0,0-.36-.23l0,.34.21.14a1.17,1.17,0,0,1,.58,1,.74.74,0,0,1-.12.29,1,1,0,0,1-.45.32,3.15,3.15,0,0,1-2.23-.09,1.12,1.12,0,0,0-.16.28,3.56,3.56,0,0,0,2.52.1,1.11,1.11,0,0,0,.75-.86A1.46,1.46,0,0,0,89.41,103.94Z" style="fill:#C6FF00"></path><path d="M89,107a2.71,2.71,0,0,0-.35-.24l0,.35a1.1,1.1,0,0,1,.21.14,1.14,1.14,0,0,1,.58,1,.56.56,0,0,1-.12.3,1.15,1.15,0,0,1-.44.31,3.14,3.14,0,0,1-2.23-.08.74.74,0,0,0-.16.27,3.59,3.59,0,0,0,2.51.11,1.12,1.12,0,0,0,.75-.87A1.43,1.43,0,0,0,89,107Z" style="fill:#C6FF00"></path><path d="M88.64,110.09a3.17,3.17,0,0,0-.36-.23l0,.34.21.14a1.18,1.18,0,0,1,.57,1,.56.56,0,0,1-.12.29,1,1,0,0,1-.44.32,3.2,3.2,0,0,1-2.23-.09.84.84,0,0,0-.16.27,3.49,3.49,0,0,0,2.51.11,1.14,1.14,0,0,0,.76-.86A1.49,1.49,0,0,0,88.64,110.09Z" style="fill:#C6FF00"></path><path d="M88.25,113.16a3.17,3.17,0,0,0-.36-.23l0,.34.21.14a1.17,1.17,0,0,1,.58,1,.69.69,0,0,1-.12.29,1,1,0,0,1-.45.32,3.14,3.14,0,0,1-2.23-.08.92.92,0,0,0-.16.27,3.56,3.56,0,0,0,2.52.1,1.11,1.11,0,0,0,.75-.86A1.46,1.46,0,0,0,88.25,113.16Z" style="fill:#C6FF00"></path><path d="M87.86,116.24a1.92,1.92,0,0,0-.35-.23l-.05.34a1.1,1.1,0,0,1,.21.14,1.16,1.16,0,0,1,.58,1,.56.56,0,0,1-.12.29,1.29,1.29,0,0,1-.44.32,3.2,3.2,0,0,1-2.23-.09.84.84,0,0,0-.16.27,3.59,3.59,0,0,0,2.51.11,1.1,1.1,0,0,0,.75-.87A1.43,1.43,0,0,0,87.86,116.24Z" style="fill:#C6FF00"></path><g style="opacity:0.30000000000000004"><path d="M92.75,77.44a2.71,2.71,0,0,0-.35-.24l-.05.35a1.1,1.1,0,0,1,.21.14,1.14,1.14,0,0,1,.58,1A.56.56,0,0,1,93,79a1.15,1.15,0,0,1-.44.31,3.14,3.14,0,0,1-2.23-.08.74.74,0,0,0-.16.27,3.59,3.59,0,0,0,2.51.11,1.12,1.12,0,0,0,.75-.87A1.43,1.43,0,0,0,92.75,77.44Z"></path><path d="M92.38,80.36,92,80.13l0,.35a.77.77,0,0,1,.21.14,1.14,1.14,0,0,1,.58,1,.56.56,0,0,1-.12.3,1.15,1.15,0,0,1-.44.31A3.14,3.14,0,0,1,90,82.12a.74.74,0,0,0-.16.27,3.53,3.53,0,0,0,2.51.1,1.09,1.09,0,0,0,.75-.86A1.45,1.45,0,0,0,92.38,80.36Z"></path><path d="M92,83.29l-.35-.23,0,.34a1.13,1.13,0,0,1,.21.15,1.14,1.14,0,0,1,.58,1,.56.56,0,0,1-.12.3,1.15,1.15,0,0,1-.44.31,3.14,3.14,0,0,1-2.23-.08.74.74,0,0,0-.16.27,3.53,3.53,0,0,0,2.51.1,1.09,1.09,0,0,0,.75-.86A1.44,1.44,0,0,0,92,83.29Z"></path><path d="M91.64,86.22,91.29,86l-.05.34.21.14a1.17,1.17,0,0,1,.58,1,.5.5,0,0,1-.12.29,1.07,1.07,0,0,1-.44.32A3.2,3.2,0,0,1,89.24,88a.74.74,0,0,0-.16.27,3.53,3.53,0,0,0,2.51.1,1.09,1.09,0,0,0,.75-.86A1.44,1.44,0,0,0,91.64,86.22Z"></path><path d="M91.27,89.15l-.35-.23,0,.34.2.14a1.17,1.17,0,0,1,.58,1,.53.53,0,0,1-.12.29,1.07,1.07,0,0,1-.44.32,3.2,3.2,0,0,1-2.23-.09.88.88,0,0,0-.16.28,3.54,3.54,0,0,0,2.51.1,1.09,1.09,0,0,0,.75-.86A1.44,1.44,0,0,0,91.27,89.15Z"></path><path d="M90.9,92.08l-.35-.23,0,.34.2.14a1.17,1.17,0,0,1,.58,1,.53.53,0,0,1-.12.29,1.07,1.07,0,0,1-.44.32,3.2,3.2,0,0,1-2.23-.09.88.88,0,0,0-.16.28,3.54,3.54,0,0,0,2.51.1,1.09,1.09,0,0,0,.75-.86A1.44,1.44,0,0,0,90.9,92.08Z"></path><path d="M90.54,95a3.17,3.17,0,0,0-.36-.23l0,.34.21.14a1.18,1.18,0,0,1,.57,1,.56.56,0,0,1-.12.29,1.07,1.07,0,0,1-.44.32,3.2,3.2,0,0,1-2.23-.09A.84.84,0,0,0,88,97a3.54,3.54,0,0,0,2.51.11,1.14,1.14,0,0,0,.76-.86A1.49,1.49,0,0,0,90.54,95Z"></path><path d="M90.17,97.94a3.17,3.17,0,0,0-.36-.23l0,.34.21.14a1.18,1.18,0,0,1,.57,1,.56.56,0,0,1-.12.29,1,1,0,0,1-.44.32,3.2,3.2,0,0,1-2.23-.09.84.84,0,0,0-.16.27,3.54,3.54,0,0,0,2.51.11,1.14,1.14,0,0,0,.76-.86A1.49,1.49,0,0,0,90.17,97.94Z"></path><path d="M87.86,116.24a2.64,2.64,0,0,0-.35-.23l-.05.34a1.1,1.1,0,0,1,.21.14,1.16,1.16,0,0,1,.58,1,.56.56,0,0,1-.12.29,1.29,1.29,0,0,1-.44.32,3.2,3.2,0,0,1-2.23-.09.84.84,0,0,0-.16.27,3.59,3.59,0,0,0,2.51.11,1.1,1.1,0,0,0,.75-.87A1.43,1.43,0,0,0,87.86,116.24Z"></path><path d="M87.86,116.24a2.64,2.64,0,0,0-.35-.23l-.05.34a1.1,1.1,0,0,1,.21.14,1.16,1.16,0,0,1,.58,1,.56.56,0,0,1-.12.29,1.29,1.29,0,0,1-.44.32,3.2,3.2,0,0,1-2.23-.09.84.84,0,0,0-.16.27,3.59,3.59,0,0,0,2.51.11,1.1,1.1,0,0,0,.75-.87A1.43,1.43,0,0,0,87.86,116.24Z"></path><path d="M87.86,116.24a2.64,2.64,0,0,0-.35-.23l-.05.34a1.1,1.1,0,0,1,.21.14,1.16,1.16,0,0,1,.58,1,.56.56,0,0,1-.12.29,1.29,1.29,0,0,1-.44.32,3.2,3.2,0,0,1-2.23-.09.84.84,0,0,0-.16.27,3.59,3.59,0,0,0,2.51.11,1.1,1.1,0,0,0,.75-.87A1.43,1.43,0,0,0,87.86,116.24Z"></path><path d="M87.86,116.24a1.92,1.92,0,0,0-.35-.23l-.05.34a1.1,1.1,0,0,1,.21.14,1.16,1.16,0,0,1,.58,1,.56.56,0,0,1-.12.29,1.29,1.29,0,0,1-.44.32,3.2,3.2,0,0,1-2.23-.09.84.84,0,0,0-.16.27,3.59,3.59,0,0,0,2.51.11,1.1,1.1,0,0,0,.75-.87A1.43,1.43,0,0,0,87.86,116.24Z"></path><path d="M87.86,116.24a1.92,1.92,0,0,0-.35-.23l-.05.34a1.1,1.1,0,0,1,.21.14,1.16,1.16,0,0,1,.58,1,.56.56,0,0,1-.12.29,1.29,1.29,0,0,1-.44.32,3.2,3.2,0,0,1-2.23-.09.84.84,0,0,0-.16.27,3.59,3.59,0,0,0,2.51.11,1.1,1.1,0,0,0,.75-.87A1.43,1.43,0,0,0,87.86,116.24Z"></path><path d="M87.86,116.24a1.92,1.92,0,0,0-.35-.23l-.05.34a1.1,1.1,0,0,1,.21.14,1.16,1.16,0,0,1,.58,1,.56.56,0,0,1-.12.29,1.29,1.29,0,0,1-.44.32,3.2,3.2,0,0,1-2.23-.09.84.84,0,0,0-.16.27,3.59,3.59,0,0,0,2.51.11,1.1,1.1,0,0,0,.75-.87A1.43,1.43,0,0,0,87.86,116.24Z"></path></g></g></g><g id="freepik--Folder--inject-63"><g id="freepik--Carpet--inject-63"><polygon points="437.08 112.44 427.71 71.64 381.25 64.45 389.6 105 437.08 112.44" style="fill:#C6FF00"></polygon><polygon points="437.08 112.44 427.71 71.64 381.25 64.45 389.6 105 437.08 112.44" style="opacity:0.25"></polygon><polygon points="434.32 109.52 425.08 75.08 375.59 67.53 389.41 102.59 434.32 109.52" style="fill:#f0f0f0"></polygon><path d="M416.89,89.22a41.91,41.91,0,0,1-12.31-16.87c-4.55-11.15-3.5-19.7-3.5-19.7L356,46.2a52.81,52.81,0,0,0,2.67,18.43c2.68,8.23,10.48,17.47,10.48,17.47Z" style="fill:#fafafa"></path><path d="M416.89,89.22c-10.74-8.68-16.75-22.86-16.05-36.6,1.35.82-45.17-6.28-44.91-6l.43-.34a53.16,53.16,0,0,0,2.9,19.12c2.26,6.07,6.06,11.53,10.08,16.58-.89-.29,47.75,7.36,47.55,7.29Zm0,0c-.16-.09-47.87-6.74-47.95-7-4.11-5.1-7.94-10.54-10.28-16.7a53.54,53.54,0,0,1-3-19.8l.41.06c.27.08,45.07,6.55,45.3,6.61-.82,13.66,5,28,15.55,36.78Z" style="fill:#f0f0f0"></path><polygon points="368.24 71.74 389.6 105 437.08 112.44 417.11 81.35 387.73 77.6 384.43 74.84 368.24 71.74" style="fill:#C6FF00"></polygon></g></g><g id="freepik--Lines--inject-63"><g id="freepik--lines--inject-63"><path d="M136.77,399.86l-2.44,1.06c1.65-.64,3.33-1.22,4.95-1.93l2.42-1.1c.41-.19.82-.36,1.21-.56l1.18-.62,2.34-1.27c.76-.45,1.51-.93,2.26-1.4,1.54-.9,2.94-2,4.4-3,.71-.54,1.38-1.12,2.08-1.67l1-.85,1-.91c.65-.62,1.31-1.21,1.94-1.84l1.83-1.95a61.35,61.35,0,0,0,6.44-8.51,65.59,65.59,0,0,0,7.94-19.72,67.83,67.83,0,0,0,1.45-21.15,66.76,66.76,0,0,1-.33,10.58,74.75,74.75,0,0,1-1.79,10.41,66.74,66.74,0,0,1-8,19.41,60.07,60.07,0,0,1-6.29,8.44,65.52,65.52,0,0,1-7.67,7.22c-1.41,1-2.77,2.16-4.27,3.09-.74.48-1.47,1-2.22,1.44l-2.29,1.31-1.15.67c-.38.21-.78.4-1.18.6l-2.36,1.19C138.41,399.19,137.57,399.49,136.77,399.86Z" style="fill:#455a64"></path><path d="M145.59,403.16c-2.18.91-4.47,1.53-6.71,2.31,2.29-.58,4.61-1.12,6.86-1.9s4.46-1.63,6.66-2.54a64.71,64.71,0,0,0,12.31-7.23,53,53,0,0,0,10.11-10.07,16.77,16.77,0,0,0,1-1.46l1-1.49c.32-.5.6-1,.9-1.55s.61-1,.85-1.57l.75-1.62c.26-.53.43-1.11.65-1.66a27.29,27.29,0,0,0,1-3.41,34.63,34.63,0,0,1-2.82,6.49c-.26.53-.59,1-.9,1.52s-.6,1-.93,1.49l-1,1.44a16.18,16.18,0,0,1-1.07,1.4,54.77,54.77,0,0,1-10.12,9.77,68.49,68.49,0,0,1-12,7.33C150,401.38,147.83,402.38,145.59,403.16Z" style="fill:#455a64"></path><path d="M137.25,76.17a32.54,32.54,0,0,0-8.06-8.41,35.48,35.48,0,0,0-10.53-5.12,44.09,44.09,0,0,0-11.58-1.72,44.67,44.67,0,0,0-11.59,1.24,46.62,46.62,0,0,1,5.78-.62,53.25,53.25,0,0,1,5.79,0,46.14,46.14,0,0,1,11.38,1.88,36.07,36.07,0,0,1,10.4,4.86,13.89,13.89,0,0,1,1.18.83c.39.29.78.57,1.16.87.72.64,1.48,1.23,2.16,1.92A40.77,40.77,0,0,1,137.25,76.17Z" style="fill:#455a64"></path><path d="M108.21,68.38a26.62,26.62,0,0,0-7.6-.51,26.3,26.3,0,0,1,3.77.36c1.25.18,2.48.44,3.7.74a49.46,49.46,0,0,1,7.15,2.36,41.7,41.7,0,0,1,6.66,3.47,28.53,28.53,0,0,1,3,2.24c.46.41,1,.81,1.41,1.25s.87.91,1.32,1.36q-.57-.75-1.17-1.5c-.42-.48-.87-.93-1.3-1.4a28.82,28.82,0,0,0-3-2.45,33.67,33.67,0,0,0-6.7-3.7A38.16,38.16,0,0,0,108.21,68.38Z" style="fill:#455a64"></path><path d="M375.42,406.58l-2.64.1c-.44,0-.88,0-1.33,0l-1.32,0-2.64-.05c-.88-.05-1.76-.13-2.64-.2-1.76-.09-3.49-.42-5.24-.65a64.9,64.9,0,0,1-10.19-2.64,60.28,60.28,0,0,1-9.57-4.37,67,67,0,0,1-16.38-13.15,74.82,74.82,0,0,1-6.58-8.27,65.1,65.1,0,0,1-5.37-9.12A67.58,67.58,0,0,0,323,386.09a65.53,65.53,0,0,0,16.45,13.47,60.71,60.71,0,0,0,9.74,4.36l2.54.83c.86.25,1.72.45,2.58.68l1.3.33,1.31.25c.88.15,1.75.33,2.63.46,1.76.19,3.52.49,5.3.54l2.66.14,2.66,0,1.33,0c.45,0,.89-.06,1.33-.09l2.65-.2c1.77-.16,3.52-.46,5.27-.69l-2.65.24C377.18,406.43,376.31,406.58,375.42,406.58Z" style="fill:#455a64"></path><path d="M364.87,414.23a68.35,68.35,0,0,1-14.08-.62,55,55,0,0,1-13.57-3.7,16.49,16.49,0,0,1-1.61-.72l-1.6-.76c-.52-.27-1-.57-1.54-.86s-1-.56-1.51-.9a34.9,34.9,0,0,1-5.6-4.33,27.25,27.25,0,0,0,2.55,2.49c.45.38.88.8,1.37,1.15l1.44,1a16.71,16.71,0,0,0,1.5,1c.51.31,1,.64,1.53.93l1.58.83c.53.28,1.06.55,1.61.78a53.28,53.28,0,0,0,13.72,4,64.8,64.8,0,0,0,14.26.42c2.37-.26,4.74-.5,7.07-1s4.63-1,6.92-1.64c-2.34.4-4.64,1-7,1.21S367.22,414.05,364.87,414.23Z" style="fill:#455a64"></path><path d="M330.47,110.58c.61-.75,1.32-1.41,2-2.1.34-.33.71-.65,1.07-1a13.87,13.87,0,0,1,1.1-.93,36.34,36.34,0,0,1,9.95-5.74A46.07,46.07,0,0,1,355.75,98a53,53,0,0,1,5.78-.48,49,49,0,0,1,5.81.11,45.06,45.06,0,0,0-11.66-.23,44.31,44.31,0,0,0-11.39,2.71,35.16,35.16,0,0,0-10.05,6,32.45,32.45,0,0,0-7.3,9.07A37.75,37.75,0,0,1,330.47,110.58Z" style="fill:#455a64"></path><path d="M348.1,107.76a33.69,33.69,0,0,0-6.36,4.27,28.78,28.78,0,0,0-2.72,2.69c-.4.51-.81,1-1.18,1.51s-.7,1.06-1,1.6q.61-.73,1.2-1.47c.42-.48.87-.92,1.3-1.38a27.64,27.64,0,0,1,2.82-2.48,42,42,0,0,1,6.34-4,50.4,50.4,0,0,1,6.92-3,37.49,37.49,0,0,1,3.62-1,27.39,27.39,0,0,1,3.72-.69,26.4,26.4,0,0,0-7.52,1.17A38.54,38.54,0,0,0,348.1,107.76Z" style="fill:#455a64"></path></g></g></svg>