<svg xmlns="http://www.w3.org/2000/svg" version="1.1" xmlns:xlink="http://www.w3.org/1999/xlink" xmlns:svgjs="http://svgjs.dev/svgjs" width="1000" height="159" viewBox="0 0 1000 159"><g transform="matrix(1,0,0,1,-0.6060606060606233,0.437466554589065)"><svg viewBox="0 0 396 63" data-background-color="#ffffff" preserveAspectRatio="xMidYMid meet" height="159" width="1000" xmlns="http://www.w3.org/2000/svg" xmlns:xlink="http://www.w3.org/1999/xlink"><g id="tight-bounds" transform="matrix(1,0,0,1,0.2400000000000091,-0.17326432313876694)"><svg viewBox="0 0 395.52 63.346601407797024" height="63.346601407797024" width="395.52"><g><svg viewBox="0 0 395.52 63.346601407797024" height="63.346601407797024" width="395.52"><g><svg viewBox="0 0 395.52 63.346601407797024" height="63.346601407797024" width="395.52"><g><svg viewBox="0 0 395.52 63.346601407797024" height="63.346601407797024" width="395.52"><g><svg viewBox="0 0 395.52 63.346601407797024" height="63.346601407797024" width="395.52"><g transform="matrix(1,0,0,1,0,0)"><svg width="395.52" viewBox="3.6 -32.102343791655 201.98000000000002 32.352343791655" height="63.346601407797024" data-palette-color="#a3a380"><path d="M32.45-31.6Q33.15-31.6 34.18-30.68 35.2-29.75 35.2-29.1L35.2-29.1Q35.2-26.05 35-20.75L35-20.75Q34.95-19.45 34.9-17.63 34.85-15.8 34.85-13.4L34.85-13.4Q34.85-5.8 35.75-2.2L35.75-2.2Q35.7-1 34.8-0.48 33.9 0.05 33 0.05L33 0.05Q31 0.05 30.38-1.35 29.75-2.75 29.75-5.35L29.75-5.35Q29.75-15 29.95-23.1L29.95-23.1Q24.2-16.7 21-12.35L21-12.35Q21-12.35 20.1-11.75L20.1-11.75Q19.25-11 18.7-11L18.7-11Q17.4-11 16.55-11.65 15.7-12.3 14.9-13.55L14.9-13.55 12.5-16.95Q10-20.45 8.85-22.25L8.85-22.25Q8.85-17.65 9.3-9.75L9.3-9.75Q9.65-5.2 9.65-2.9L9.65-2.9Q9.65-1.7 9.05-0.88 8.45-0.05 7.15-0.05L7.15-0.05Q5.85-0.05 5.03-0.55 4.2-1.05 4.15-2.05L4.15-2.05Q4.2-2.9 4.2-4.85L4.2-4.85Q4.2-8.75 3.95-14.35L3.95-14.35 3.85-17.05 3.75-20.55Q3.7-22.1 3.65-24.18 3.6-26.25 3.6-28.7L3.6-28.7Q3.6-31.7 6.85-31.7L6.85-31.7Q7.85-31.7 8.88-31.2 9.9-30.7 10.4-29.75L10.4-29.75Q10.8-28 13.35-23.95 15.9-19.9 18.35-16.35L18.35-16.35Q20.55-19.15 21.95-20.55L21.95-20.55Q24.35-23 25.93-25.1 27.5-27.2 29.35-30.15L29.35-30.15Q29.8-30.75 30.65-31.18 31.5-31.6 32.45-31.6L32.45-31.6ZM41.55-10.6Q41.55-12.5 42.25-14.43 42.95-16.35 44.1-17.95L44.1-17.95Q45.25-19.55 47.75-20.58 50.25-21.6 52.2-21.6L52.2-21.6Q54.2-21.6 56.27-21.05 58.35-20.5 59.15-19.35L59.15-19.35Q61-16.75 61-14.25L61-14.25Q61-12.9 60.42-11.95 59.85-11 58.8-9.9L58.8-9.9Q57.95-9 56.12-8.7 54.3-8.4 52.5-8.4L52.5-8.4Q51.35-8.4 49.7-8.63 48.05-8.85 46.5-9.2L46.5-9.2Q46.6-8.2 47-7.25 47.4-6.3 47.95-5.8L47.95-5.8Q48.95-4.85 50.02-4.6 51.1-4.35 52.8-4.35L52.8-4.35Q54.6-4.35 56.15-4.95L56.15-4.95Q57.4-5.4 58.2-5.4L58.2-5.4Q59.15-5.4 59.65-4.83 60.15-4.25 60.15-3.35L60.15-3.35Q60.15-2.1 58.7-1.3 57.25-0.5 55.37-0.13 53.5 0.25 52.35 0.25L52.35 0.25Q50 0.25 47.8-0.6 45.6-1.45 44.15-3L44.15-3Q42.95-4.4 42.25-6.38 41.55-8.35 41.55-10.6L41.55-10.6ZM52.45-17.35Q51.35-17.35 50.25-16.93 49.15-16.5 48.45-15.75L48.45-15.75Q47.55-14.8 47.22-14.23 46.9-13.65 46.8-12.65L46.8-12.65Q48.05-12.25 52-12.25L52-12.25Q54.15-12.25 55.32-12.9 56.5-13.55 56.5-14.6L56.5-14.6Q56.5-15.65 55.2-16.5 53.9-17.35 52.45-17.35L52.45-17.35ZM97.35-1.75Q96.6-3.15 96.4-4.88 96.2-6.6 96.2-9.65L96.2-9.65Q96.2-12.55 95.4-14.7 94.6-16.85 92.1-16.85L92.1-16.85Q91.15-16.85 90.22-16.28 89.3-15.7 88.85-14.85L88.85-14.85Q88.15-13.5 87.9-11.93 87.65-10.35 87.65-8.3L87.65-8.3Q87.65-7 87.8-5.65L87.8-5.65Q87.8-5.25 87.87-4.38 87.95-3.5 87.95-2.8L87.95-2.8Q87.95 0.2 85.85 0.2L85.85 0.2Q83.1 0.2 82.95-2.7L82.95-2.7Q82.95-4.75 83-4.9L83-4.9 83-7.05Q83-8.85 82.85-10.55 82.7-12.25 82.5-13.1L82.5-13.1Q82.05-14.75 81.32-15.65 80.6-16.55 79.05-16.55L79.05-16.55Q76.85-16.55 75.5-14.65L75.5-14.65Q74.55-13.15 74.25-11L74.25-11Q73.95-8.25 73.82-6.68 73.7-5.1 73.7-3.05L73.7-3.05Q73.7-1.6 73.22-0.7 72.75 0.2 71.45 0.2L71.45 0.2Q70.5 0.2 69.47-0.33 68.45-0.85 68.45-1.75L68.45-1.75Q68.45-2.7 68.65-3.65L68.65-3.65Q69.1-6.5 69.1-13.85L69.1-13.85Q69.1-15.05 68.52-16.18 67.95-17.3 67.15-17.3L67.15-17.3Q66.95-17.3 66.42-17.1 65.9-16.9 65.65-16.9L65.65-16.9Q65-16.9 64.47-17.5 63.95-18.1 63.95-18.5L63.95-18.5Q63.95-19.75 65.17-20.63 66.4-21.5 67.75-21.5L67.75-21.5Q69.6-21.5 70.9-20.35 72.2-19.2 72.9-17.15L72.9-17.15Q74.05-19.15 76-20.38 77.95-21.6 80.35-21.6L80.35-21.6Q81.85-21.6 82.77-21.23 83.7-20.85 84.3-20.18 84.9-19.5 85.85-18.15L85.85-18.15Q87.1-19.75 89.07-20.65 91.05-21.55 93.15-21.55L93.15-21.55Q95.65-21.55 97.65-19.53 99.65-17.5 100.35-14.85L100.35-14.85Q100.7-13.5 100.7-9.65L100.7-9.65 100.9-6.75Q101.15-4.15 102.6-3.6L102.6-3.6Q104.3-3.1 104.3-2.55L104.3-2.55Q104.3-1.35 103.7-0.8L103.7-0.8Q103.25-0.5 102.45-0.15 101.65 0.2 101.2 0.2L101.2 0.2Q98.5 0.2 97.35-1.75L97.35-1.75ZM127.64-16.05Q128.04-15.35 128.29-14.03 128.54-12.7 128.54-11.65L128.54-11.65Q128.54-9.7 127.69-6.1L127.69-6.1Q124.24 0.2 117.49 0.2L117.49 0.2Q114.99 0.2 112.39-1.45 109.79-3.1 108.79-5.25L108.79-5.25Q107.44-9.55 107.44-10.7L107.44-10.7Q107.44-12.7 108.32-14.95 109.19-17.2 110.54-18.85L110.54-18.85Q111.39-20 113.59-20.83 115.79-21.65 117.59-21.65L117.59-21.65Q121.09-21.65 123.54-20.33 125.99-19 127.64-16.05L127.64-16.05ZM123.29-8Q123.54-8.65 123.54-11.35L123.54-11.35Q123.54-12.8 123.02-14.2 122.49-15.6 121.49-16.6L121.49-16.6Q121.39-16.7 120.94-16.93 120.49-17.15 119.72-17.38 118.94-17.6 117.94-17.6L117.94-17.6Q115.14-17.6 113.84-15.35 112.54-13.1 112.54-10.25L112.54-10.25Q112.54-9.75 112.82-8.35 113.09-6.95 113.29-6.6L113.29-6.6Q113.44-6.25 114.07-5.63 114.69-5 115.62-4.53 116.54-4.05 117.54-4.05L117.54-4.05Q119.79-4.05 121.14-5.13 122.49-6.2 123.29-8L123.29-8ZM140.84-2Q140.84-1.15 140.19-0.5 139.54 0.15 138.59 0.15L138.59 0.15Q137.09 0.15 136.39-0.43 135.69-1 135.69-2.55L135.69-2.55Q135.69-4.4 135.59-7.4L135.59-7.4Q135.49-9.9 135.49-11.6L135.49-11.6Q135.49-12.4 135.59-13.7L135.59-13.7Q135.69-14.9 135.69-15.5L135.69-15.5Q135.54-16.45 134.94-17.07 134.34-17.7 133.39-17.7L133.39-17.7Q132.94-17.7 132.64-18.13 132.34-18.55 132.34-19L132.34-19Q132.34-20.15 133.27-20.75 134.19-21.35 135.49-21.35L135.49-21.35Q138.19-21.35 139.24-18.15L139.24-18.15Q140.54-19.65 142.22-20.58 143.89-21.5 145.44-21.5L145.44-21.5Q147.29-21.5 148.82-20.5 150.34-19.5 150.34-17.8L150.34-17.8Q150.34-16.85 149.52-15.85 148.69-14.85 147.84-14.85L147.84-14.85Q147.39-14.85 147.07-15.08 146.74-15.3 146.29-15.75L146.29-15.75Q145.79-16.25 145.44-16.48 145.09-16.7 144.64-16.7L144.64-16.7Q143.84-16.7 143.14-16.45 142.44-16.2 142.19-15.85L142.19-15.85Q141.39-14.6 141.02-13.6 140.64-12.6 140.64-11.45L140.64-11.45Q140.64-10.6 140.59-10.1L140.59-10.1 140.54-7.25Q140.54-6.6 140.59-5.8 140.64-5 140.69-4.6L140.69-4.6Q140.84-3.25 140.84-2L140.84-2ZM155.84-32.1Q157.59-31.95 158.89-31.18 160.19-30.4 160.19-28.85L160.19-28.85Q160.19-27.7 159.11-27.03 158.04-26.35 156.54-26.35L156.54-26.35Q155.09-26.35 154.54-27.1 153.99-27.85 153.99-28.65L153.99-28.65Q153.99-30.15 154.31-31.15 154.64-32.15 155.84-32.1L155.84-32.1ZM159.84-18.95L159.84-9.95 159.84-8.5Q159.84-6.55 159.96-4.83 160.09-3.1 160.29-1.35L160.29-1.35Q160.24-0.85 159.54-0.33 158.84 0.2 158.29 0.2L158.29 0.2Q157.34 0.2 156.36-0.18 155.39-0.55 155.19-1.1L155.19-1.1Q154.89-2.7 154.89-3.95L154.89-3.95Q154.89-8.05 154.64-13.15L154.64-13.15Q154.44-17.65 154.44-19.45L154.44-19.45Q154.44-20.35 155.34-21 156.24-21.65 157.24-21.65L157.24-21.65Q158.69-21.65 159.26-21 159.84-20.35 159.84-18.95L159.84-18.95ZM168.49-17.1L166.09-17.3Q165.39-17.4 164.96-17.9 164.54-18.4 164.54-19.1L164.54-19.1Q164.54-19.45 164.71-19.85 164.89-20.25 165.24-20.55L165.24-20.55Q165.89-21.2 168.74-21.2L168.74-21.2Q169.14-23.15 169.14-25.15L169.14-25.15Q169.14-25.9 169.09-26.45 169.04-27 169.04-27.3L169.04-27.3Q169.04-28.4 169.86-28.95 170.69-29.5 171.74-29.5L171.74-29.5Q173.04-29.5 173.51-28.85 173.99-28.2 173.99-26.45L173.99-26.45Q173.99-23.85 173.54-21.35L173.54-21.35Q174.34-21.35 175.74-21.45L175.74-21.45Q177.64-21.55 178.49-21.55L178.49-21.55Q179.34-21.55 179.96-21.13 180.59-20.7 180.59-19.95L180.59-19.95Q180.59-18 178.84-17.65L178.84-17.65Q176.99-17.2 173.09-17.1L173.09-17.1Q172.94-15.15 172.94-12.85L172.94-12.85Q172.94-9.25 173.39-6.95L173.39-6.95Q173.69-5.35 174.41-4.63 175.14-3.9 176.59-3.9L176.59-3.9Q177.44-3.9 178.34-4.35L178.34-4.35Q178.94-4.7 179.44-4.7L179.44-4.7Q180.14-4.7 180.46-4.25 180.79-3.8 180.79-3.05L180.79-3.05Q180.79-1.65 179.29-0.73 177.79 0.2 175.44 0.2L175.44 0.2Q173.99 0.2 172.51-0.5 171.04-1.2 170.04-2.25L170.04-2.25Q169.89-2.4 169.49-3.4 169.09-4.4 168.79-5.55L168.79-5.55Q168.29-7.9 168.29-12.15L168.29-12.15Q168.29-14 168.49-17.1L168.49-17.1ZM204.68-16.05Q205.08-15.35 205.33-14.03 205.58-12.7 205.58-11.65L205.58-11.65Q205.58-9.7 204.73-6.1L204.73-6.1Q201.28 0.2 194.53 0.2L194.53 0.2Q192.03 0.2 189.43-1.45 186.83-3.1 185.83-5.25L185.83-5.25Q184.48-9.55 184.48-10.7L184.48-10.7Q184.48-12.7 185.36-14.95 186.23-17.2 187.58-18.85L187.58-18.85Q188.43-20 190.63-20.83 192.83-21.65 194.63-21.65L194.63-21.65Q198.13-21.65 200.58-20.33 203.03-19 204.68-16.05L204.68-16.05ZM200.33-8Q200.58-8.65 200.58-11.35L200.58-11.35Q200.58-12.8 200.06-14.2 199.53-15.6 198.53-16.6L198.53-16.6Q198.43-16.7 197.98-16.93 197.53-17.15 196.76-17.38 195.98-17.6 194.98-17.6L194.98-17.6Q192.18-17.6 190.88-15.35 189.58-13.1 189.58-10.25L189.58-10.25Q189.58-9.75 189.86-8.35 190.13-6.95 190.33-6.6L190.33-6.6Q190.48-6.25 191.11-5.63 191.73-5 192.66-4.53 193.58-4.05 194.58-4.05L194.58-4.05Q196.83-4.05 198.18-5.13 199.53-6.2 200.33-8L200.33-8Z" opacity="1" transform="matrix(1,0,0,1,0,0)" fill="#a3a380" class="undefined-text-0" data-fill-palette-color="primary" id="text-0"></path></svg></g></svg></g></svg></g></svg></g><g></g></svg></g><defs></defs></svg><rect width="395.52" height="63.346601407797024" fill="none" stroke="none" visibility="hidden"></rect></g></svg></g></svg>