<svg xmlns="http://www.w3.org/2000/svg" viewBox="0 0 500 500"><g id="freepik--background-complete--inject-41"><path d="M453.88,140.28H344.12s10.88-29.72,27.63-29.72,22,20.51,22,20.51,11.3-11.14,20.59-11.14,17.35,14.73,17.35,14.73S444.8,126.74,453.88,140.28Z" style="fill:#ebebeb"></path><path d="M392.44,81.49H341.15s11.46-16.6,20.49-16.6S373.34,76,373.34,76s6.37-5.17,12.28-4.25S392.44,81.49,392.44,81.49Z" style="fill:#ebebeb"></path><path d="M97.42,264.69H46.12s11.46-16.61,20.49-16.61,11.7,11.07,11.7,11.07,6.37-5.17,12.28-4.24S97.42,264.69,97.42,264.69Z" style="fill:#ebebeb"></path><path d="M138,159H86.66s11.46-16.6,20.49-16.6,11.7,11.07,11.7,11.07,6.37-5.17,12.28-4.25S138,159,138,159Z" style="fill:#ebebeb"></path><path d="M154,111.54H54S67.72,81,82.35,79.08,104,101.78,104,101.78s9.44-8.7,16.86-8.7S134,104.54,134,104.54,148.86,96.69,154,111.54Z" style="fill:#ebebeb"></path><path d="M248.91,55.86h-67.5S193,33.73,205.58,33.41s19.19,16.75,19.19,16.75S244.34,34.45,248.91,55.86Z" style="fill:#ebebeb"></path><path d="M441.83,235.79H374.34s11.59-22.13,24.17-22.45,19.19,16.75,19.19,16.75S437.26,214.38,441.83,235.79Z" style="fill:#ebebeb"></path></g><g id="freepik--Shadow--inject-41"><ellipse cx="250" cy="429.76" rx="202.9" ry="30" style="fill:#ebebeb"></ellipse></g><g id="freepik--Plants--inject-41"><path d="M86.68,298c-8.16.28-17.26.75-24-4.54-6.24-4.88-11.8-12.16-11-20.52.24-2.38.79-3.85,3.34-2.83,3.89,1.55,6.89,5.84,9.58,8.85A82.64,82.64,0,0,0,75.93,289.7c2.9,2.23,6,4.15,9,6.31.37.26.74.53,1.11.82.14.1.28.2.42.32h.23a.43.43,0,0,1,.34.18.35.35,0,0,1,.06.14A.43.43,0,0,1,86.68,298Z" style="fill:#FFC727"></path><path d="M87.08,297.47c-7.17-.13-14.91.2-20.64-4.67a33,33,0,0,1-6.66-8.09c-.83-1.35-3.32-5.37-2.29-7,1.87-2.9,10.41,8.91,11.59,10A35,35,0,0,0,84.92,296c.37.26.74.53,1.11.82a39,39,0,0,1-11.89-4.57c-5.09-3-7.92-7.52-11.91-11.71-.86-.91-3.45-4-4.43-2.06-.64,1.25,1.76,5.19,2.27,6a33.14,33.14,0,0,0,6.3,7.69c5.72,5,13.42,4.82,20.65,5.12A.35.35,0,0,1,87.08,297.47Z" style="fill:#fff"></path><path d="M91.18,303c-.07.32-.13.63-.2.95,0,0,0,0,0,0a.22.22,0,0,1-.15.16.34.34,0,0,1-.43-.16.34.34,0,0,1,0-.2.93.93,0,0,1,0-.13l.09-.27,0,0s0-.06,0-.09c-1.45-5.4-2-11-3.53-16.41-1.45-5.15-3.26-10.21-4.31-15.47-.66-3.32-3-20,4.37-17.89,3.25.92,5.47,5.63,6.71,8.44a34.47,34.47,0,0,1,2.7,12C97,284,93.23,293.25,91.18,303Z" style="fill:#FFC727"></path><path d="M93.53,282.26A40.1,40.1,0,0,0,92.35,271c-.33-1.28-1.92-7.4-4-7.25-1.34.09-1.56,2.73-1.68,3.6-.47,3.71.74,7.49,1.46,11.09a152.8,152.8,0,0,1,2.69,22.23c-.06.47-.14.95-.19,1.42s-.1.78-.15,1.18c0,.13,0,.26,0,.4a2.79,2.79,0,0,0,0,.32.35.35,0,0,0,.43.16c0-.3.09-.61.13-.91,0,.25,0,.49,0,.75,0,0,0,0,0,0,0-.26.1-.52.16-.77l0-.18c0-.41,0-.83,0-1.24C92.08,295.26,93.36,288.81,93.53,282.26Zm-2.48,16.8c-.21-4.36-.64-8.71-1.26-13-.49-3.49-1.15-6.95-1.88-10.39a34.4,34.4,0,0,1-.93-5.89c-.07-1.52.15-7.13,3-3.65,2.09,2.53,2.59,7.9,2.85,11a56.61,56.61,0,0,1-.2,10.33C92.27,291.32,91.63,295.19,91.05,299.06Z" style="fill:#fff"></path><path d="M95.57,325.37h0l-.3,0c-7.45-.37-17.39.33-23.6-4.61-4.58-3.64-9.08-10.85-7.63-17,1.65-6.89,11,1.38,13.41,3.37A227.17,227.17,0,0,1,95.72,325a.6.6,0,0,1,.09.13l0,0C95.89,325.26,95.74,325.33,95.57,325.37Z" style="fill:#FFC727"></path><path d="M95.83,325.15c-.43-.27-.86-.53-1.29-.81-4.91-3.09-9.69-6.39-14.28-9.91-1.16-.89-9.56-8.36-10.82-5.69-.76,1.61,2,4.9,2.89,6A23,23,0,0,0,78,319.81c5,3.1,11,3.77,16.63,5.26a7.69,7.69,0,0,1,.79.21l.14.08h0C95.74,325.33,95.89,325.26,95.83,325.15ZM81.07,320.9a23.14,23.14,0,0,1-6.44-4.35c-1.25-1.19-5.66-5.65-4.49-7.49.62-1,1.14-.45,2.33.13a14.42,14.42,0,0,1,1.58.91c1.25.82,2.4,1.78,3.57,2.71,2,1.64,4.12,3.22,6.24,4.76,3.47,2.53,7,4.91,10.68,7.17C90.06,323.37,85.33,322.82,81.07,320.9Z" style="fill:#fff"></path><path d="M109.19,310a44.1,44.1,0,0,1-12.78,22.33.34.34,0,0,1-.14.08.34.34,0,0,1-.38-.14.32.32,0,0,1,0-.43l.38-.38c1.23-10.14,2.59-20.22,3.64-30.39.24-2.4,2.12-17.65,6.8-15.17,2.9,1.54,3.09,7.79,3.34,10.59A44.45,44.45,0,0,1,109.19,310Z" style="fill:#FFC727"></path><path d="M106.49,296.41c-.26-.85-.7-1.72-1.65-1.13-1.82,1.14-2.54,8.31-2.84,10.29-1.25,8.19-3.19,16.05-5.16,24.06-.17.67-.33,1.35-.5,2l-.45.61a.34.34,0,0,0,.38.14l.06-.21c.2-.26.42-.54.61-.82h0A52,52,0,0,0,104.32,317a49,49,0,0,0,2.18-10C106.85,303.82,107.43,299.48,106.49,296.41Zm-9.58,34.42c-.08.14-.19.26-.27.4.08-.28.17-.54.25-.82a147.25,147.25,0,0,0,4.56-18.61c.55-3.2.89-6.43,1.55-9.6.27-1.34.93-5.17,2-5.79s1.09.87,1.21,1.73c.07.62.07,1.74.08,2.33A51.37,51.37,0,0,1,96.91,330.83Z" style="fill:#fff"></path><path d="M97.65,354.19H96.16l-.09-3.93c-.18-5.3-.4-10.59-.71-15.89-.18-3-.39-6-.71-9,0-.1,0-.21,0-.31s-.07-.48-.09-.73-.07-.52-.1-.78a64,64,0,0,0-5.13-19.48c-.94-2.06-2-4.07-3.07-6.07l-.31-.57a1.19,1.19,0,0,0-.09-.15c-.1-.2-.22-.39-.33-.59l-.25-.44c-3.46-6.07-7.4-11.88-11.14-17.72q-1.62-2.51-3.2-5a1.44,1.44,0,0,1-.19-.31,2.82,2.82,0,0,1-.24-.36c-4.71-7.43-9.34-14.91-14.22-22.19-.19-.27.26-.51.43-.24,3.3,4.83,6.72,9.58,10.11,14.36.45.63.89,1.28,1.35,1.91.9,1.26,1.78,2.52,2.67,3.78,1.77,2.53,3.51,5.06,5.22,7.62,4.8,7.2,9.83,14.46,13.73,22.22.29.58.57,1.17.85,1.76.18.37.35.73.51,1.1s.39.85.58,1.28c3.31,7.6,4.49,15.42,5,23.49,0,.56.07,1.13.1,1.7,0,.25,0,.51,0,.78s0,.28,0,.42,0,.35,0,.54h0c0,.13,0,.27,0,.41,0,.48,0,1,.07,1.45.21,5.3.35,10.6.46,15.88C97.52,350.81,97.58,352.5,97.65,354.19Z" style="fill:#FFC727"></path><path d="M53.13,258.21c-4.09-5.49-9.32-16.82-3.3-22.71a6.41,6.41,0,0,1,8.53-.63c3.18,2.3,4.6,6.65,5.63,10.25,2.76,9.6,4.59,19.39,8,28.81.06.06.29.8.38,1s-.24.28-.31.09-.23-.62-.35-.92C65.24,269.39,58,264.73,53.13,258.21Z" style="fill:#FFC727"></path><path d="M72.08,274c0-.05-.06-.11-.1-.16a68.56,68.56,0,0,1-3.82-7.11A136.68,136.68,0,0,1,62.29,251c-.65-2.06-3.59-12.15-7.19-8.13-1.52,1.69-1.3,4.69-1.06,6.76A25.23,25.23,0,0,0,57.17,259c3.24,5.83,8.27,10.24,13.56,14.16l.72.55.15.25a1.06,1.06,0,0,0,.1.17s0,.06.09.07a.22.22,0,0,0,.31-.14A.14.14,0,0,0,72.08,274Zm-1.59-1.11c-4.26-3.37-8.43-7-11.5-11.53a28.55,28.55,0,0,1-3.74-7.64,22.31,22.31,0,0,1-.81-3.71,15.71,15.71,0,0,1-.16-2.83c.06-2.07.92-4.34,2.15-4.55,1.51-.28,2,.61,3,2.35a17.09,17.09,0,0,1,.9,1.82c.67,1.56,1.18,3.18,1.69,4.78.85,2.67,1.71,5.32,2.67,8,.64,1.79,1.34,3.56,2.1,5.29a70.68,70.68,0,0,0,4.47,8.7Z" style="fill:#fff"></path><path d="M414,273.56c-.68,5.45-1.72,10.84-2.82,16.21-.62,3-1.28,6.08-1.89,9.14-.68,3.35-1.68,6.78-.77,10.17h0a2,2,0,0,1,0,.47l0,.06a.41.41,0,0,1-.71-.12l-.06-.23-.05-.07a13.26,13.26,0,0,1-1.17-2.82,70.27,70.27,0,0,1-2.71-7.87,67.67,67.67,0,0,1-2.64-16.79,57,57,0,0,1,1.58-15.12c1-4,2.35-9.85,5.29-12.88,2.68-2.73,4.9,1.65,5.67,3.87C415.49,262.61,414.66,268.41,414,273.56Z" style="fill:#FFC727"></path><path d="M409.14,262c-2,0-3.42,6.41-4.13,9.18a54.72,54.72,0,0,0-1.69,13.36,71.3,71.3,0,0,0,4.11,23.72c.1.3.2.62.31.92,0,0,0,.05.05.08s0,.14.07.21a.4.4,0,0,0,.7.13c-.12-.67-.22-1.33-.3-2s-.14-1.2-.18-1.79c-.54-6.52.39-13.18,1.22-19.64C410.26,278.59,411.77,262,409.14,262Zm-1.42,45.08c.1.89.24,1.76.4,2.62-.2-.63-.4-1.26-.59-1.9a79.24,79.24,0,0,1-3.75-20.92,57.23,57.23,0,0,1,.88-12,51.51,51.51,0,0,1,1.54-6.26c.28-.86,1.72-6.22,2.94-6,.86.19,1.07,5,1.08,5.12,0,1,0,1.93,0,2.91,0,2-.17,4-.33,6-.38,4.31-1,8.61-1.52,12.91C407.72,295.36,407.05,301.33,407.72,307.09Z" style="fill:#fff"></path><path d="M445.27,288.6c-3.64,7.1-9.78,12.55-16.12,17.22-3.4,2.49-6.91,4.83-10.36,7.25-2.89,2-6.39,4.16-9,6.88-.11.12-.23.24-.34.37a15.33,15.33,0,0,0-1.86,2.56.2.2,0,0,1-.17.11,1.66,1.66,0,0,1-.12.31.07.07,0,0,1-.14,0c0-.11,0-.24,0-.35s0,0,0,0a.22.22,0,0,1,0-.27.6.6,0,0,1,.06-.11c0-.12,0-.24.05-.35,1-8.31,6.85-16.71,11.76-23.11s11-12.05,18.57-15c1.91-.74,6.24-2.76,8.18-1.21C447.63,284.29,446.05,287.09,445.27,288.6Z" style="fill:#FFC727"></path><path d="M439.64,288.63c-1.73-1.73-6.82,2.54-8.1,3.54A85.22,85.22,0,0,0,421,302.43c-5.38,6-10.19,12.2-13.46,19.48h0l-.18.23a2.39,2.39,0,0,0-.05.36.24.24,0,0,0-.06.11.22.22,0,0,0,0,.28l.25-.29c.64-.79,1.31-1.55,2-2.29.11-.13.23-.25.34-.37,4.75-5.12,10.37-9.43,15.77-13.92a78.42,78.42,0,0,0,10.49-10.2C436.9,294.86,441.1,290.08,439.64,288.63Zm-1.59,3.81c-4.3,7.13-11.75,12.34-18.07,17.54a85.73,85.73,0,0,0-12,11.39c3.18-6.44,7.74-12.23,12.46-17.53A107.87,107.87,0,0,1,429,295a45.24,45.24,0,0,1,5.19-4.16,17.79,17.79,0,0,1,3.52-1.9C440.12,288.26,438.78,291.21,438.05,292.44Z" style="fill:#fff"></path><path d="M406.49,339.81a.47.47,0,0,1-.37.21l.09.13a.12.12,0,0,1,0,.17.12.12,0,0,1-.18,0c-6.73-6.85-13.23-15.18-16.58-24.26A37.61,37.61,0,0,1,387,304.11c-.07-2.8-.22-8.43,2.17-10.47,4.82-4.09,9.21,13.28,9.86,15.9,1.19,4.78,2,9.64,3.08,14.44,1.2,5.25,2.79,10.4,4.37,15.55A.38.38,0,0,1,406.49,339.81Z" style="fill:#FFC727"></path><path d="M406.49,339.8c-.27-.44-.52-.88-.76-1.34a80.61,80.61,0,0,1-8.67-23.34,75.7,75.7,0,0,0-3.2-12.15c-.39-1-1.6-4.67-3.19-2.79-.82,1-.14,8,.19,9.8a51.47,51.47,0,0,0,3.91,11.93,84.26,84.26,0,0,0,11,17.93c.12.17.25.33.38.48a.12.12,0,0,0,0-.17s-.06-.08-.09-.13A.44.44,0,0,0,406.49,339.8Zm-9.77-14.93a58.82,58.82,0,0,1-4.63-11.58,42.5,42.5,0,0,1-1-4.87,25.4,25.4,0,0,1-.33-3.88c0-3.18.27-4,.81-4.11.32-.06.78.28,1.72,2.17a21,21,0,0,1,1.35,3.86c.49,1.87.92,3.76,1.33,5.65.82,3.78,1.59,7.59,2.69,11.29a62.39,62.39,0,0,0,6.69,15.19A95.28,95.28,0,0,1,396.72,324.87Z" style="fill:#fff"></path><path d="M428.09,323.15a23.78,23.78,0,0,1-4.42,9.18c-4,5.53-9.11,10.11-13.47,15.33-.65.78-1.29,1.58-1.91,2.39-.06.09-.56,1.25-.56,1.15s.08-.46.23-1.2h0c.7-3.66,3-14.7,5.86-20.34a49,49,0,0,1,6.38-10c1.24-1.4,4.15-4.43,6.34-3.77C428.89,316.61,428.43,321.39,428.09,323.15Z" style="fill:#FFC727"></path><path d="M424.53,320.91c-2.34-1.45-8.37,9.32-9.18,10.71a69.07,69.07,0,0,0-6.88,16.43c-.19.64-.35,1.29-.51,1.95s-.23,1.17-.23,1.2.5-1.05.57-1.15l.31-.42c.52-.67,1.05-1.33,1.58-2,2.62-3.92,5.32-7.8,7.86-11.79a64,64,0,0,0,4.87-8.95C423.22,326.22,425.56,321.55,424.53,320.91Zm-.67,3c-3.32,9.37-10.11,16.75-15.3,25.07l-.25.41c.08-.24.14-.5.22-.74A77.45,77.45,0,0,1,414,335a74.48,74.48,0,0,1,4.62-7.71,37.71,37.71,0,0,1,2.89-4c.48-.53,1.86-1.93,2.32-1.69C424.53,321.92,424.08,323.33,423.86,324Z" style="fill:#fff"></path><path d="M451.58,245.81c-6.95,16-25.19,23.41-33.1,38.8a.2.2,0,0,1,0,.08c-.24.47-.47.95-.69,1.43a.31.31,0,0,1-.52.08.22.22,0,0,1,0-.26,2.72,2.72,0,0,1,.16-.35c1.23-9.6,5.17-19.48,9.76-27.95,4-7.36,9.46-14.25,17-18.12,1.86-1,5.51-3,7.6-1.4S452.44,243.84,451.58,245.81Z" style="fill:#FFC727"></path><path d="M445.32,246.5c-.88-.66-2.22.14-3,.53a26.77,26.77,0,0,0-5.28,3.6,44.34,44.34,0,0,0-8.4,10,90.53,90.53,0,0,0-9.92,20.09c-.53,1.6-1,3.22-1.38,4.87-.05.2-.08.4-.14.6a.34.34,0,0,0,.54-.07c.2-.48.43-.93.65-1.39l.07-.13a53.86,53.86,0,0,1,4.95-9.1c3.05-4.44,6.83-8.35,10.41-12.35C435.26,261.6,448.38,248.74,445.32,246.5Zm-1.11,3.69c-2.11,3.76-5.39,6.82-8.25,10s-5.8,6.41-8.63,9.68a60.55,60.55,0,0,0-6.08,8.3,46.23,46.23,0,0,0-3.81,7.69,65.93,65.93,0,0,1,2.72-8,.16.16,0,0,1,0-.09A119.46,119.46,0,0,1,427,264.35a1.29,1.29,0,0,1,.09-.16,54.64,54.64,0,0,1,7.69-10.74,31.16,31.16,0,0,1,5.47-4.65c2.29-1.48,4.29-2.44,4.86-1.71C445.44,247.6,444.84,249.09,444.21,250.19Z" style="fill:#fff"></path><path d="M427.3,264.53c-2.08,4.5-4.08,9.07-6.05,13.64q-1.41,3.22-2.77,6.44l-.07.13-1,2.32c-3,7-6.32,14.18-8.15,21.6a65.45,65.45,0,0,0-1.67,12c0,.42,0,.83-.06,1.25h0c0,.23,0,.46,0,.69s0,.25,0,.38c-.13,3.5-.07,7,0,10.43.09,4.77.49,9.5.95,14.21a3,3,0,0,0,0,.42l.06.64,0,.33c0,.2,0,.41.05.61.16,1.52.29,3,.42,4.56h-1.45a94,94,0,0,1-1.76-14.06,2.81,2.81,0,0,1,0-.29c0-.45-.07-.92-.08-1.38s-.06-1.12-.08-1.69c0-1.37-.08-2.72-.11-4.06-.14-7.79-.05-15.91,1.67-23.54l.15-.64a1.45,1.45,0,0,1,.07-.26,3.78,3.78,0,0,1,.1-.46l.19-.72c.11-.43.24-.86.36-1.27l.12-.38c2-6.67,5.16-13.13,8-19.39.53-1.15,1.06-2.29,1.6-3.43.31-.63.61-1.26.91-1.89l1.42-2.86a.16.16,0,0,1,0-.09c2.22-4.49,4.54-8.93,6.74-13.43C427.05,264.15,427.4,264.31,427.3,264.53Z" style="fill:#FFC727"></path></g><g id="freepik--Floor--inject-41"><polygon points="46.12 354.19 97.09 353.95 148.06 353.86 250 353.69 351.94 353.86 402.91 353.95 453.88 354.19 402.91 354.44 351.94 354.53 250 354.69 148.06 354.53 97.09 354.44 46.12 354.19" style="fill:#263238"></polygon></g><g id="freepik--pot-of-gold--inject-41"><path d="M335,200h0c-2.41-11-.31-21.74,5.93-30.15A34.79,34.79,0,0,1,366.66,156c21.5-1.69,42.86,14.53,47.6,36.19,2.41,11,.31,21.74-5.93,30.15a34.79,34.79,0,0,1-25.69,13.87c-1,.08-2.07.12-3.11.12C359.11,236.29,339.55,220.59,335,200Zm32.51-32.73a23.61,23.61,0,0,0-17.49,9.32c-4.26,5.75-5.67,13.2-4,21h0c3.41,15.56,18.07,27.42,33.34,27.41q1.15,0,2.31-.09a23.61,23.61,0,0,0,17.49-9.32c4.26-5.74,5.67-13.2,4-21-3.41-15.56-18.07-27.41-33.34-27.41Q368.7,167.16,367.55,167.25Z" style="fill:#FFC727"></path><path d="M335,200h0c-2.41-11-.31-21.74,5.93-30.15A34.79,34.79,0,0,1,366.66,156c21.5-1.69,42.86,14.53,47.6,36.19,2.41,11,.31,21.74-5.93,30.15a34.79,34.79,0,0,1-25.69,13.87c-1,.08-2.07.12-3.11.12C359.11,236.29,339.55,220.59,335,200Zm32.51-32.73a23.61,23.61,0,0,0-17.49,9.32c-4.26,5.75-5.67,13.2-4,21h0c3.41,15.56,18.07,27.42,33.34,27.41q1.15,0,2.31-.09a23.61,23.61,0,0,0,17.49-9.32c4.26-5.74,5.67-13.2,4-21-3.41-15.56-18.07-27.41-33.34-27.41Q368.7,167.16,367.55,167.25Z" style="opacity:0.1"></path><path d="M338.16,174.29c1.86,2.82,5.25,4.92,9.57,6.18a23.09,23.09,0,0,1,19.82-13.23c.77-.06,1.54-.08,2.32-.08a33,33,0,0,1,17.32,5.15c3.43-2.75,5.81-5.85,6.79-9A43.81,43.81,0,0,0,366.65,156,34.78,34.78,0,0,0,341,169.83,34.34,34.34,0,0,0,338.16,174.29Z" style="opacity:0.1"></path><path d="M402.2,171.47a49,49,0,0,1,7.28,11.08,44.44,44.44,0,0,1,4.06,12.84,33.85,33.85,0,0,1-.66,13.72,33.24,33.24,0,0,1-6.38,12.28l-1.12,1.32L404.15,224a32,32,0,0,1-2.59,2.34,30.44,30.44,0,0,1-5.95,3.69,31.22,31.22,0,0,1-13.49,2.78,43.56,43.56,0,0,1-13.28-2.35,49.54,49.54,0,0,1-11.9-5.86,67.43,67.43,0,0,0,12.42,4,48.31,48.31,0,0,0,12.69,1.12,28.53,28.53,0,0,0,21.36-10.79,30,30,0,0,0,5.83-10.77,33.13,33.13,0,0,0,1.21-12.33,49.32,49.32,0,0,0-2.77-12.45A67.32,67.32,0,0,0,402.2,171.47Z" style="fill:#fff;opacity:0.5"></path><ellipse cx="363.85" cy="161.44" rx="27.5" ry="11.64" transform="translate(-27.23 87.24) rotate(-13.18)" style="fill:#FFC727"></ellipse><ellipse cx="370.02" cy="157.86" rx="13.85" ry="5.86" transform="translate(-26.25 88.55) rotate(-13.18)" style="fill:#fff;opacity:0.30000000000000004"></ellipse><path d="M157.42,367.74c-1,17.22-29.16,18.62-34.08,21.44s-6,10.53-8.43,12.29a25.85,25.85,0,0,1-9.48,4.13c-11.57,2.62-24-1.81-23-8.34,1.25-8.44,17.35-7.38,18-21.43S105.43,347,121.58,340c6.24-2.71,12.94-1.93,18.86,1C150.4,345.91,158.09,357,157.42,367.74Z" style="fill:#37474f"></path><path d="M115,357.5c-4.47,13.55,3.42,20.76,0,27.3s-32.29,16.4-9.58,20.8c-11.57,2.62-24-1.81-23-8.34,1.25-8.44,17.35-7.38,18-21.43S105.43,347,121.58,340c6.24-2.71,12.94-1.93,18.86,1C140.44,341,119.93,342.59,115,357.5Z" style="fill:#263238"></path><path d="M408.78,405.47c-6.94,1.81-16.59,1.08-23.69-4-2.46-1.76-3.52-9.49-8.43-12.29s-33-4.22-34.08-21.44c-.83-13.44,11.29-27.25,24.62-29.19A20.5,20.5,0,0,1,378.42,340c16.15,7,20.37,21.78,21.07,35.84s16.81,13,18.06,21.43C418.11,401,414.3,404,408.78,405.47Z" style="fill:#37474f"></path><path d="M408.78,405.47c-6.94,1.81-16.59,1.08-23.69-4-2.46-1.76-3.52-9.49-8.43-12.29s-33-4.22-34.08-21.44c-.83-13.44,11.29-27.25,24.62-29.19-1.44,2.42-18.09,17.34-4.89,30.9,8.51,8.74,21.11,8.45,24.46,15.52S393.6,404.49,408.78,405.47Z" style="fill:#263238"></path><path d="M412.22,262.69c0,65.66-41,104.19-91.9,121.58h0c-22.39,7.66-46.7,11.23-70.3,11.23-77.34,0-162.22-38.29-162.22-132.81a161.3,161.3,0,0,1,6.35-46.09A139.59,139.59,0,0,1,101,198.17,166.16,166.16,0,0,1,121.37,165c5.08-6.61,9.49-11.83,12.16-16.08l.47-.77c3.8-6.47,2.19-18.27,2.19-18.27q12.84,3.44,25.49,6.17C230.82,151,296.56,150,363.81,129.89c0,0-1.61,11.8,2.19,18.27l.47.77c2.67,4.25,7.09,9.48,12.17,16.1A165.47,165.47,0,0,1,399,198.14a140.13,140.13,0,0,1,6.87,18.5A161.48,161.48,0,0,1,412.22,262.69Z" style="fill:#263238"></path><path d="M363.85,180.74a93.25,93.25,0,0,1,8.66,11.33,139,139,0,0,1,7.27,12.31,149.48,149.48,0,0,1,10.85,26.68,131.16,131.16,0,0,1,5.26,28.88,113.3,113.3,0,0,1,0,15c0,1.26-.19,2.51-.33,3.77s-.23,2.51-.43,3.76l-.6,3.76c-.08.61-.23,1.26-.38,1.92l-.43,1.95c-.53,2.63-1.43,5.14-2.21,7.68-1,2.46-1.88,5-3.08,7.3s-2.44,4.64-3.74,6.9-2.78,4.38-4.38,6.39a88.59,88.59,0,0,1-10.09,11.37c-1.79,1.76-3.69,3.37-5.57,5s-3.87,3.09-5.87,4.51a126.73,126.73,0,0,1-25.34,14.15,129,129,0,0,1-13.5,4.79A89.79,89.79,0,0,1,306,361.2c7.83-5.35,15.34-10.71,22.5-16.34a215.07,215.07,0,0,0,20.11-17.65,127.88,127.88,0,0,0,8.71-9.58c1.4-1.61,2.62-3.33,3.91-5s2.44-3.4,3.51-5.16,2.11-3.52,3.13-5.28,1.89-3.58,2.62-5.44,1.47-3.7,2.18-5.54c.53-1.9,1.22-3.75,1.57-5.68l.34-1.43a14.81,14.81,0,0,0,.31-1.48l.53-3.1c.19-1,.29-2.08.44-3.12s.28-2.09.37-3.14c.49-4.2.62-8.48.72-12.77a195,195,0,0,0-1.65-26.15c-1.1-8.82-2.77-17.68-4.71-26.6S366.37,189.89,363.85,180.74Z" style="fill:#fff;opacity:0.1"></path><path d="M340,166.83a59.15,59.15,0,0,1,4.36,5.4c1.36,1.87,2.63,3.8,3.85,5.75a118.73,118.73,0,0,1,6.56,12.17,128.72,128.72,0,0,1,8.93,26.22c.5,2.26.91,4.55,1.33,6.84s.7,4.59.9,6.91a98.57,98.57,0,0,1,.48,14,74.55,74.55,0,0,1-5.67,27.15c-.3-4.65-.41-9.13-.8-13.59s-.76-8.84-1.38-13.21c-.12-1.09-.27-2.18-.45-3.26s-.29-2.17-.47-3.26c-.39-2.16-.67-4.33-1.1-6.48-.77-4.31-1.62-8.61-2.6-12.89-1.89-8.57-4.13-17.09-6.52-25.66Z" style="fill:#fff;opacity:0.1"></path><path d="M115.67,125.5c-.64,16.36,6.09,45.1,138.55,42.2s129.89-37.77,130.14-44.31S369.52,87,251.47,87.46C130.73,87.9,116,117.34,115.67,125.5Z" style="fill:#37474f"></path><path d="M136.9,116.94a16.12,16.12,0,0,0,4.59,5.83,37.39,37.39,0,0,0,6.1,4.25,71.26,71.26,0,0,0,13.72,5.76,126.15,126.15,0,0,0,14.49,3.59c4.89,1,9.83,1.7,14.79,2.3,9.92,1.13,19.91,1.85,29.91,2.1s20,.36,30.06.06,20.05-.6,30.05-1.3,20-1.68,29.86-3.09A186,186,0,0,0,339.68,130a75.92,75.92,0,0,0,13.72-5.78,36,36,0,0,0,6.1-4.25c1.81-1.66,3.62-3.54,4.34-6-.48,2.51-2.12,4.63-3.81,6.51a36.42,36.42,0,0,1-5.9,4.89,72.64,72.64,0,0,1-13.62,6.91,165.14,165.14,0,0,1-29.4,8c-20,3.68-40.23,5-60.44,5.57s-40.54-.18-60.63-3.29a149.7,149.7,0,0,1-29.55-7.46,69.41,69.41,0,0,1-13.64-6.92,37.25,37.25,0,0,1-5.89-4.88A16.49,16.49,0,0,1,136.9,116.94Z" style="fill:#263238"></path><path d="M116.27,246.62c-1,0-2.07-.05-3.11-.13a34.82,34.82,0,0,1-25.69-13.86c-6.24-8.41-8.34-19.12-5.93-30.15,4.74-21.66,26.1-37.89,47.6-36.19a34.78,34.78,0,0,1,25.69,13.86c6.24,8.41,8.34,19.12,5.93,30.15h0C156.25,230.91,136.69,246.62,116.27,246.62Zm9.67-69.14c-15.27,0-29.93,11.86-33.34,27.42-1.71,7.79-.3,15.24,4,21a23.67,23.67,0,0,0,17.49,9.32q1.15.09,2.31.09c15.27,0,29.93-11.86,33.34-27.42h0c1.71-7.79.3-15.24-4-21a23.67,23.67,0,0,0-17.49-9.32Q127.1,177.48,125.94,177.48Z" style="fill:#FFC727"></path><path d="M116.27,246.62c-1,0-2.07-.05-3.11-.13a34.82,34.82,0,0,1-25.69-13.86c-6.24-8.41-8.34-19.12-5.93-30.15,4.74-21.66,26.1-37.89,47.6-36.19a34.78,34.78,0,0,1,25.69,13.86c6.24,8.41,8.34,19.12,5.93,30.15h0C156.25,230.91,136.69,246.62,116.27,246.62Zm9.67-69.14c-15.27,0-29.93,11.86-33.34,27.42-1.71,7.79-.3,15.24,4,21a23.67,23.67,0,0,0,17.49,9.32q1.15.09,2.31.09c15.27,0,29.93-11.86,33.34-27.42h0c1.71-7.79.3-15.24-4-21a23.67,23.67,0,0,0-17.49-9.32Q127.1,177.48,125.94,177.48Z" style="opacity:0.1"></path><path d="M157.64,184.62c-1.86,2.82-5.25,4.92-9.57,6.17a23.15,23.15,0,0,0-19.82-13.22c-.77-.06-1.54-.08-2.32-.08a33,33,0,0,0-17.32,5.14c-3.43-2.75-5.81-5.84-6.79-9a43.88,43.88,0,0,1,27.33-7.38,34.78,34.78,0,0,1,25.68,13.86A33.78,33.78,0,0,1,157.64,184.62Z" style="opacity:0.1"></path><path d="M96.38,188.58a57.66,57.66,0,0,0-4.47,10,41.6,41.6,0,0,0-2.23,10.45,26.13,26.13,0,0,0,5.93,19.23,23.9,23.9,0,0,0,17.75,9,40.77,40.77,0,0,0,10.63-.85,58.93,58.93,0,0,0,10.5-3.19,40.64,40.64,0,0,1-10,5.08,36.48,36.48,0,0,1-11.22,2.08,26.45,26.45,0,0,1-11.49-2.32A26,26,0,0,1,96.72,235a27.76,27.76,0,0,1-2.21-2l-1-1.05-1-1.13a27.25,27.25,0,0,1-5.92-22.12,37,37,0,0,1,3.51-10.84A40.14,40.14,0,0,1,96.38,188.58Z" style="fill:#fff;opacity:0.5"></path><ellipse cx="131.95" cy="171.76" rx="11.64" ry="27.5" transform="translate(-65.38 261.06) rotate(-76.82)" style="fill:#FFC727"></ellipse><path d="M139.17,171.66c-1.17,3.05-8.1,4-15.5,2s-12.44-5.95-11.27-9,8.1-4,15.49-2S140.33,168.62,139.17,171.66Z" style="fill:#fff;opacity:0.30000000000000004"></path><path d="M317.69,131.66l.83,6.12c.54,4,10.82,5.93,23,4.29s21.54-6.23,21-10.24l-.83-6.12c.15,1.09-.44,2.23-1.62,3.34a23.06,23.06,0,0,1-7.69,4.16,62.66,62.66,0,0,1-23.69,3.2,22.9,22.9,0,0,1-8.49-2A4,4,0,0,1,317.69,131.66Z" style="fill:#FFC727"></path><path d="M317.69,131.66l.83,6.12c.54,4,10.82,5.93,23,4.29s21.54-6.23,21-10.24l-.83-6.12c.15,1.09-.44,2.23-1.62,3.34a23.06,23.06,0,0,1-7.69,4.16,62.66,62.66,0,0,1-23.69,3.2,22.9,22.9,0,0,1-8.49-2A4,4,0,0,1,317.69,131.66Z" style="opacity:0.1"></path><path d="M317.69,131.65a4.07,4.07,0,0,0,2.45,2.79,23,23,0,0,0,8.5,2,62.14,62.14,0,0,0,23.69-3.2A23.06,23.06,0,0,0,360,129a4,4,0,0,0,1.62-3.33c-.54-4-10.82-5.93-23-4.29-11.82,1.6-21.05,6-21,9.92C317.67,131.44,317.68,131.55,317.69,131.65Z" style="fill:#FFC727"></path><path d="M322.48,130.13a3.16,3.16,0,0,0,1.91,2.16,17.65,17.65,0,0,0,6.6,1.53,48.18,48.18,0,0,0,18.4-2.49,17.69,17.69,0,0,0,6-3.23,3.15,3.15,0,0,0,1.27-2.59c-.42-3.11-8.41-4.6-17.84-3.33-9.18,1.24-16.34,4.66-16.31,7.7A2,2,0,0,0,322.48,130.13Z" style="fill:#fff;opacity:0.30000000000000004"></path><path d="M141,123.21l-.07,6.18c0,4,9.85,7.43,22.09,7.56s22.22-3,22.26-7.08l.07-6.18a4.09,4.09,0,0,1-2.1,3.07,23,23,0,0,1-8.2,3,62.14,62.14,0,0,1-23.9-.26,23,23,0,0,1-8.13-3.18C141.71,125.37,141,124.31,141,123.21Z" style="fill:#FFC727"></path><path d="M141,123.21l-.07,6.18c0,4,9.85,7.43,22.09,7.56s22.22-3,22.26-7.08l.07-6.18a4.09,4.09,0,0,1-2.1,3.07,23,23,0,0,1-8.2,3,62.14,62.14,0,0,1-23.9-.26,23,23,0,0,1-8.13-3.18C141.71,125.37,141,124.31,141,123.21Z" style="opacity:0.1"></path><path d="M141,123.2c0,1.1.71,2.16,2,3.11a23,23,0,0,0,8.13,3.18,62.14,62.14,0,0,0,23.9.26,22.86,22.86,0,0,0,8.2-3,4.07,4.07,0,0,0,2.1-3.07c0-4-9.85-7.43-22.1-7.56-11.93-.13-21.7,2.89-22.23,6.77C141,123,141,123.1,141,123.2Z" style="fill:#FFC727"></path><path d="M146,122.39a3.16,3.16,0,0,0,1.57,2.42,17.91,17.91,0,0,0,6.31,2.46,44.84,44.84,0,0,0,9.27,1,46.09,46.09,0,0,0,9.3-.79,18.1,18.1,0,0,0,6.37-2.33,3.15,3.15,0,0,0,1.62-2.39c0-3.13-7.64-5.77-17.16-5.87-9.27-.1-16.85,2.24-17.26,5.26A1.94,1.94,0,0,0,146,122.39Z" style="fill:#fff;opacity:0.30000000000000004"></path><path d="M298.15,119.88l-.07,6.18c0,4,9.85,7.43,22.09,7.56s22.22-3,22.26-7.08l.07-6.18a4,4,0,0,1-2.1,3.07,22.86,22.86,0,0,1-8.2,3,62.14,62.14,0,0,1-23.9-.26,23,23,0,0,1-8.13-3.18A4,4,0,0,1,298.15,119.88Z" style="fill:#FFC727"></path><path d="M298.15,119.88l-.07,6.18c0,4,9.85,7.43,22.09,7.56s22.22-3,22.26-7.08l.07-6.18a4,4,0,0,1-2.1,3.07,22.86,22.86,0,0,1-8.2,3,62.14,62.14,0,0,1-23.9-.26,23,23,0,0,1-8.13-3.18A4,4,0,0,1,298.15,119.88Z" style="opacity:0.1"></path><path d="M298.15,119.87a4.06,4.06,0,0,0,2,3.12,23,23,0,0,0,8.13,3.17,58.68,58.68,0,0,0,11.94,1.29,58,58,0,0,0,12-1,22.67,22.67,0,0,0,8.2-3c1.33-.92,2.09-2,2.1-3.06,0-4-9.85-7.44-22.1-7.57-11.93-.13-21.7,2.89-22.23,6.77C298.16,119.67,298.15,119.77,298.15,119.87Z" style="fill:#FFC727"></path><path d="M303.11,119.06a3.15,3.15,0,0,0,1.57,2.42A18.09,18.09,0,0,0,311,124a48.35,48.35,0,0,0,18.57.2,18.1,18.1,0,0,0,6.37-2.33,3.15,3.15,0,0,0,1.62-2.38c0-3.14-7.64-5.78-17.16-5.88-9.27-.1-16.85,2.24-17.26,5.26A1.94,1.94,0,0,0,303.11,119.06Z" style="fill:#fff;opacity:0.30000000000000004"></path><path d="M294.5,138.57l-1.17,6.07c-.77,4,8.36,9.07,20.38,11.4s22.4,1,23.17-3l1.17-6.06a4.05,4.05,0,0,1-2.61,2.64,23,23,0,0,1-8.61,1.48,62.15,62.15,0,0,1-23.47-4.54,22.88,22.88,0,0,1-7.42-4.59A4.06,4.06,0,0,1,294.5,138.57Z" style="fill:#FFC727"></path><path d="M294.5,138.57l-1.17,6.07c-.77,4,8.36,9.07,20.38,11.4s22.4,1,23.17-3l1.17-6.06a4.05,4.05,0,0,1-2.61,2.64,23,23,0,0,1-8.61,1.48,62.15,62.15,0,0,1-23.47-4.54,22.88,22.88,0,0,1-7.42-4.59A4.06,4.06,0,0,1,294.5,138.57Z" style="opacity:0.1"></path><path d="M294.51,138.56a4,4,0,0,0,1.43,3.43,23,23,0,0,0,7.42,4.58A59.24,59.24,0,0,0,314.88,150a57.8,57.8,0,0,0,11.95,1.13,22.77,22.77,0,0,0,8.61-1.48,4.05,4.05,0,0,0,2.61-2.64c.77-4-8.36-9.08-20.39-11.4-11.71-2.27-21.86-1.05-23.07,2.67C294.56,138.36,294.53,138.46,294.51,138.56Z" style="fill:#FFC727"></path><path d="M299.53,138.65a3.13,3.13,0,0,0,1.12,2.66,17.54,17.54,0,0,0,5.76,3.56,48.33,48.33,0,0,0,18.23,3.53,17.75,17.75,0,0,0,6.69-1.15,3.13,3.13,0,0,0,2-2.05c.6-3.08-6.49-7-15.83-8.86-9.1-1.76-17-.81-17.92,2.08C299.57,138.5,299.55,138.58,299.53,138.65Z" style="fill:#fff;opacity:0.30000000000000004"></path><path d="M157.93,139l1,6.1c.67,4,11,5.6,23.07,3.6s21.35-6.87,20.69-10.85l-1-6.1a4,4,0,0,1-1.53,3.39,22.9,22.9,0,0,1-7.55,4.38,59.15,59.15,0,0,1-11.6,3.1,59.89,59.89,0,0,1-12,.81,22.9,22.9,0,0,1-8.55-1.72A4,4,0,0,1,157.93,139Z" style="fill:#FFC727"></path><path d="M157.93,139l1,6.1c.67,4,11,5.6,23.07,3.6s21.35-6.87,20.69-10.85l-1-6.1a4,4,0,0,1-1.53,3.39,22.9,22.9,0,0,1-7.55,4.38,59.15,59.15,0,0,1-11.6,3.1,59.89,59.89,0,0,1-12,.81,22.9,22.9,0,0,1-8.55-1.72A4,4,0,0,1,157.93,139Z" style="opacity:0.1"></path><path d="M157.93,139a4.07,4.07,0,0,0,2.54,2.71,22.92,22.92,0,0,0,8.55,1.71,62.12,62.12,0,0,0,23.59-3.91,22.73,22.73,0,0,0,7.55-4.38,4,4,0,0,0,1.53-3.38c-.66-4-11-5.61-23.08-3.6-11.77,2-20.86,6.62-20.7,10.54C157.91,138.78,157.92,138.88,157.93,139Z" style="fill:#FFC727"></path><path d="M162.68,137.32a3.15,3.15,0,0,0,2,2.11,17.87,17.87,0,0,0,6.64,1.33,48.21,48.21,0,0,0,18.32-3,17.89,17.89,0,0,0,5.87-3.4,3.15,3.15,0,0,0,1.18-2.63c-.51-3.09-8.54-4.35-17.92-2.79-9.15,1.51-16.2,5.14-16.08,8.18A1.94,1.94,0,0,0,162.68,137.32Z" style="fill:#fff;opacity:0.30000000000000004"></path><path d="M252.62,118l-.07,6.18c0,4,9.85,7.43,22.09,7.56s22.22-3,22.26-7.08l.07-6.18a4.06,4.06,0,0,1-2.09,3.07,23,23,0,0,1-8.21,3,62.14,62.14,0,0,1-23.9-.26,23,23,0,0,1-8.13-3.18A4.06,4.06,0,0,1,252.62,118Z" style="fill:#FFC727"></path><path d="M252.62,118l-.07,6.18c0,4,9.85,7.43,22.09,7.56s22.22-3,22.26-7.08l.07-6.18a4.06,4.06,0,0,1-2.09,3.07,23,23,0,0,1-8.21,3,62.14,62.14,0,0,1-23.9-.26,23,23,0,0,1-8.13-3.18A4.06,4.06,0,0,1,252.62,118Z" style="opacity:0.1"></path><path d="M252.62,118a4.09,4.09,0,0,0,2,3.12,23,23,0,0,0,8.13,3.17,62.4,62.4,0,0,0,23.9.27,23,23,0,0,0,8.21-3c1.32-.92,2.08-2,2.09-3.06,0-4-9.85-7.43-22.1-7.57-11.93-.13-21.7,2.89-22.22,6.77A1.71,1.71,0,0,0,252.62,118Z" style="fill:#FFC727"></path><path d="M257.58,117.22a3.15,3.15,0,0,0,1.57,2.42,18.09,18.09,0,0,0,6.31,2.47,48.35,48.35,0,0,0,18.57.2A18,18,0,0,0,290.4,120,3.16,3.16,0,0,0,292,117.6c0-3.14-7.65-5.78-17.17-5.88C265.6,111.62,258,114,257.6,117A1.94,1.94,0,0,0,257.58,117.22Z" style="fill:#fff;opacity:0.30000000000000004"></path><path d="M161,112.48l-.07,6.18c0,4,9.85,7.43,22.09,7.57s22.22-3,22.26-7.09l.07-6.17a4,4,0,0,1-2.09,3.06,23,23,0,0,1-8.2,3,62.19,62.19,0,0,1-23.91-.26,22.85,22.85,0,0,1-8.12-3.18A4,4,0,0,1,161,112.48Z" style="fill:#FFC727"></path><path d="M161,112.48l-.07,6.18c0,4,9.85,7.43,22.09,7.57s22.22-3,22.26-7.09l.07-6.17a4,4,0,0,1-2.09,3.06,23,23,0,0,1-8.2,3,62.19,62.19,0,0,1-23.91-.26,22.85,22.85,0,0,1-8.12-3.18A4,4,0,0,1,161,112.48Z" style="opacity:0.1"></path><path d="M161,112.48a4,4,0,0,0,2,3.11,22.85,22.85,0,0,0,8.12,3.18A62.72,62.72,0,0,0,195,119a23.2,23.2,0,0,0,8.2-3c1.33-.93,2.08-2,2.09-3.07,0-4-9.85-7.43-22.1-7.57-11.93-.13-21.69,2.89-22.22,6.77A1.73,1.73,0,0,0,161,112.48Z" style="fill:#FFC727"></path><path d="M165.91,111.66a3.14,3.14,0,0,0,1.58,2.42,17.93,17.93,0,0,0,6.31,2.47,46.17,46.17,0,0,0,9.27,1,45.23,45.23,0,0,0,9.29-.8,17.76,17.76,0,0,0,6.37-2.33,3.16,3.16,0,0,0,1.63-2.38c0-3.14-7.65-5.77-17.17-5.88-9.26-.1-16.85,2.25-17.26,5.26A1.94,1.94,0,0,0,165.91,111.66Z" style="fill:#fff;opacity:0.30000000000000004"></path><path d="M270.59,116.44l-.07,6.18c0,4,9.85,7.43,22.09,7.56s22.22-3,22.26-7.08l.07-6.18c0,1.1-.77,2.14-2.09,3.07a23.18,23.18,0,0,1-8.21,3,62.67,62.67,0,0,1-23.9-.26,23,23,0,0,1-8.13-3.18A4.06,4.06,0,0,1,270.59,116.44Z" style="fill:#FFC727"></path><path d="M270.59,116.44l-.07,6.18c0,4,9.85,7.43,22.09,7.56s22.22-3,22.26-7.08l.07-6.18c0,1.1-.77,2.14-2.09,3.07a23.18,23.18,0,0,1-8.21,3,62.67,62.67,0,0,1-23.9-.26,23,23,0,0,1-8.13-3.18A4.06,4.06,0,0,1,270.59,116.44Z" style="opacity:0.1"></path><path d="M270.59,116.43a4.06,4.06,0,0,0,2,3.11,23,23,0,0,0,8.13,3.18,62.14,62.14,0,0,0,23.9.26,23,23,0,0,0,8.21-3,4.06,4.06,0,0,0,2.09-3.07c0-4-9.85-7.43-22.1-7.56-11.93-.13-21.7,2.89-22.23,6.77C270.6,116.22,270.59,116.33,270.59,116.43Z" style="fill:#FFC727"></path><path d="M275.55,115.62a3.13,3.13,0,0,0,1.57,2.41,17.71,17.71,0,0,0,6.31,2.47,44.94,44.94,0,0,0,9.28,1,46.06,46.06,0,0,0,9.29-.79,17.75,17.75,0,0,0,6.37-2.34A3.09,3.09,0,0,0,310,116c0-3.13-7.64-5.77-17.16-5.87-9.26-.1-16.85,2.24-17.26,5.26A1.94,1.94,0,0,0,275.55,115.62Z" style="fill:#fff;opacity:0.30000000000000004"></path><path d="M286.39,102.81l-1.21,6.06c-.79,4,8.3,9.13,20.3,11.53s22.4,1.13,23.19-2.83l1.21-6.06a4,4,0,0,1-2.62,2.62,23,23,0,0,1-8.62,1.43,62.26,62.26,0,0,1-23.44-4.69,22.75,22.75,0,0,1-7.39-4.63A4,4,0,0,1,286.39,102.81Z" style="fill:#FFC727"></path><path d="M286.39,102.81l-1.21,6.06c-.79,4,8.3,9.13,20.3,11.53s22.4,1.13,23.19-2.83l1.21-6.06a4,4,0,0,1-2.62,2.62,23,23,0,0,1-8.62,1.43,62.26,62.26,0,0,1-23.44-4.69,22.75,22.75,0,0,1-7.39-4.63A4,4,0,0,1,286.39,102.81Z" style="opacity:0.1"></path><path d="M286.39,102.8a4.08,4.08,0,0,0,1.42,3.44,22.92,22.92,0,0,0,7.39,4.63,58.78,58.78,0,0,0,11.49,3.47,58.28,58.28,0,0,0,11.95,1.21,23,23,0,0,0,8.62-1.42,4,4,0,0,0,2.62-2.63c.8-4-8.3-9.13-20.31-11.53-11.7-2.34-21.85-1.18-23.09,2.53A1.71,1.71,0,0,0,286.39,102.8Z" style="fill:#FFC727"></path><path d="M291.42,102.93a3.13,3.13,0,0,0,1.1,2.66,17.76,17.76,0,0,0,5.74,3.6,48.49,48.49,0,0,0,18.21,3.64,18,18,0,0,0,6.69-1.11,3.13,3.13,0,0,0,2-2c.61-3.08-6.45-7.09-15.78-9-9.09-1.81-17-.92-17.94,2A2.1,2.1,0,0,0,291.42,102.93Z" style="fill:#fff;opacity:0.30000000000000004"></path><path d="M249.72,99.86l-.07,6.18c-.05,4,9.85,7.43,22.09,7.57s22.21-3,22.26-7.09l.07-6.18a4.07,4.07,0,0,1-2.1,3.07,22.93,22.93,0,0,1-8.2,3,62.19,62.19,0,0,1-23.91-.26,22.93,22.93,0,0,1-8.12-3.18C250.43,102,249.7,101,249.72,99.86Z" style="fill:#FFC727"></path><path d="M249.72,99.86l-.07,6.18c-.05,4,9.85,7.43,22.09,7.57s22.21-3,22.26-7.09l.07-6.18a4.07,4.07,0,0,1-2.1,3.07,22.93,22.93,0,0,1-8.2,3,62.19,62.19,0,0,1-23.91-.26,22.93,22.93,0,0,1-8.12-3.18C250.43,102,249.7,101,249.72,99.86Z" style="opacity:0.1"></path><path d="M249.72,99.86a4,4,0,0,0,2,3.11,23.12,23.12,0,0,0,8.12,3.18,59.52,59.52,0,0,0,11.94,1.28,58.85,58.85,0,0,0,12-1,22.92,22.92,0,0,0,8.2-3,4.06,4.06,0,0,0,2.1-3.06c0-4-9.85-7.43-22.11-7.57-11.93-.13-21.69,2.89-22.22,6.77C249.73,99.65,249.72,99.75,249.72,99.86Z" style="fill:#FFC727"></path><path d="M254.68,99a3.12,3.12,0,0,0,1.57,2.42,18.09,18.09,0,0,0,6.31,2.47,48.34,48.34,0,0,0,18.57.2,17.91,17.91,0,0,0,6.37-2.33,3.15,3.15,0,0,0,1.62-2.38c0-3.14-7.65-5.77-17.16-5.88-9.27-.1-16.85,2.24-17.26,5.26A1.94,1.94,0,0,0,254.68,99Z" style="fill:#fff;opacity:0.30000000000000004"></path><path d="M229,107.21l-.07,6.18c0,4,9.85,7.43,22.09,7.57s22.22-3,22.26-7.09l.07-6.18a4,4,0,0,1-2.09,3.07,23,23,0,0,1-8.2,3,62.19,62.19,0,0,1-23.91-.26,22.85,22.85,0,0,1-8.12-3.18A4,4,0,0,1,229,107.21Z" style="fill:#FFC727"></path><path d="M229,107.21l-.07,6.18c0,4,9.85,7.43,22.09,7.57s22.22-3,22.26-7.09l.07-6.18a4,4,0,0,1-2.09,3.07,23,23,0,0,1-8.2,3,62.19,62.19,0,0,1-23.91-.26,22.85,22.85,0,0,1-8.12-3.18A4,4,0,0,1,229,107.21Z" style="opacity:0.1"></path><path d="M229,107.21a4,4,0,0,0,2,3.11,22.85,22.85,0,0,0,8.12,3.18,62.72,62.72,0,0,0,23.91.26,23.2,23.2,0,0,0,8.2-3c1.33-.93,2.08-2,2.09-3.07.05-4-9.85-7.43-22.1-7.57C239.28,100,229.52,103,229,106.89A1.73,1.73,0,0,0,229,107.21Z" style="fill:#FFC727"></path><path d="M233.92,106.39a3.14,3.14,0,0,0,1.58,2.42,17.93,17.93,0,0,0,6.31,2.47,46.17,46.17,0,0,0,9.27,1,45.23,45.23,0,0,0,9.29-.8,17.76,17.76,0,0,0,6.37-2.33,3.16,3.16,0,0,0,1.63-2.38c0-3.14-7.65-5.77-17.17-5.88-9.26-.1-16.85,2.25-17.26,5.26A1.94,1.94,0,0,0,233.92,106.39Z" style="fill:#fff;opacity:0.30000000000000004"></path><path d="M194.33,110.18l-.07,6.18c0,4,9.85,7.44,22.09,7.57s22.22-3.05,22.26-7.08l.07-6.18c0,1.1-.77,2.14-2.1,3.06a22.67,22.67,0,0,1-8.2,3,58,58,0,0,1-12,1,58.68,58.68,0,0,1-11.94-1.29,23,23,0,0,1-8.13-3.17A4.06,4.06,0,0,1,194.33,110.18Z" style="fill:#FFC727"></path><path d="M194.33,110.18l-.07,6.18c0,4,9.85,7.44,22.09,7.57s22.22-3.05,22.26-7.08l.07-6.18c0,1.1-.77,2.14-2.1,3.06a22.67,22.67,0,0,1-8.2,3,58,58,0,0,1-12,1,58.68,58.68,0,0,1-11.94-1.29,23,23,0,0,1-8.13-3.17A4.06,4.06,0,0,1,194.33,110.18Z" style="opacity:0.1"></path><path d="M194.33,110.18a4,4,0,0,0,2,3.11,23,23,0,0,0,8.13,3.18,58.68,58.68,0,0,0,11.94,1.29,59.43,59.43,0,0,0,12-1,22.86,22.86,0,0,0,8.2-3,4,4,0,0,0,2.1-3.07c0-4-9.85-7.43-22.1-7.56-11.93-.13-21.7,2.88-22.23,6.77A3,3,0,0,0,194.33,110.18Z" style="fill:#FFC727"></path><path d="M199.29,109.37a3.15,3.15,0,0,0,1.57,2.41,17.71,17.71,0,0,0,6.31,2.47,48.35,48.35,0,0,0,18.57.2,17.65,17.65,0,0,0,6.37-2.33,3.13,3.13,0,0,0,1.62-2.38c0-3.14-7.64-5.77-17.16-5.87-9.27-.11-16.85,2.24-17.26,5.25A2.11,2.11,0,0,0,199.29,109.37Z" style="fill:#fff;opacity:0.30000000000000004"></path><path d="M173.49,106.28l-.07,6.17c0,4,9.85,7.44,22.09,7.57s22.22-3,22.26-7.08l.07-6.18a4,4,0,0,1-2.09,3.06,23,23,0,0,1-8.21,3,62.4,62.4,0,0,1-23.9-.27,22.87,22.87,0,0,1-8.12-3.17A4.06,4.06,0,0,1,173.49,106.28Z" style="fill:#FFC727"></path><path d="M173.49,106.28l-.07,6.17c0,4,9.85,7.44,22.09,7.57s22.22-3,22.26-7.08l.07-6.18a4,4,0,0,1-2.09,3.06,23,23,0,0,1-8.21,3,62.4,62.4,0,0,1-23.9-.27,22.87,22.87,0,0,1-8.12-3.17A4.06,4.06,0,0,1,173.49,106.28Z" style="opacity:0.1"></path><path d="M173.49,106.27a4,4,0,0,0,2,3.11,22.85,22.85,0,0,0,8.12,3.18,58.68,58.68,0,0,0,11.94,1.29,59.36,59.36,0,0,0,12-1,23,23,0,0,0,8.21-3,4,4,0,0,0,2.09-3.07c0-4-9.85-7.43-22.1-7.56-11.93-.13-21.69,2.88-22.22,6.77A1.63,1.63,0,0,0,173.49,106.27Z" style="fill:#FFC727"></path><path d="M178.45,105.46a3.14,3.14,0,0,0,1.58,2.41,17.55,17.55,0,0,0,6.31,2.47,48.3,48.3,0,0,0,18.56.2,17.57,17.57,0,0,0,6.37-2.33,3.13,3.13,0,0,0,1.63-2.38c0-3.13-7.65-5.77-17.17-5.87-9.26-.11-16.85,2.24-17.26,5.25A2.29,2.29,0,0,0,178.45,105.46Z" style="fill:#fff;opacity:0.30000000000000004"></path><path d="M216.47,119l-.07,6.18c0,4,9.85,7.43,22.09,7.56s22.22-3,22.26-7.08l.07-6.18a4,4,0,0,1-2.09,3.07,23,23,0,0,1-8.21,3,62.14,62.14,0,0,1-23.9-.26,22.85,22.85,0,0,1-8.12-3.18A4,4,0,0,1,216.47,119Z" style="fill:#FFC727"></path><path d="M216.47,119l-.07,6.18c0,4,9.85,7.43,22.09,7.56s22.22-3,22.26-7.08l.07-6.18a4,4,0,0,1-2.09,3.07,23,23,0,0,1-8.21,3,62.14,62.14,0,0,1-23.9-.26,22.85,22.85,0,0,1-8.12-3.18A4,4,0,0,1,216.47,119Z" style="opacity:0.1"></path><path d="M216.47,119c0,1.1.72,2.16,2,3.12a22.87,22.87,0,0,0,8.12,3.17,58.68,58.68,0,0,0,11.94,1.29,57.94,57.94,0,0,0,12-1,22.8,22.8,0,0,0,8.21-3,4,4,0,0,0,2.09-3.06c0-4-9.85-7.43-22.1-7.57-11.93-.13-21.7,2.89-22.22,6.77A1.71,1.71,0,0,0,216.47,119Z" style="fill:#FFC727"></path><path d="M221.43,118.14a3.15,3.15,0,0,0,1.57,2.42,18.09,18.09,0,0,0,6.31,2.47,48.35,48.35,0,0,0,18.57.2,18,18,0,0,0,6.37-2.33,3.16,3.16,0,0,0,1.63-2.38c0-3.14-7.65-5.78-17.17-5.88-9.26-.1-16.85,2.24-17.26,5.26A1.94,1.94,0,0,0,221.43,118.14Z" style="fill:#fff;opacity:0.30000000000000004"></path><path d="M205.17,99.76l-.07,6.18c0,4,9.85,7.44,22.09,7.57s22.22-3.05,22.26-7.08l.07-6.18c0,1.1-.77,2.14-2.09,3.06a22.8,22.8,0,0,1-8.21,3,58,58,0,0,1-12,1,58.68,58.68,0,0,1-11.94-1.29,23,23,0,0,1-8.13-3.17A4.09,4.09,0,0,1,205.17,99.76Z" style="fill:#FFC727"></path><path d="M205.17,99.76l-.07,6.18c0,4,9.85,7.44,22.09,7.57s22.22-3.05,22.26-7.08l.07-6.18c0,1.1-.77,2.14-2.09,3.06a22.8,22.8,0,0,1-8.21,3,58,58,0,0,1-12,1,58.68,58.68,0,0,1-11.94-1.29,23,23,0,0,1-8.13-3.17A4.09,4.09,0,0,1,205.17,99.76Z" style="opacity:0.1"></path><path d="M205.17,99.76a4.06,4.06,0,0,0,2,3.11,23,23,0,0,0,8.13,3.18,62.14,62.14,0,0,0,23.9.26,23.18,23.18,0,0,0,8.21-3,4,4,0,0,0,2.09-3.07c0-4-9.85-7.43-22.1-7.56-11.93-.13-21.7,2.88-22.22,6.77A1.55,1.55,0,0,0,205.17,99.76Z" style="fill:#FFC727"></path><path d="M210.13,99a3.15,3.15,0,0,0,1.57,2.41,17.71,17.71,0,0,0,6.31,2.47,48.35,48.35,0,0,0,18.57.2A17.57,17.57,0,0,0,243,101.7a3.15,3.15,0,0,0,1.63-2.38c0-3.14-7.65-5.77-17.17-5.88-9.26-.1-16.85,2.25-17.26,5.26A2,2,0,0,0,210.13,99Z" style="fill:#fff;opacity:0.30000000000000004"></path><path d="M235.44,127l-.07,6.18c0,4,9.85,7.43,22.09,7.57s22.22-3,22.26-7.09l.07-6.17a4,4,0,0,1-2.09,3.06,22.8,22.8,0,0,1-8.21,3,62.14,62.14,0,0,1-23.9-.26,22.85,22.85,0,0,1-8.12-3.18A4,4,0,0,1,235.44,127Z" style="fill:#FFC727"></path><path d="M235.44,127l-.07,6.18c0,4,9.85,7.43,22.09,7.57s22.22-3,22.26-7.09l.07-6.17a4,4,0,0,1-2.09,3.06,22.8,22.8,0,0,1-8.21,3,62.14,62.14,0,0,1-23.9-.26,22.85,22.85,0,0,1-8.12-3.18A4,4,0,0,1,235.44,127Z" style="opacity:0.1"></path><path d="M235.44,127a4,4,0,0,0,2,3.11,22.85,22.85,0,0,0,8.12,3.18,62.67,62.67,0,0,0,23.9.26,23.18,23.18,0,0,0,8.21-3c1.33-.93,2.08-2,2.09-3.07,0-4-9.85-7.43-22.1-7.57-11.93-.13-21.7,2.89-22.22,6.77A1.73,1.73,0,0,0,235.44,127Z" style="fill:#FFC727"></path><path d="M240.4,126.19a3.14,3.14,0,0,0,1.58,2.42,17.57,17.57,0,0,0,6.3,2.47,46.36,46.36,0,0,0,9.28,1,45.23,45.23,0,0,0,9.29-.8,17.76,17.76,0,0,0,6.37-2.33,3.16,3.16,0,0,0,1.63-2.38c0-3.14-7.65-5.77-17.17-5.88-9.26-.1-16.85,2.25-17.26,5.26A1.94,1.94,0,0,0,240.4,126.19Z" style="fill:#fff;opacity:0.30000000000000004"></path><path d="M205.17,136.88l-.07,6.18c0,4,9.85,7.43,22.09,7.56s22.22-3,22.26-7.08l.07-6.18a4.06,4.06,0,0,1-2.09,3.07,23,23,0,0,1-8.21,3,59.43,59.43,0,0,1-12,1,58.68,58.68,0,0,1-11.94-1.29,23,23,0,0,1-8.13-3.18A4.06,4.06,0,0,1,205.17,136.88Z" style="fill:#FFC727"></path><path d="M205.17,136.88l-.07,6.18c0,4,9.85,7.43,22.09,7.56s22.22-3,22.26-7.08l.07-6.18a4.06,4.06,0,0,1-2.09,3.07,23,23,0,0,1-8.21,3,59.43,59.43,0,0,1-12,1,58.68,58.68,0,0,1-11.94-1.29,23,23,0,0,1-8.13-3.18A4.06,4.06,0,0,1,205.17,136.88Z" style="opacity:0.1"></path><path d="M205.17,136.87a4.09,4.09,0,0,0,2,3.12,23,23,0,0,0,8.13,3.17,58.68,58.68,0,0,0,11.94,1.29,57.94,57.94,0,0,0,12-1,22.8,22.8,0,0,0,8.21-3,4,4,0,0,0,2.09-3.06c0-4-9.85-7.44-22.1-7.57-11.93-.13-21.7,2.89-22.22,6.77A1.71,1.71,0,0,0,205.17,136.87Z" style="fill:#FFC727"></path><path d="M210.13,136.06a3.16,3.16,0,0,0,1.57,2.42A18.09,18.09,0,0,0,218,141a48.35,48.35,0,0,0,18.57.2,18,18,0,0,0,6.37-2.33,3.16,3.16,0,0,0,1.63-2.38c0-3.14-7.65-5.78-17.17-5.88-9.26-.1-16.85,2.24-17.26,5.26A1.94,1.94,0,0,0,210.13,136.06Z" style="fill:#fff;opacity:0.30000000000000004"></path><path d="M227.57,154l2,5.83c1.33,3.81,11.79,3.64,23.34-.41s19.86-10.42,18.52-14.24l-2-5.83a4.07,4.07,0,0,1-.92,3.6,23.06,23.06,0,0,1-6.69,5.61,62.41,62.41,0,0,1-22.57,7.9,22.93,22.93,0,0,1-8.72-.23C229,155.74,227.93,155,227.57,154Z" style="fill:#FFC727"></path><path d="M227.57,154l2,5.83c1.33,3.81,11.79,3.64,23.34-.41s19.86-10.42,18.52-14.24l-2-5.83a4.07,4.07,0,0,1-.92,3.6,23.06,23.06,0,0,1-6.69,5.61,62.41,62.41,0,0,1-22.57,7.9,22.93,22.93,0,0,1-8.72-.23C229,155.74,227.93,155,227.57,154Z" style="opacity:0.1"></path><path d="M227.56,154a4.06,4.06,0,0,0,3,2.24,23,23,0,0,0,8.72.22,58.93,58.93,0,0,0,11.66-2.85,59.67,59.67,0,0,0,10.9-5,23,23,0,0,0,6.7-5.62,4.06,4.06,0,0,0,.92-3.59c-1.33-3.82-11.79-3.64-23.36.41-11.26,3.94-19.41,10.1-18.59,13.93C227.51,153.75,227.53,153.85,227.56,154Z" style="fill:#FFC727"></path><path d="M232,151.5a3.19,3.19,0,0,0,2.31,1.74,17.89,17.89,0,0,0,6.77.17,48.48,48.48,0,0,0,17.52-6.13,17.9,17.9,0,0,0,5.2-4.36,3.15,3.15,0,0,0,.72-2.8c-1-3-9.16-2.82-18.14.32-8.75,3.06-15.08,7.85-14.44,10.82Z" style="fill:#fff;opacity:0.30000000000000004"></path><path d="M272.32,132.13l-.07,6.18c0,4,9.85,7.43,22.09,7.56s22.22-3,22.26-7.08l.07-6.18c0,1.1-.76,2.14-2.09,3.07a23.18,23.18,0,0,1-8.21,3,62.67,62.67,0,0,1-23.9-.26,22.85,22.85,0,0,1-8.12-3.18A4,4,0,0,1,272.32,132.13Z" style="fill:#FFC727"></path><path d="M272.32,132.13l-.07,6.18c0,4,9.85,7.43,22.09,7.56s22.22-3,22.26-7.08l.07-6.18c0,1.1-.76,2.14-2.09,3.07a23.18,23.18,0,0,1-8.21,3,62.67,62.67,0,0,1-23.9-.26,22.85,22.85,0,0,1-8.12-3.18A4,4,0,0,1,272.32,132.13Z" style="opacity:0.1"></path><path d="M272.32,132.12a4,4,0,0,0,2,3.11,22.85,22.85,0,0,0,8.12,3.18,62.14,62.14,0,0,0,23.9.26,23,23,0,0,0,8.21-3,4,4,0,0,0,2.09-3.07c0-4-9.85-7.43-22.1-7.56-11.93-.13-21.7,2.89-22.22,6.77A1.63,1.63,0,0,0,272.32,132.12Z" style="fill:#FFC727"></path><path d="M277.28,131.31a3.15,3.15,0,0,0,1.58,2.42,17.77,17.77,0,0,0,6.3,2.46,44.94,44.94,0,0,0,9.28,1,46,46,0,0,0,9.29-.79,18,18,0,0,0,6.37-2.33,3.16,3.16,0,0,0,1.63-2.39c0-3.13-7.65-5.77-17.17-5.87-9.26-.1-16.85,2.24-17.26,5.26A1.94,1.94,0,0,0,277.28,131.31Z" style="fill:#fff;opacity:0.30000000000000004"></path><path d="M335.44,164.2l-5.42,3c-3.54,1.94-1.65,12.22,4.24,23S347.8,208,351.34,206.06l5.42-3a4.06,4.06,0,0,1-3.7-.33,23,23,0,0,1-6.64-5.67,59.76,59.76,0,0,1-6.76-9.93,59.06,59.06,0,0,1-4.73-11,22.77,22.77,0,0,1-1.21-8.64C333.9,165.88,334.47,164.72,335.44,164.2Z" style="fill:#FFC727"></path><path d="M335.44,164.2l-5.42,3c-3.54,1.94-1.65,12.22,4.24,23S347.8,208,351.34,206.06l5.42-3a4.06,4.06,0,0,1-3.7-.33,23,23,0,0,1-6.64-5.67,59.76,59.76,0,0,1-6.76-9.93,59.06,59.06,0,0,1-4.73-11,22.77,22.77,0,0,1-1.21-8.64C333.9,165.88,334.47,164.72,335.44,164.2Z" style="opacity:0.1"></path><path d="M335.44,164.19a4.07,4.07,0,0,0-1.72,3.29,23,23,0,0,0,1.22,8.64,62.19,62.19,0,0,0,11.49,21,22.88,22.88,0,0,0,6.64,5.68,4,4,0,0,0,3.7.32c3.54-1.94,1.64-12.22-4.25-23-5.73-10.46-13.15-17.49-16.79-16.05Z" style="fill:#FFC727"></path><path d="M338.58,168.12a3.12,3.12,0,0,0-1.33,2.56,17.63,17.63,0,0,0,.94,6.7,48.34,48.34,0,0,0,8.93,16.28,17.56,17.56,0,0,0,5.15,4.41,3.13,3.13,0,0,0,2.87.25c2.75-1.51,1.28-9.49-3.29-17.84-4.46-8.12-10.22-13.58-13.05-12.46Z" style="fill:#fff;opacity:0.30000000000000004"></path><path d="M190.76,126.75l-.07,6.18c-.05,4,9.85,7.44,22.09,7.57S235,137.45,235,133.42l.07-6.18a4.06,4.06,0,0,1-2.1,3.06,22.67,22.67,0,0,1-8.2,3,62.13,62.13,0,0,1-23.9-.26,22.93,22.93,0,0,1-8.13-3.17C191.47,128.91,190.74,127.85,190.76,126.75Z" style="fill:#FFC727"></path><path d="M190.76,126.75l-.07,6.18c-.05,4,9.85,7.44,22.09,7.57S235,137.45,235,133.42l.07-6.18a4.06,4.06,0,0,1-2.1,3.06,22.67,22.67,0,0,1-8.2,3,62.13,62.13,0,0,1-23.9-.26,22.93,22.93,0,0,1-8.13-3.17C191.47,128.91,190.74,127.85,190.76,126.75Z" style="opacity:0.1"></path><path d="M190.76,126.75c0,1.1.71,2.16,2,3.11a22.92,22.92,0,0,0,8.13,3.18,58.68,58.68,0,0,0,11.94,1.29,59.49,59.49,0,0,0,12-1,22.86,22.86,0,0,0,8.2-3,4.07,4.07,0,0,0,2.1-3.07c0-4-9.85-7.43-22.11-7.56-11.92-.13-21.69,2.88-22.22,6.77A3,3,0,0,0,190.76,126.75Z" style="fill:#FFC727"></path><path d="M195.72,125.94a3.12,3.12,0,0,0,1.57,2.41,17.71,17.71,0,0,0,6.31,2.47,48.34,48.34,0,0,0,18.57.2,17.72,17.72,0,0,0,6.37-2.33,3.13,3.13,0,0,0,1.62-2.38c0-3.14-7.65-5.77-17.16-5.87-9.27-.11-16.85,2.24-17.26,5.25A2,2,0,0,0,195.72,125.94Z" style="fill:#fff;opacity:0.30000000000000004"></path><path d="M170.05,123.21l-.07,6.18c0,4,9.85,7.43,22.09,7.56s22.22-3,22.26-7.08l.07-6.18c0,1.1-.77,2.14-2.1,3.07a23,23,0,0,1-8.2,3,62.14,62.14,0,0,1-23.9-.26,23,23,0,0,1-8.13-3.18A4.06,4.06,0,0,1,170.05,123.21Z" style="fill:#FFC727"></path><path d="M170.05,123.21l-.07,6.18c0,4,9.85,7.43,22.09,7.56s22.22-3,22.26-7.08l.07-6.18c0,1.1-.77,2.14-2.1,3.07a23,23,0,0,1-8.2,3,62.14,62.14,0,0,1-23.9-.26,23,23,0,0,1-8.13-3.18A4.06,4.06,0,0,1,170.05,123.21Z" style="opacity:0.1"></path><path d="M170.05,123.2a4.06,4.06,0,0,0,2,3.11,23,23,0,0,0,8.13,3.18,62.14,62.14,0,0,0,23.9.26,22.86,22.86,0,0,0,8.2-3,4,4,0,0,0,2.1-3.07c0-4-9.85-7.43-22.1-7.56-11.93-.13-21.7,2.89-22.23,6.77C170.06,123,170.05,123.1,170.05,123.2Z" style="fill:#FFC727"></path><path d="M175,122.39a3.16,3.16,0,0,0,1.57,2.42,17.91,17.91,0,0,0,6.31,2.46,44.86,44.86,0,0,0,9.28,1,46.06,46.06,0,0,0,9.29-.79,18,18,0,0,0,6.37-2.33,3.12,3.12,0,0,0,1.62-2.39c0-3.13-7.64-5.77-17.16-5.87-9.26-.1-16.85,2.24-17.26,5.26A1.94,1.94,0,0,0,175,122.39Z" style="fill:#fff;opacity:0.30000000000000004"></path></g><g id="freepik--Coins--inject-41"><path d="M340.51,416.21l-.07,6.17c-.05,4,9.85,7.44,22.09,7.57s22.21-3,22.26-7.08l.07-6.18a4.09,4.09,0,0,1-2.1,3.07,23,23,0,0,1-8.2,3,62.66,62.66,0,0,1-23.9-.26,22.92,22.92,0,0,1-8.13-3.18C341.22,418.37,340.49,417.31,340.51,416.21Z" style="fill:#FFC727"></path><path d="M340.51,416.21l-.07,6.17c-.05,4,9.85,7.44,22.09,7.57s22.21-3,22.26-7.08l.07-6.18a4.09,4.09,0,0,1-2.1,3.07,23,23,0,0,1-8.2,3,62.66,62.66,0,0,1-23.9-.26,22.92,22.92,0,0,1-8.13-3.18C341.22,418.37,340.49,417.31,340.51,416.21Z" style="opacity:0.1"></path><path d="M340.51,416.2c0,1.1.71,2.16,2,3.11a22.92,22.92,0,0,0,8.13,3.18,62.14,62.14,0,0,0,23.9.26,22.86,22.86,0,0,0,8.2-3,4.07,4.07,0,0,0,2.1-3.07c0-4-9.85-7.43-22.11-7.56-11.92-.13-21.69,2.89-22.22,6.77C340.52,416,340.51,416.1,340.51,416.2Z" style="fill:#FFC727"></path><path d="M345.47,415.39A3.11,3.11,0,0,0,347,417.8a17.71,17.71,0,0,0,6.31,2.47,44.84,44.84,0,0,0,9.27,1,45.34,45.34,0,0,0,9.3-.8,17.72,17.72,0,0,0,6.37-2.33,3.12,3.12,0,0,0,1.62-2.38c0-3.13-7.65-5.77-17.16-5.87-9.27-.1-16.85,2.24-17.26,5.26A1.94,1.94,0,0,0,345.47,415.39Z" style="fill:#fff;opacity:0.30000000000000004"></path><path d="M402.47,402.37l-.07,6.18c0,4,9.85,7.43,22.09,7.57s22.22-3.05,22.26-7.08l.07-6.18a4,4,0,0,1-2.09,3.06,22.82,22.82,0,0,1-8.2,3,62.19,62.19,0,0,1-23.91-.26,22.87,22.87,0,0,1-8.12-3.17C403.19,404.53,402.46,403.47,402.47,402.37Z" style="fill:#FFC727"></path><path d="M402.47,402.37l-.07,6.18c0,4,9.85,7.43,22.09,7.57s22.22-3.05,22.26-7.08l.07-6.18a4,4,0,0,1-2.09,3.06,22.82,22.82,0,0,1-8.2,3,62.19,62.19,0,0,1-23.91-.26,22.87,22.87,0,0,1-8.12-3.17C403.19,404.53,402.46,403.47,402.47,402.37Z" style="opacity:0.1"></path><path d="M402.47,402.37a4,4,0,0,0,2,3.11,22.85,22.85,0,0,0,8.12,3.18,62.19,62.19,0,0,0,23.91.26,23.2,23.2,0,0,0,8.2-3,4,4,0,0,0,2.09-3.07c.05-4-9.85-7.43-22.1-7.56-11.93-.13-21.69,2.88-22.22,6.77A1.55,1.55,0,0,0,402.47,402.37Z" style="fill:#FFC727"></path><path d="M407.43,401.56A3.14,3.14,0,0,0,409,404a17.55,17.55,0,0,0,6.31,2.47,48.3,48.3,0,0,0,18.56.2,17.57,17.57,0,0,0,6.37-2.33,3.15,3.15,0,0,0,1.63-2.38c0-3.14-7.65-5.77-17.17-5.88-9.26-.1-16.85,2.25-17.26,5.26A2,2,0,0,0,407.43,401.56Z" style="fill:#fff;opacity:0.30000000000000004"></path><path d="M297.84,423.78l-.07,6.18c0,4,9.85,7.43,22.09,7.57s22.22-3,22.26-7.09l.07-6.18a4,4,0,0,1-2.09,3.07,23,23,0,0,1-8.21,3,62.14,62.14,0,0,1-23.9-.26,22.85,22.85,0,0,1-8.12-3.18A4,4,0,0,1,297.84,423.78Z" style="fill:#FFC727"></path><path d="M297.84,423.78l-.07,6.18c0,4,9.85,7.43,22.09,7.57s22.22-3,22.26-7.09l.07-6.18a4,4,0,0,1-2.09,3.07,23,23,0,0,1-8.21,3,62.14,62.14,0,0,1-23.9-.26,22.85,22.85,0,0,1-8.12-3.18A4,4,0,0,1,297.84,423.78Z" style="opacity:0.1"></path><path d="M297.84,423.78a4.06,4.06,0,0,0,2,3.11,23,23,0,0,0,8.12,3.18,59.44,59.44,0,0,0,11.94,1.28,58.68,58.68,0,0,0,12-1,23.18,23.18,0,0,0,8.21-3c1.33-.93,2.08-2,2.09-3.07,0-4-9.85-7.43-22.1-7.57-11.93-.13-21.7,2.89-22.22,6.77A1.73,1.73,0,0,0,297.84,423.78Z" style="fill:#FFC727"></path><path d="M302.8,423a3.14,3.14,0,0,0,1.58,2.42,18,18,0,0,0,6.3,2.47,48.35,48.35,0,0,0,18.57.2,17.76,17.76,0,0,0,6.37-2.33,3.16,3.16,0,0,0,1.63-2.38c0-3.14-7.65-5.77-17.17-5.88-9.26-.1-16.85,2.25-17.26,5.26A1.94,1.94,0,0,0,302.8,423Z" style="fill:#fff;opacity:0.30000000000000004"></path><path d="M140.43,425.52l-.06,6.18c-.05,4,9.85,7.43,22.09,7.57s22.21-3,22.26-7.09l.06-6.17a4,4,0,0,1-2.09,3.06,22.74,22.74,0,0,1-8.2,3,62.19,62.19,0,0,1-23.91-.26,22.93,22.93,0,0,1-8.12-3.18A4,4,0,0,1,140.43,425.52Z" style="fill:#FFC727"></path><path d="M140.43,425.52l-.06,6.18c-.05,4,9.85,7.43,22.09,7.57s22.21-3,22.26-7.09l.06-6.17a4,4,0,0,1-2.09,3.06,22.74,22.74,0,0,1-8.2,3,62.19,62.19,0,0,1-23.91-.26,22.93,22.93,0,0,1-8.12-3.18A4,4,0,0,1,140.43,425.52Z" style="opacity:0.1"></path><path d="M140.43,425.52a4,4,0,0,0,2,3.11,22.93,22.93,0,0,0,8.12,3.18,62.72,62.72,0,0,0,23.91.26,23.12,23.12,0,0,0,8.2-3c1.33-.93,2.08-2,2.09-3.07.05-4-9.84-7.43-22.1-7.57-11.93-.13-21.69,2.89-22.22,6.77Z" style="fill:#FFC727"></path><path d="M145.4,424.7a3.12,3.12,0,0,0,1.57,2.42,17.55,17.55,0,0,0,6.31,2.47,46.26,46.26,0,0,0,9.27,1,45.17,45.17,0,0,0,9.29-.8,17.9,17.9,0,0,0,6.38-2.33,3.15,3.15,0,0,0,1.62-2.38c0-3.14-7.65-5.77-17.16-5.88-9.27-.1-16.85,2.25-17.26,5.26A1.94,1.94,0,0,0,145.4,424.7Z" style="fill:#fff;opacity:0.30000000000000004"></path><path d="M262,408.82l-.07,6.18c-.05,4,9.85,7.43,22.09,7.56s22.21-3,22.26-7.08l.07-6.18a4.09,4.09,0,0,1-2.1,3.07,23.12,23.12,0,0,1-8.2,3,62.19,62.19,0,0,1-23.91-.26,22.93,22.93,0,0,1-8.12-3.18C262.7,411,262,409.92,262,408.82Z" style="fill:#FFC727"></path><path d="M262,408.82l-.07,6.18c-.05,4,9.85,7.43,22.09,7.56s22.21-3,22.26-7.08l.07-6.18a4.09,4.09,0,0,1-2.1,3.07,23.12,23.12,0,0,1-8.2,3,62.19,62.19,0,0,1-23.91-.26,22.93,22.93,0,0,1-8.12-3.18C262.7,411,262,409.92,262,408.82Z" style="opacity:0.1"></path><path d="M262,408.81c0,1.1.71,2.16,2,3.11a22.93,22.93,0,0,0,8.12,3.18,62.19,62.19,0,0,0,23.91.26,22.93,22.93,0,0,0,8.2-3,4.07,4.07,0,0,0,2.1-3.06c0-4-9.85-7.44-22.11-7.57-11.92-.13-21.69,2.89-22.22,6.77C262,408.6,262,408.71,262,408.81Z" style="fill:#FFC727"></path><path d="M267,408a3.14,3.14,0,0,0,1.57,2.42,17.91,17.91,0,0,0,6.31,2.46,44.84,44.84,0,0,0,9.27,1,46.09,46.09,0,0,0,9.3-.79,18.1,18.1,0,0,0,6.37-2.33,3.15,3.15,0,0,0,1.62-2.39c0-3.13-7.65-5.77-17.16-5.87-9.27-.1-16.85,2.24-17.26,5.26A1.94,1.94,0,0,0,267,408Z" style="fill:#fff;opacity:0.30000000000000004"></path><path d="M157.61,396.07l-.06,6.18c-.05,4,9.84,7.43,22.09,7.57s22.21-3.05,22.26-7.09l.06-6.17a4,4,0,0,1-2.09,3.06,22.74,22.74,0,0,1-8.2,3,62.19,62.19,0,0,1-23.91-.26,22.93,22.93,0,0,1-8.12-3.18A4,4,0,0,1,157.61,396.07Z" style="fill:#FFC727"></path><path d="M157.61,396.07l-.06,6.18c-.05,4,9.84,7.43,22.09,7.57s22.21-3.05,22.26-7.09l.06-6.17a4,4,0,0,1-2.09,3.06,22.74,22.74,0,0,1-8.2,3,62.19,62.19,0,0,1-23.91-.26,22.93,22.93,0,0,1-8.12-3.18A4,4,0,0,1,157.61,396.07Z" style="opacity:0.1"></path><path d="M157.61,396.07a4,4,0,0,0,2,3.11,22.93,22.93,0,0,0,8.12,3.18,62.72,62.72,0,0,0,23.91.26,23.12,23.12,0,0,0,8.2-3c1.33-.93,2.08-2,2.09-3.07,0-4-9.84-7.43-22.1-7.57-11.93-.13-21.69,2.89-22.22,6.77C157.63,395.86,157.61,396,157.61,396.07Z" style="fill:#FFC727"></path><path d="M162.58,395.25a3.12,3.12,0,0,0,1.57,2.42,17.55,17.55,0,0,0,6.31,2.47,46.26,46.26,0,0,0,9.27,1,45.17,45.17,0,0,0,9.29-.8,17.76,17.76,0,0,0,6.37-2.33,3.14,3.14,0,0,0,1.63-2.38c0-3.14-7.65-5.77-17.16-5.88-9.27-.1-16.85,2.25-17.26,5.26A1.94,1.94,0,0,0,162.58,395.25Z" style="fill:#fff;opacity:0.30000000000000004"></path><path d="M303.71,402.52l1.62,6c1.06,3.9,11.5,4.47,23.32,1.25s20.54-9,19.48-12.89l-1.62-6a4.06,4.06,0,0,1-1.18,3.52,23.08,23.08,0,0,1-7.07,5.13,62.38,62.38,0,0,1-23.07,6.27,23,23,0,0,1-8.68-.84A4.05,4.05,0,0,1,303.71,402.52Z" style="fill:#FFC727"></path><path d="M303.71,402.52l1.62,6c1.06,3.9,11.5,4.47,23.32,1.25s20.54-9,19.48-12.89l-1.62-6a4.06,4.06,0,0,1-1.18,3.52,23.08,23.08,0,0,1-7.07,5.13,62.38,62.38,0,0,1-23.07,6.27,23,23,0,0,1-8.68-.84A4.05,4.05,0,0,1,303.71,402.52Z" style="opacity:0.1"></path><path d="M303.71,402.52A4.05,4.05,0,0,0,306.5,405a23,23,0,0,0,8.69.84,62.14,62.14,0,0,0,23.07-6.28,23.2,23.2,0,0,0,7.07-5.12c1-1.26,1.46-2.47,1.17-3.53-1.06-3.89-11.5-4.46-23.32-1.24-11.51,3.13-20.09,8.7-19.53,12.58A1.7,1.7,0,0,0,303.71,402.52Z" style="fill:#FFC727"></path><path d="M308.26,400.38a3.15,3.15,0,0,0,2.17,1.9,18.07,18.07,0,0,0,6.75.65,48.25,48.25,0,0,0,17.91-4.88,17.72,17.72,0,0,0,5.49-4,3.14,3.14,0,0,0,.92-2.73c-.83-3-8.94-3.47-18.12-1-8.94,2.43-15.6,6.76-15.17,9.77A2,2,0,0,0,308.26,400.38Z" style="fill:#fff;opacity:0.30000000000000004"></path><path d="M388.12,377.33l-2.13,5.8c-1.4,3.79,6.78,10.3,18.27,14.53s21.95,4.58,23.35.79l2.13-5.8a4,4,0,0,1-3,2.19,23.1,23.1,0,0,1-8.73.08,62.63,62.63,0,0,1-22.44-8.26,23,23,0,0,1-6.58-5.72C388.07,379.6,387.74,378.36,388.12,377.33Z" style="fill:#FFC727"></path><path d="M388.12,377.33l-2.13,5.8c-1.4,3.79,6.78,10.3,18.27,14.53s21.95,4.58,23.35.79l2.13-5.8a4,4,0,0,1-3,2.19,23.1,23.1,0,0,1-8.73.08,62.63,62.63,0,0,1-22.44-8.26,23,23,0,0,1-6.58-5.72C388.07,379.6,387.74,378.36,388.12,377.33Z" style="opacity:0.1"></path><path d="M388.12,377.32a4,4,0,0,0,.87,3.61,22.61,22.61,0,0,0,6.59,5.72A62,62,0,0,0,418,394.91a22.89,22.89,0,0,0,8.73-.08,4,4,0,0,0,3-2.18c1.4-3.79-6.78-10.31-18.28-14.54-11.2-4.12-21.41-4.55-23.21-1.07A2.39,2.39,0,0,0,388.12,377.32Z" style="fill:#FFC727"></path><path d="M393.07,378.22a3.11,3.11,0,0,0,.67,2.8,17.8,17.8,0,0,0,5.12,4.45,46,46,0,0,0,8.4,4,45.25,45.25,0,0,0,9,2.36,17.7,17.7,0,0,0,6.78-.06,3.12,3.12,0,0,0,2.33-1.7c1.09-2.94-5.27-8-14.2-11.29-8.69-3.2-16.62-3.53-18-.83A1.47,1.47,0,0,0,393.07,378.22Z" style="fill:#fff;opacity:0.30000000000000004"></path><path d="M273.88,393.63l-.06,6.18c-.05,4,9.84,7.43,22.09,7.57s22.21-3.05,22.26-7.09l.06-6.18a4,4,0,0,1-2.09,3.07,22.93,22.93,0,0,1-8.2,3,62.19,62.19,0,0,1-23.91-.26,22.93,22.93,0,0,1-8.12-3.18A4,4,0,0,1,273.88,393.63Z" style="fill:#FFC727"></path><path d="M273.88,393.63l-.06,6.18c-.05,4,9.84,7.43,22.09,7.57s22.21-3.05,22.26-7.09l.06-6.18a4,4,0,0,1-2.09,3.07,22.93,22.93,0,0,1-8.2,3,62.19,62.19,0,0,1-23.91-.26,22.93,22.93,0,0,1-8.12-3.18A4,4,0,0,1,273.88,393.63Z" style="opacity:0.1"></path><path d="M273.88,393.63a4.06,4.06,0,0,0,2,3.11,23.12,23.12,0,0,0,8.12,3.18A59.52,59.52,0,0,0,296,401.2a58.85,58.85,0,0,0,12-1,23.12,23.12,0,0,0,8.2-3c1.33-.93,2.08-2,2.09-3.07,0-4-9.84-7.43-22.1-7.57-11.93-.13-21.69,2.89-22.22,6.77Z" style="fill:#FFC727"></path><path d="M278.85,392.81a3.12,3.12,0,0,0,1.57,2.42,18,18,0,0,0,6.31,2.47,48.3,48.3,0,0,0,18.56.2,17.9,17.9,0,0,0,6.38-2.33,3.15,3.15,0,0,0,1.62-2.38c0-3.14-7.65-5.77-17.16-5.88-9.27-.1-16.85,2.25-17.26,5.26A1.94,1.94,0,0,0,278.85,392.81Z" style="fill:#fff;opacity:0.30000000000000004"></path><path d="M191.17,389.42l-.07,6.17c0,4,9.85,7.44,22.09,7.57s22.22-3.05,22.26-7.08l.07-6.18a4,4,0,0,1-2.09,3.06,23,23,0,0,1-8.21,3,62.4,62.4,0,0,1-23.9-.27,22.87,22.87,0,0,1-8.12-3.17A4.06,4.06,0,0,1,191.17,389.42Z" style="fill:#FFC727"></path><path d="M191.17,389.42l-.07,6.17c0,4,9.85,7.44,22.09,7.57s22.22-3.05,22.26-7.08l.07-6.18a4,4,0,0,1-2.09,3.06,23,23,0,0,1-8.21,3,62.4,62.4,0,0,1-23.9-.27,22.87,22.87,0,0,1-8.12-3.17A4.06,4.06,0,0,1,191.17,389.42Z" style="opacity:0.1"></path><path d="M191.17,389.41a4,4,0,0,0,2,3.11,22.85,22.85,0,0,0,8.12,3.18A58.68,58.68,0,0,0,213.26,397a59.36,59.36,0,0,0,12-1,23,23,0,0,0,8.21-3,4,4,0,0,0,2.09-3.07c0-4-9.85-7.43-22.1-7.56-11.93-.13-21.7,2.88-22.22,6.77A1.63,1.63,0,0,0,191.17,389.41Z" style="fill:#FFC727"></path><path d="M196.13,388.6a3.14,3.14,0,0,0,1.58,2.41,17.55,17.55,0,0,0,6.31,2.47,48.3,48.3,0,0,0,18.56.2,17.57,17.57,0,0,0,6.37-2.33,3.13,3.13,0,0,0,1.63-2.38c0-3.13-7.65-5.77-17.17-5.87-9.26-.11-16.85,2.24-17.26,5.25A2.29,2.29,0,0,0,196.13,388.6Z" style="fill:#fff;opacity:0.30000000000000004"></path><path d="M180.51,385.34l-2.64,5.58c-1.73,3.65,5.85,10.87,16.92,16.09s21.46,6.5,23.18,2.85l2.64-5.59c-.47,1-1.59,1.63-3.18,1.92a23,23,0,0,1-8.71-.7,62.07,62.07,0,0,1-21.61-10.2,22.9,22.9,0,0,1-6.06-6.28A4,4,0,0,1,180.51,385.34Z" style="fill:#FFC727"></path><path d="M180.51,385.34l-2.64,5.58c-1.73,3.65,5.85,10.87,16.92,16.09s21.46,6.5,23.18,2.85l2.64-5.59c-.47,1-1.59,1.63-3.18,1.92a23,23,0,0,1-8.71-.7,62.07,62.07,0,0,1-21.61-10.2,22.9,22.9,0,0,1-6.06-6.28A4,4,0,0,1,180.51,385.34Z" style="opacity:0.1"></path><path d="M180.51,385.33a4,4,0,0,0,.54,3.67,22.9,22.9,0,0,0,6.06,6.28,59.36,59.36,0,0,0,10.31,6.15,58.59,58.59,0,0,0,11.31,4.06,22.75,22.75,0,0,0,8.7.69c1.6-.28,2.72-.92,3.18-1.91,1.73-3.65-5.84-10.86-16.93-16.1-10.78-5.09-20.92-6.42-23-3.11C180.61,385.15,180.55,385.24,180.51,385.33Z" style="fill:#FFC727"></path><path d="M185.36,386.66a3.1,3.1,0,0,0,.42,2.85,17.92,17.92,0,0,0,4.7,4.88,48.49,48.49,0,0,0,16.79,7.93,17.89,17.89,0,0,0,6.77.54,3.17,3.17,0,0,0,2.47-1.49c1.34-2.84-4.55-8.44-13.15-12.5-8.38-4-16.25-5-17.88-2.42A2.25,2.25,0,0,0,185.36,386.66Z" style="fill:#fff;opacity:0.30000000000000004"></path><path d="M225.55,383.58l-1.47,6c-1,3.93,7.89,9.48,19.78,12.4s22.33,2.1,23.29-1.82l1.48-6a4.08,4.08,0,0,1-2.74,2.51,23,23,0,0,1-8.67,1.05A62.47,62.47,0,0,1,234,392a22.8,22.8,0,0,1-7.18-4.95A4,4,0,0,1,225.55,383.58Z" style="fill:#FFC727"></path><path d="M225.55,383.58l-1.47,6c-1,3.93,7.89,9.48,19.78,12.4s22.33,2.1,23.29-1.82l1.48-6a4.08,4.08,0,0,1-2.74,2.51,23,23,0,0,1-8.67,1.05A62.47,62.47,0,0,1,234,392a22.8,22.8,0,0,1-7.18-4.95A4,4,0,0,1,225.55,383.58Z" style="opacity:0.1"></path><path d="M225.55,383.58c-.26,1.06.21,2.26,1.27,3.49A22.92,22.92,0,0,0,234,392a62.36,62.36,0,0,0,23.22,5.71,22.9,22.9,0,0,0,8.67-1.06,4,4,0,0,0,2.74-2.51c1-3.92-7.9-9.48-19.8-12.4-11.58-2.84-21.78-2.13-23.18,1.53Z" style="fill:#FFC727"></path><path d="M230.57,383.92a3.15,3.15,0,0,0,1,2.71,17.78,17.78,0,0,0,5.58,3.84,48.27,48.27,0,0,0,18,4.43,17.92,17.92,0,0,0,6.74-.82,3.11,3.11,0,0,0,2.12-1.95c.75-3.05-6.13-7.36-15.37-9.63-9-2.21-16.92-1.66-18,1.19A1.55,1.55,0,0,0,230.57,383.92Z" style="fill:#fff;opacity:0.30000000000000004"></path><path d="M229.53,415.71l-.06,6.18c-.05,4,9.84,7.43,22.09,7.56s22.21-3,22.26-7.08l.06-6.18a4,4,0,0,1-2.09,3.07,22.93,22.93,0,0,1-8.2,3,59.53,59.53,0,0,1-12,1A58.76,58.76,0,0,1,239.68,422a22.93,22.93,0,0,1-8.12-3.18A4,4,0,0,1,229.53,415.71Z" style="fill:#FFC727"></path><path d="M229.53,415.71l-.06,6.18c-.05,4,9.84,7.43,22.09,7.56s22.21-3,22.26-7.08l.06-6.18a4,4,0,0,1-2.09,3.07,22.93,22.93,0,0,1-8.2,3,59.53,59.53,0,0,1-12,1A58.76,58.76,0,0,1,239.68,422a22.93,22.93,0,0,1-8.12-3.18A4,4,0,0,1,229.53,415.71Z" style="opacity:0.1"></path><path d="M229.53,415.7c0,1.1.72,2.16,2,3.12a23,23,0,0,0,8.12,3.17,62.19,62.19,0,0,0,23.91.26,22.74,22.74,0,0,0,8.2-3,4,4,0,0,0,2.09-3.06c.05-4-9.84-7.44-22.1-7.57-11.93-.13-21.69,2.89-22.22,6.77C229.55,415.5,229.53,415.6,229.53,415.7Z" style="fill:#FFC727"></path><path d="M234.5,414.89a3.14,3.14,0,0,0,1.57,2.42,17.93,17.93,0,0,0,6.31,2.47,48.3,48.3,0,0,0,18.56.2,18,18,0,0,0,6.37-2.33,3.14,3.14,0,0,0,1.63-2.38c0-3.14-7.65-5.78-17.16-5.88-9.27-.1-16.85,2.24-17.26,5.26A1.94,1.94,0,0,0,234.5,414.89Z" style="fill:#fff;opacity:0.30000000000000004"></path><path d="M184.83,432.62l-.06,6.17c-.05,4,9.84,7.44,22.08,7.57s22.22-3.05,22.27-7.08l.06-6.18a4,4,0,0,1-2.09,3.06,23,23,0,0,1-8.2,3,58.85,58.85,0,0,1-12,1A59.52,59.52,0,0,1,195,438.91a23,23,0,0,1-8.12-3.18A4.06,4.06,0,0,1,184.83,432.62Z" style="fill:#FFC727"></path><path d="M184.83,432.62l-.06,6.17c-.05,4,9.84,7.44,22.08,7.57s22.22-3.05,22.27-7.08l.06-6.18a4,4,0,0,1-2.09,3.06,23,23,0,0,1-8.2,3,58.85,58.85,0,0,1-12,1A59.52,59.52,0,0,1,195,438.91a23,23,0,0,1-8.12-3.18A4.06,4.06,0,0,1,184.83,432.62Z" style="opacity:0.1"></path><path d="M184.83,432.61a4,4,0,0,0,2,3.11A22.85,22.85,0,0,0,195,438.9a58.76,58.76,0,0,0,11.94,1.29,59.53,59.53,0,0,0,12-1,23,23,0,0,0,8.2-3,4,4,0,0,0,2.09-3.07c0-4-9.85-7.43-22.1-7.56-11.93-.13-21.69,2.88-22.22,6.77C184.85,432.4,184.83,432.51,184.83,432.61Z" style="fill:#FFC727"></path><path d="M189.79,431.8a3.16,3.16,0,0,0,1.58,2.41,17.55,17.55,0,0,0,6.31,2.47,48.3,48.3,0,0,0,18.56.2,17.57,17.57,0,0,0,6.37-2.33,3.11,3.11,0,0,0,1.63-2.38c0-3.13-7.65-5.77-17.17-5.87-9.26-.11-16.84,2.24-17.25,5.25Z" style="fill:#fff;opacity:0.30000000000000004"></path><path d="M269.32,434.45l2.4,5.7c1.56,3.72,12,2.89,23.27-1.86s19.17-11.64,17.6-15.36l-2.4-5.7c.43,1,.15,2.27-.7,3.65a22.93,22.93,0,0,1-6.33,6,58.87,58.87,0,0,1-10.56,5.71,59.71,59.71,0,0,1-11.47,3.57,23,23,0,0,1-8.72.32A4,4,0,0,1,269.32,434.45Z" style="fill:#FFC727"></path><path d="M269.32,434.45l2.4,5.7c1.56,3.72,12,2.89,23.27-1.86s19.17-11.64,17.6-15.36l-2.4-5.7c.43,1,.15,2.27-.7,3.65a22.93,22.93,0,0,1-6.33,6,58.87,58.87,0,0,1-10.56,5.71,59.71,59.71,0,0,1-11.47,3.57,23,23,0,0,1-8.72.32A4,4,0,0,1,269.32,434.45Z" style="opacity:0.1"></path><path d="M269.31,434.45a4.05,4.05,0,0,0,3.1,2,22.78,22.78,0,0,0,8.72-.32,58.05,58.05,0,0,0,11.46-3.57,58.64,58.64,0,0,0,10.57-5.71,23.06,23.06,0,0,0,6.33-6c.85-1.38,1.13-2.64.7-3.65-1.57-3.72-12-2.9-23.29,1.86-11,4.63-18.75,11.29-17.69,15.06C269.24,434.25,269.27,434.35,269.31,434.45Z" style="fill:#FFC727"></path><path d="M273.54,431.72a3.16,3.16,0,0,0,2.41,1.6,18.11,18.11,0,0,0,6.77-.25,48.64,48.64,0,0,0,17.11-7.21,17.7,17.7,0,0,0,4.92-4.68,3.14,3.14,0,0,0,.54-2.83c-1.22-2.89-9.32-2.25-18.09,1.45-8.54,3.59-14.56,8.76-13.73,11.69A1.55,1.55,0,0,0,273.54,431.72Z" style="fill:#fff;opacity:0.30000000000000004"></path><path d="M58.58,395.17l-.07,6.18c0,4,9.85,7.43,22.09,7.57s22.22-3.05,22.26-7.09l.07-6.17a4,4,0,0,1-2.09,3.06,22.8,22.8,0,0,1-8.21,3,62.14,62.14,0,0,1-23.9-.26,22.67,22.67,0,0,1-8.12-3.18A4,4,0,0,1,58.58,395.17Z" style="fill:#FFC727"></path><path d="M58.58,395.17l-.07,6.18c0,4,9.85,7.43,22.09,7.57s22.22-3.05,22.26-7.09l.07-6.17a4,4,0,0,1-2.09,3.06,22.8,22.8,0,0,1-8.21,3,62.14,62.14,0,0,1-23.9-.26,22.67,22.67,0,0,1-8.12-3.18A4,4,0,0,1,58.58,395.17Z" style="opacity:0.1"></path><path d="M58.58,395.17a4,4,0,0,0,2,3.11,22.85,22.85,0,0,0,8.12,3.18,62.67,62.67,0,0,0,23.9.26,23.18,23.18,0,0,0,8.21-3c1.33-.93,2.08-2,2.09-3.07,0-4-9.85-7.43-22.1-7.57C68.9,388,59.14,391,58.61,394.85A1.73,1.73,0,0,0,58.58,395.17Z" style="fill:#FFC727"></path><path d="M63.54,394.35a3.14,3.14,0,0,0,1.58,2.42,17.55,17.55,0,0,0,6.31,2.47,46.17,46.17,0,0,0,9.27,1,45.23,45.23,0,0,0,9.29-.8,17.76,17.76,0,0,0,6.37-2.33A3.16,3.16,0,0,0,98,394.73c0-3.14-7.65-5.77-17.17-5.88-9.26-.1-16.85,2.25-17.26,5.26A1.94,1.94,0,0,0,63.54,394.35Z" style="fill:#fff;opacity:0.30000000000000004"></path><path d="M166.89,411.9l-.07,6.18c0,4,9.85,7.44,22.09,7.57s22.22-3,22.26-7.08l.07-6.18a4,4,0,0,1-2.09,3.06,22.82,22.82,0,0,1-8.2,3,62.19,62.19,0,0,1-23.91-.26,22.87,22.87,0,0,1-8.12-3.17C167.61,414.06,166.88,413,166.89,411.9Z" style="fill:#FFC727"></path><path d="M166.89,411.9l-.07,6.18c0,4,9.85,7.44,22.09,7.57s22.22-3,22.26-7.08l.07-6.18a4,4,0,0,1-2.09,3.06,22.82,22.82,0,0,1-8.2,3,62.19,62.19,0,0,1-23.91-.26,22.87,22.87,0,0,1-8.12-3.17C167.61,414.06,166.88,413,166.89,411.9Z" style="opacity:0.1"></path><path d="M166.89,411.9a4,4,0,0,0,2,3.11,22.85,22.85,0,0,0,8.12,3.18,62.19,62.19,0,0,0,23.91.26,23.2,23.2,0,0,0,8.2-3,4,4,0,0,0,2.09-3.07c0-4-9.85-7.43-22.1-7.56-11.93-.13-21.69,2.88-22.22,6.77A1.55,1.55,0,0,0,166.89,411.9Z" style="fill:#FFC727"></path><path d="M171.85,411.09a3.14,3.14,0,0,0,1.58,2.41,17.55,17.55,0,0,0,6.31,2.47,48.3,48.3,0,0,0,18.56.2,17.57,17.57,0,0,0,6.37-2.33,3.15,3.15,0,0,0,1.63-2.38c0-3.14-7.65-5.77-17.17-5.87-9.26-.11-16.85,2.24-17.26,5.25A2,2,0,0,0,171.85,411.09Z" style="fill:#fff;opacity:0.30000000000000004"></path><path d="M87.53,409l-.06,6.18c0,4,9.84,7.43,22.09,7.56s22.21-3,22.26-7.08l.06-6.18a4,4,0,0,1-2.09,3.07,23,23,0,0,1-8.2,3,59.53,59.53,0,0,1-12,1,58.76,58.76,0,0,1-11.94-1.29,22.93,22.93,0,0,1-8.12-3.18A4,4,0,0,1,87.53,409Z" style="fill:#FFC727"></path><path d="M87.53,409l-.06,6.18c0,4,9.84,7.43,22.09,7.56s22.21-3,22.26-7.08l.06-6.18a4,4,0,0,1-2.09,3.07,23,23,0,0,1-8.2,3,59.53,59.53,0,0,1-12,1,58.76,58.76,0,0,1-11.94-1.29,22.93,22.93,0,0,1-8.12-3.18A4,4,0,0,1,87.53,409Z" style="opacity:0.1"></path><path d="M87.53,409c0,1.1.72,2.16,2,3.12a23,23,0,0,0,8.12,3.17,62.19,62.19,0,0,0,23.91.26,22.82,22.82,0,0,0,8.2-3,4,4,0,0,0,2.09-3.06c.05-4-9.85-7.44-22.1-7.57-11.93-.13-21.69,2.89-22.22,6.77C87.55,408.83,87.53,408.93,87.53,409Z" style="fill:#FFC727"></path><path d="M92.5,408.22a3.14,3.14,0,0,0,1.57,2.42,17.93,17.93,0,0,0,6.31,2.47,48.83,48.83,0,0,0,18.56.2,18,18,0,0,0,6.37-2.33,3.14,3.14,0,0,0,1.63-2.38c0-3.14-7.65-5.78-17.17-5.88-9.26-.1-16.84,2.24-17.25,5.26A1.94,1.94,0,0,0,92.5,408.22Z" style="fill:#fff;opacity:0.30000000000000004"></path><path d="M53.22,410.09l1.17,6.07c.77,4,11.14,5.31,23.16,3s21.16-7.43,20.39-11.39l-1.17-6.07c.21,1.08-.32,2.25-1.44,3.42a22.82,22.82,0,0,1-7.43,4.58,58.57,58.57,0,0,1-11.52,3.4,58.53,58.53,0,0,1-12,1.13,22.79,22.79,0,0,1-8.59-1.49A4.05,4.05,0,0,1,53.22,410.09Z" style="fill:#FFC727"></path><path d="M53.22,410.09l1.17,6.07c.77,4,11.14,5.31,23.16,3s21.16-7.43,20.39-11.39l-1.17-6.07c.21,1.08-.32,2.25-1.44,3.42a22.82,22.82,0,0,1-7.43,4.58,58.57,58.57,0,0,1-11.52,3.4,58.53,58.53,0,0,1-12,1.13,22.79,22.79,0,0,1-8.59-1.49A4.05,4.05,0,0,1,53.22,410.09Z" style="opacity:0.1"></path><path d="M53.22,410.08a4.06,4.06,0,0,0,2.61,2.65,23,23,0,0,0,8.59,1.49,59.24,59.24,0,0,0,12-1.13,58.57,58.57,0,0,0,11.52-3.4,23,23,0,0,0,7.43-4.58,4,4,0,0,0,1.44-3.43c-.76-4-11.14-5.31-23.17-3-11.71,2.26-20.68,7.17-20.42,11.08A2.91,2.91,0,0,0,53.22,410.08Z" style="fill:#FFC727"></path><path d="M57.92,408.3a3.14,3.14,0,0,0,2,2.05,17.71,17.71,0,0,0,6.67,1.15,45.39,45.39,0,0,0,9.29-.87A46.08,46.08,0,0,0,84.85,408a17.89,17.89,0,0,0,5.78-3.56,3.16,3.16,0,0,0,1.11-2.66c-.59-3.08-8.65-4.12-18-2.32-9.1,1.75-16.06,5.57-15.86,8.6A1.9,1.9,0,0,0,57.92,408.3Z" style="fill:#fff;opacity:0.30000000000000004"></path><path d="M290.69,379.66l2.81,5.51c1.83,3.59,12.17,2,23.07-3.54s18.28-13,16.44-16.6l-2.8-5.5c.5,1,.32,2.25-.43,3.69a23.24,23.24,0,0,1-5.88,6.46,62.72,62.72,0,0,1-21.3,10.85,23,23,0,0,1-8.67,1A4.06,4.06,0,0,1,290.69,379.66Z" style="fill:#FFC727"></path><path d="M290.69,379.66l2.81,5.51c1.83,3.59,12.17,2,23.07-3.54s18.28-13,16.44-16.6l-2.8-5.5c.5,1,.32,2.25-.43,3.69a23.24,23.24,0,0,1-5.88,6.46,62.72,62.72,0,0,1-21.3,10.85,23,23,0,0,1-8.67,1A4.06,4.06,0,0,1,290.69,379.66Z" style="opacity:0.1"></path><path d="M290.69,379.66a4,4,0,0,0,3.24,1.81,22.76,22.76,0,0,0,8.67-1,62.25,62.25,0,0,0,21.3-10.85,22.91,22.91,0,0,0,5.87-6.46,4,4,0,0,0,.44-3.69c-1.84-3.6-12.17-2-23.09,3.54-10.63,5.42-17.89,12.62-16.55,16.31A2.24,2.24,0,0,0,290.69,379.66Z" style="fill:#FFC727"></path><path d="M294.71,376.63a3.12,3.12,0,0,0,2.51,1.42,17.89,17.89,0,0,0,6.74-.74,48.14,48.14,0,0,0,16.54-8.43,17.57,17.57,0,0,0,4.56-5,3.1,3.1,0,0,0,.34-2.86c-1.42-2.8-9.45-1.57-17.93,2.75-8.26,4.21-13.89,9.8-12.86,12.66A1.47,1.47,0,0,0,294.71,376.63Z" style="fill:#fff;opacity:0.30000000000000004"></path><path d="M300.59,352l1,6.09c.67,4,11,5.58,23.08,3.55s21.32-6.93,20.65-10.91l-1-6.09a4.05,4.05,0,0,1-1.52,3.39,23.12,23.12,0,0,1-7.54,4.4,62.68,62.68,0,0,1-23.58,4,22.94,22.94,0,0,1-8.55-1.7A4,4,0,0,1,300.59,352Z" style="fill:#FFC727"></path><path d="M300.59,352l1,6.09c.67,4,11,5.58,23.08,3.55s21.32-6.93,20.65-10.91l-1-6.09a4.05,4.05,0,0,1-1.52,3.39,23.12,23.12,0,0,1-7.54,4.4,62.68,62.68,0,0,1-23.58,4,22.94,22.94,0,0,1-8.55-1.7A4,4,0,0,1,300.59,352Z" style="opacity:0.1"></path><path d="M300.59,351.94c.18,1.09,1.09,2,2.54,2.71a23.07,23.07,0,0,0,8.56,1.69,62.16,62.16,0,0,0,23.58-4,22.94,22.94,0,0,0,7.54-4.4,4,4,0,0,0,1.52-3.39c-.67-4-11-5.57-23.09-3.54-11.77,2-20.84,6.68-20.68,10.59C300.57,351.73,300.57,351.84,300.59,351.94Z" style="fill:#FFC727"></path><path d="M305.33,350.27a3.15,3.15,0,0,0,2,2.1,17.92,17.92,0,0,0,6.64,1.31,48.15,48.15,0,0,0,18.31-3.08,17.71,17.71,0,0,0,5.86-3.42,3.15,3.15,0,0,0,1.18-2.63c-.52-3.09-8.55-4.33-17.93-2.75-9.14,1.54-16.19,5.18-16.06,8.22A2.11,2.11,0,0,0,305.33,350.27Z" style="fill:#fff;opacity:0.30000000000000004"></path></g><g id="freepik--Sparkles--inject-41"><polygon points="178.25 377.24 189.17 379.26 191.6 390.76 194.04 379.26 204.95 377.23 194.09 374.58 191.6 363.71 189.12 374.58 178.25 377.24" style="fill:#FFC727"></polygon><polygon points="151.71 106.97 162.62 108.99 165.06 120.49 167.49 108.99 178.4 106.97 167.54 104.31 165.06 93.45 162.57 104.31 151.71 106.97" style="fill:#FFC727"></polygon><polygon points="265.22 129.53 271.32 130.66 272.68 137.09 274.05 130.66 280.14 129.53 274.07 128.05 272.68 121.98 271.29 128.05 265.22 129.53" style="fill:#FFC727"></polygon><polygon points="333.05 197.44 339.14 198.56 340.51 204.99 341.87 198.56 347.97 197.43 341.89 195.95 340.51 189.88 339.12 195.95 333.05 197.44" style="fill:#FFC727"></polygon><polygon points="61.89 398.99 67.99 400.12 69.35 406.55 70.71 400.12 76.81 398.99 70.74 397.51 69.35 391.43 67.96 397.51 61.89 398.99" style="fill:#FFC727"></polygon><polygon points="165.33 393.87 171.43 395 172.79 401.43 174.16 395 180.25 393.87 174.18 392.39 172.79 386.31 171.41 392.39 165.33 393.87" style="fill:#FFC727"></polygon><polygon points="180.44 133.63 186.53 134.76 187.9 141.19 189.26 134.76 195.36 133.63 189.28 132.15 187.9 126.07 186.51 132.15 180.44 133.63" style="fill:#FFC727"></polygon><polygon points="121.8 183.22 127.9 184.35 129.26 190.78 130.63 184.35 136.72 183.22 130.65 181.74 129.26 175.66 127.88 181.74 121.8 183.22" style="fill:#FFC727"></polygon><polygon points="316.71 394.55 322.81 395.68 324.17 402.1 325.53 395.68 331.63 394.55 325.56 393.06 324.17 386.99 322.78 393.06 316.71 394.55" style="fill:#FFC727"></polygon><polygon points="368.57 415.23 374.66 416.36 376.03 422.79 377.39 416.36 383.49 415.23 377.42 413.75 376.03 407.68 374.64 413.75 368.57 415.23" style="fill:#FFC727"></polygon><polygon points="343.9 109.19 350 110.31 351.36 116.74 352.72 110.31 358.82 109.18 352.75 107.7 351.36 101.63 349.97 107.7 343.9 109.19" style="fill:#FFC727"></polygon><path d="M440.25,400.78a1.77,1.77,0,0,1,0,3.53A1.77,1.77,0,0,1,440.25,400.78Z" style="fill:#FFC727"></path><path d="M217.59,103.83a1.77,1.77,0,0,1,0,3.53A1.77,1.77,0,0,1,217.59,103.83Z" style="fill:#FFC727"></path><path d="M413.1,386.77a1.77,1.77,0,0,1,0,3.54A1.77,1.77,0,0,1,413.1,386.77Z" style="fill:#FFC727"></path><path d="M311.22,123.81a1.77,1.77,0,0,1,0,3.54A1.77,1.77,0,0,1,311.22,123.81Z" style="fill:#FFC727"></path><path d="M226.68,386.15a1.77,1.77,0,0,1,0,3.53A1.77,1.77,0,0,1,226.68,386.15Z" style="fill:#FFC727"></path><path d="M89.12,393.23a1.26,1.26,0,0,1,0,2.51A1.26,1.26,0,0,1,89.12,393.23Z" style="fill:#FFC727"></path><path d="M155.66,421.32a1.25,1.25,0,0,1,0,2.5A1.25,1.25,0,0,1,155.66,421.32Z" style="fill:#FFC727"></path><path d="M282.65,427.6a1.25,1.25,0,0,1,0,2.5A1.25,1.25,0,0,1,282.65,427.6Z" style="fill:#FFC727"></path><path d="M305.67,101.73a1.25,1.25,0,0,1,0,2.5A1.25,1.25,0,0,1,305.67,101.73Z" style="fill:#FFC727"></path><path d="M234.81,94.31c4.36,0,4.37,6.78,0,6.78S230.44,94.31,234.81,94.31Z" style="fill:#FFC727"></path><path d="M292.1,416.09c4.36,0,4.37,6.78,0,6.78S287.73,416.09,292.1,416.09Z" style="fill:#FFC727"></path><path d="M322.46,350.32c4.36,0,4.37,6.78,0,6.78S318.09,350.32,322.46,350.32Z" style="fill:#FFC727"></path><g style="opacity:0.8"><polygon points="178.25 377.24 189.17 379.26 191.6 390.76 194.04 379.26 204.95 377.23 194.09 374.58 191.6 363.71 189.12 374.58 178.25 377.24" style="fill:#fff"></polygon><polygon points="151.71 106.97 162.62 108.99 165.06 120.49 167.49 108.99 178.4 106.97 167.54 104.31 165.06 93.45 162.57 104.31 151.71 106.97" style="fill:#fff"></polygon><polygon points="265.22 129.53 271.32 130.66 272.68 137.09 274.05 130.66 280.14 129.53 274.07 128.05 272.68 121.98 271.29 128.05 265.22 129.53" style="fill:#fff"></polygon><polygon points="333.05 197.44 339.14 198.56 340.51 204.99 341.87 198.56 347.97 197.43 341.89 195.95 340.51 189.88 339.12 195.95 333.05 197.44" style="fill:#fff"></polygon><polygon points="61.89 398.99 67.99 400.12 69.35 406.55 70.71 400.12 76.81 398.99 70.74 397.51 69.35 391.43 67.96 397.51 61.89 398.99" style="fill:#fff"></polygon><polygon points="165.33 393.87 171.43 395 172.79 401.43 174.16 395 180.25 393.87 174.18 392.39 172.79 386.31 171.41 392.39 165.33 393.87" style="fill:#fff"></polygon><polygon points="180.44 133.63 186.53 134.76 187.9 141.19 189.26 134.76 195.36 133.63 189.28 132.15 187.9 126.07 186.51 132.15 180.44 133.63" style="fill:#fff"></polygon><polygon points="121.8 183.22 127.9 184.35 129.26 190.78 130.63 184.35 136.72 183.22 130.65 181.74 129.26 175.66 127.88 181.74 121.8 183.22" style="fill:#fff"></polygon><polygon points="316.71 394.55 322.81 395.68 324.17 402.1 325.53 395.68 331.63 394.55 325.56 393.06 324.17 386.99 322.78 393.06 316.71 394.55" style="fill:#fff"></polygon><polygon points="368.57 415.23 374.66 416.36 376.03 422.79 377.39 416.36 383.49 415.23 377.42 413.75 376.03 407.68 374.64 413.75 368.57 415.23" style="fill:#fff"></polygon><polygon points="343.9 109.19 350 110.31 351.36 116.74 352.72 110.31 358.82 109.18 352.75 107.7 351.36 101.63 349.97 107.7 343.9 109.19" style="fill:#fff"></polygon><path d="M440.25,400.78a1.77,1.77,0,0,1,0,3.53A1.77,1.77,0,0,1,440.25,400.78Z" style="fill:#fff"></path><path d="M217.59,103.83a1.77,1.77,0,0,1,0,3.53A1.77,1.77,0,0,1,217.59,103.83Z" style="fill:#fff"></path><path d="M413.1,386.77a1.77,1.77,0,0,1,0,3.54A1.77,1.77,0,0,1,413.1,386.77Z" style="fill:#fff"></path><path d="M311.22,123.81a1.77,1.77,0,0,1,0,3.54A1.77,1.77,0,0,1,311.22,123.81Z" style="fill:#fff"></path><path d="M226.68,386.15a1.77,1.77,0,0,1,0,3.53A1.77,1.77,0,0,1,226.68,386.15Z" style="fill:#fff"></path><path d="M89.12,393.23a1.26,1.26,0,0,1,0,2.51A1.26,1.26,0,0,1,89.12,393.23Z" style="fill:#fff"></path><path d="M155.66,421.32a1.25,1.25,0,0,1,0,2.5A1.25,1.25,0,0,1,155.66,421.32Z" style="fill:#fff"></path><path d="M282.65,427.6a1.25,1.25,0,0,1,0,2.5A1.25,1.25,0,0,1,282.65,427.6Z" style="fill:#fff"></path><path d="M305.67,101.73a1.25,1.25,0,0,1,0,2.5A1.25,1.25,0,0,1,305.67,101.73Z" style="fill:#fff"></path><path d="M234.81,94.31c4.36,0,4.37,6.78,0,6.78S230.44,94.31,234.81,94.31Z" style="fill:#fff"></path><path d="M292.1,416.09c4.36,0,4.37,6.78,0,6.78S287.73,416.09,292.1,416.09Z" style="fill:#fff"></path><path d="M322.46,350.32c4.36,0,4.37,6.78,0,6.78S318.09,350.32,322.46,350.32Z" style="fill:#fff"></path></g></g><g id="freepik--Clovers--inject-41"><path d="M393.71,196.1s-3.45-9.3-3-18.14c.42-9,4.65-12.33,7-12.73s5.25,6,4.51,12.37c0,0,7.4-10.23,13.65-6.52S410.13,189.24,393.71,196.1Z" style="fill:#455a64"></path><path d="M393.85,195.88s5.37-2.93,14.75-4.48c7.19-1.2,17.2,2.24,17.18,5.72S415.72,201,415.72,201s7.23,5,4.51,9.34S401.44,207.46,393.85,195.88Z" style="fill:#455a64"></path><path d="M393.58,195.56s-4-11-9.71-15.85-12.54-5.85-14.14-3.07,7.88,9.29,7.88,9.29-11.33-.48-11.7,5.25S380.4,199.47,393.58,195.56Z" style="fill:#455a64"></path><path d="M393.94,195.68s4.16,8.11,5.1,14.66-1.45,11.71-4.1,12.06-6.19-4.91-5.23-10.45c0,0-5.64,7.08-10.18,4.12S383.44,202.28,393.94,195.68Z" style="fill:#455a64"></path><path d="M413.65,201.25a37.72,37.72,0,0,0-19.37-5.09c3.75-5.16,6-11.53,7.73-17.58,0-.12-.15-.19-.18-.06C399.9,184.59,394,196,394,196c-1.37-2.13-3.89-3.86-6-5.21a35.67,35.67,0,0,0-7.89-3.68.11.11,0,0,0-.07.2,37.14,37.14,0,0,1,7.55,4.06c2.18,1.49,6.21,5,6.25,5-.63,4.91-2.33,9.32-3.73,14a.17.17,0,0,0,.31.12c2.06-4.31,3.75-9.28,3.7-14.11a59.58,59.58,0,0,1,19.36,5A.13.13,0,0,0,413.65,201.25Z" style="fill:#37474f"></path><path d="M146.37,321.65s-3.25-7.49-3.31-14.78c-.07-7.45,3.27-10.36,5.16-10.79s4.6,4.66,4.28,10c0,0,5.62-8.75,10.93-6S159.57,315.27,146.37,321.65Z" style="fill:#455a64"></path><path d="M146.48,321.47a41.92,41.92,0,0,1,11.93-4.36c5.86-1.3,14.25,1.07,14.39,3.94s-8.1,3.6-8.1,3.6,6.18,3.81,4.13,7.49S153.25,330.65,146.48,321.47Z" style="fill:#455a64"></path><path d="M146.24,321.22s-3.81-8.88-8.7-12.61-10.58-4.25-11.77-1.89,6.9,7.29,6.9,7.29-9.34.12-9.39,4.84S135.57,325,146.24,321.22Z" style="fill:#455a64"></path><path d="M146.55,321.3s3.78,6.48,4.85,11.83-.67,9.69-2.83,10.1-5.31-3.76-4.77-8.36c0,0-4.32,6.08-8.19,3.85S138.2,327.19,146.55,321.3Z" style="fill:#455a64"></path><path d="M163,325a30.91,30.91,0,0,0-16.17-3.32c2.86-4.42,4.4-9.76,5.58-14.81,0-.1-.13-.15-.16-.05-1.31,5.08-5.63,14.74-5.63,14.76a16.55,16.55,0,0,0-5.15-4,29.47,29.47,0,0,0-6.65-2.67.08.08,0,1,0-.05.16,31.56,31.56,0,0,1,6.39,3c1.86,1.13,5.34,3.83,5.36,3.83-.29,4.06-1.5,7.77-2.44,11.7a.14.14,0,0,0,.27.09,27.22,27.22,0,0,0,2.41-11.78,48.85,48.85,0,0,1,16.15,3.29C163,325.23,163.12,325.05,163,325Z" style="fill:#37474f"></path><path d="M367.27,346.68s-6.8-4.54-10.8-10.64-2.85-10.47-1.49-11.87,6.39,1.44,9,6.08c0,0,0-10.41,6-10.95S374.91,334.17,367.27,346.68Z" style="fill:#455a64"></path><path d="M367.26,346.46a41.7,41.7,0,0,1,7.67-10.11c4.23-4.28,12.56-6.82,14.24-4.48s-4.87,7.41-4.87,7.41,7.26-.14,7.52,4.06S377.92,350.52,367.26,346.46Z" style="fill:#455a64"></path><path d="M366.92,346.38s-8-5.4-14.13-5.89-11.21,2.15-10.93,4.78,9.75,2.4,9.75,2.4-7.79,5.15-5.28,9.15S360,355.35,366.92,346.38Z" style="fill:#455a64"></path><path d="M367.22,346.29s6.69,3.4,10.48,7.32,4.69,8.51,3.09,10-6.5-.29-8.54-4.45c0,0-.34,7.45-4.8,7.66S363.4,355.76,367.22,346.29Z" style="fill:#455a64"></path><path d="M383.07,340.48a31.17,31.17,0,0,0-15.4,6c0-5.26-1.58-10.57-3.32-15.46,0-.1-.19-.06-.16,0,1.65,5,3.24,15.44,3.25,15.46a16.38,16.38,0,0,0-6.5-.58,28.74,28.74,0,0,0-7,1.35.08.08,0,0,0,.05.16,31.19,31.19,0,0,1,7-.93c2.17-.06,6.56.33,6.58.31,2,3.57,2.94,7.34,4.28,11.16a.14.14,0,0,0,.27-.07,27.32,27.32,0,0,0-4.35-11.21,49.22,49.22,0,0,1,15.37-6C383.21,340.67,383.19,340.47,383.07,340.48Z" style="fill:#37474f"></path><path d="M109.93,266.51s-13-2.79-22.61-9.6c-9.88-7-10.56-14.09-9.34-17s10.48-1.65,17.18,3.79c0,0-6.22-15.68,2.46-20S114,243.08,109.93,266.51Z" style="fill:#455a64"></path><path d="M109.79,266.19s.55-8.15,5.53-19.83c3.82-9,14.88-17.77,18.79-15.25s-2.9,14.08-2.9,14.08,10.85-4.54,13.76,1.63S128.29,266,109.79,266.19Z" style="fill:#455a64"></path><path d="M109.24,266.27s-15.31-3.36-24.83-.45-15.6,9.93-13.62,13.73,16.13-2.2,16.13-2.2-8.67,12.42-2.49,16.95S104.17,283.92,109.24,266.27Z" style="fill:#455a64"></path><path d="M109.63,266s12.12,1.13,20.18,4.78,12.14,10,10.64,13.28-10,3.44-15.53-1.61c0,0,3.93,11.43-2.67,14.42S109.52,282.51,109.63,266Z" style="fill:#455a64"></path><path d="M130.06,247.74a50.3,50.3,0,0,0-19.65,18.17c-3.12-7.94-8.7-15-14.25-21.33-.11-.13-.32,0-.21.16,5.46,6.53,14.11,21.35,14.14,21.37-3.39,0-7.14,1.62-10.15,3a47.21,47.21,0,0,0-9.81,6.23.14.14,0,0,0,.17.23,49.7,49.7,0,0,1,10-5.59c3.24-1.39,10.08-3.42,10.1-3.46,5.08,4.22,8.83,9.32,13.13,14.28a.23.23,0,0,0,.36-.28c-3.38-5.41-7.76-10.88-13.24-14.3A79.37,79.37,0,0,1,130.23,248C130.39,247.93,130.23,247.65,130.06,247.74Z" style="fill:#37474f"></path></g></svg>